<svg id="Capa_1" data-name="Capa 1" xmlns="http://www.w3.org/2000/svg" viewBox="0 0 200.6 126.3"><path d="M163.52,47.35V98.61a5.75,5.75,0,0,1-2.45,2.8q-20.94,12-41.84,24.12a4.72,4.72,0,0,1-5.2,0q-20.15-11.67-40.36-23.24a4.76,4.76,0,0,0-2.3-.61c-9.79,0-19.58-.08-29.37,0-2.41,0-4-.82-4.92-3v-2c1-2.29,2.87-2.94,5.28-2.93,10.08.07,20.16.05,30.24,0a7.52,7.52,0,0,1,4,1.06q17.28,10,34.59,19.94l1.45.82c0-.44,0-.69,0-.93q0-19.22,0-38.44a1.51,1.51,0,0,0-1-1.49Q92.92,63.88,74.12,53.06a6.4,6.4,0,0,0-3-.81c-9.59-.06-19.17-.08-28.76,0-2.42,0-4.23-.68-5.29-2.93v-2C38,45.1,39.58,44.28,42,44.3c9.83.07,19.66,0,29.49,0a3.84,3.84,0,0,0,1.87-.43Q87.15,36,100.9,28a6.1,6.1,0,0,0,.71-.6c-3.29,0-6.33,0-9.37,0a3.83,3.83,0,0,1-3.83-4.1c.09-2.26,1.84-3.76,4.46-3.76,7.61,0,15.22-.05,22.83,0a7.71,7.71,0,0,1,3.61.95c13.76,7.86,27.48,15.8,41.23,23.69A6.08,6.08,0,0,1,163.52,47.35Zm-42.89,68.18,1.18-.61q16.4-9.45,32.8-18.88a1.79,1.79,0,0,0,1-1.84q0-18.86,0-37.71V55.14c-.41.21-.66.32-.89.46q-16.66,9.6-33.34,19.18a1.54,1.54,0,0,0-.82,1.58q0,19,0,38C120.58,114.67,120.61,115,120.63,115.53ZM81.71,48.21c.34.23.56.41.8.55q16.65,9.6,33.3,19.21a1.56,1.56,0,0,0,1.79-.08q16.47-9.53,33-19c.31-.18.61-.38,1-.6a5.67,5.67,0,0,0-.46-.35q-16.86-9.72-33.72-19.46a1.42,1.42,0,0,0-1.66.16L85,46.33Z"/><path d="M62.68,76.92c-3.29,0-6.58,0-9.87,0-2.53,0-4.32-1.62-4.35-3.89s1.77-4,4.36-4q9.87,0,19.74,0c2.54,0,4.3,1.59,4.32,3.88s-1.73,4-4.33,4C69.26,76.93,66,76.92,62.68,76.92Z"/><path d="M65.2,27.43c-4.11,0-8.22,0-12.34,0-2.63,0-4.41-1.61-4.4-3.94s1.81-3.94,4.43-3.94q12.35,0,24.69,0a4.08,4.08,0,0,1,4.17,2.82,3.74,3.74,0,0,1-1.54,4.32,5.36,5.36,0,0,1-2.54.71C73.51,27.47,69.36,27.43,65.2,27.43Z"/></svg>