<?xml version="1.0" encoding="utf-8"?>
<!-- Generator: Adobe Illustrator 24.1.3, SVG Export Plug-In . SVG Version: 6.00 Build 0)  -->
<svg version="1.1" baseProfile="basic" id="Capa_1" xmlns="http://www.w3.org/2000/svg" xmlns:xlink="http://www.w3.org/1999/xlink"
	 x="0px" y="0px" viewBox="0 0 200 129" xml:space="preserve">
<style type="text/css">
	.st0{fill:#DADADA;}
</style>
<path class="st0" d="M183.4,116.7H16.6c-2.8,0-5-2.3-5-5V17.3c0-2.7,2.3-5,5-5h166.8c2.8,0,5,2.3,5,5v94.4
	C188.4,114.4,186.1,116.7,183.4,116.7z"/>
<path d="M100,31.2c18.3,0,33.3,14.9,33.3,33.3S118.3,97.8,100,97.8S66.7,82.8,66.7,64.5S81.7,31.2,100,31.2 M100,26.2
	c-21.1,0-38.3,17.1-38.3,38.3c0,21.1,17.1,38.3,38.3,38.3c21.1,0,38.3-17.1,38.3-38.3C138.3,43.4,121.1,26.2,100,26.2L100,26.2z"/>
</svg>
