<svg id="Capa_1" data-name="Capa 1" xmlns="http://www.w3.org/2000/svg" viewBox="0 0 200.6 126.3"><path d="M186.6,107.26a3.68,3.68,0,0,1-3.77,1.92c-2.5-.08-5,0-7.65,0-.27,5.62-2.34,10.23-6.71,13.64a16.59,16.59,0,0,1-11.11,3.56c-7.07-.24-15.75-5.51-16.49-17.08H80.37c-.27,5.71-2.48,10.41-7.12,13.82a16.57,16.57,0,0,1-11,3.25c-6.63-.37-15.32-5.25-16.14-17.19H44.31c-4,0-8.06,0-12.09,0s-6.12-2.28-6.15-6.18c0-1.72,0-3.44,0-5.34h-7.2a15,15,0,0,1-2-.06,2.62,2.62,0,0,1-.27-5.13,6.12,6.12,0,0,1,1.66-.17h24a7.58,7.58,0,0,1,1.17.06,2.68,2.68,0,0,1,2.39,2.77,2.57,2.57,0,0,1-2.63,2.51c-3.25.07-6.5,0-9.74,0h-1.9v6a10.33,10.33,0,0,0,1.26.16c4.36,0,8.73,0,13.1,0a1.62,1.62,0,0,0,1.7-1.19C50.7,96,55.92,92.34,63.19,92.33S75.82,96,78.91,102.67a1.63,1.63,0,0,0,1.75,1.13q26.63,0,53.24,0c.38,0,.77-.06,1.33-.11V84.85c0-.45,0-.9,0-1.35a2.79,2.79,0,0,1,2.67-2.72,2.66,2.66,0,0,1,2.68,2.82c0,6.05,0,12.1,0,18.14a4.55,4.55,0,0,0,0,1.17c.08.31.34.77.56.8s.66-.26.93-.49.16-.41.25-.61C145.51,96,150.72,92.35,158,92.33s12.62,3.66,15.72,10.33a1.59,1.59,0,0,0,1.74,1.14c1.83-.06,3.68,0,5.64,0V91.88c-.93,0-1.92,0-2.9,0a8.33,8.33,0,0,1-8.43-8.57c0-1.73,0-3.47,0-5.21,0-2.09,1-3,3.12-3.07,2.51,0,5,0,7.77,0A6,6,0,0,0,178,71c-1.54-.91-3.33-2-5-2-10.53-.18-21-.09-31.58-.09a6.28,6.28,0,0,0-.79.13c0,1,0,1.92,0,2.85A2.65,2.65,0,0,1,138,74.66,2.71,2.71,0,0,1,135.25,72c-.05-.5,0-1,0-1.51V23.06H31.45V70.51c0,.56,0,1.12,0,1.68a2.65,2.65,0,0,1-5.22.41,7.39,7.39,0,0,1-.13-1.83q0-23.34,0-46.69c0-4.35,2.15-6.5,6.5-6.51H134.19c4.28,0,6.41,2.11,6.42,6.36,0,1.62,0,3.23,0,5,.71,0,1.3.08,1.89.08,5.77,0,11.54.12,17.3,0,7.25-.19,13.57,4.81,12.31,14.64-.12.9-1.07,1.68-1.85,2.85,1.28,5.11,2.66,10.7,4.1,16.26a1.74,1.74,0,0,0,1,1.08,14.08,14.08,0,0,1,11,11.39,1.69,1.69,0,0,0,.23.44ZM168.85,63.48c-.1-.52-.15-1-.26-1.38-1.19-4.83-2.43-9.64-3.56-14.48-.3-1.24-.78-1.7-2.12-1.68-6.83.07-13.65,0-20.48,0-.54,0-1.09.05-1.67.08V63.48ZM158,121a11.67,11.67,0,1,0-11.65-11.66A11.76,11.76,0,0,0,158,121Zm-94.68,0a11.67,11.67,0,1,0-11.76-11.54A11.72,11.72,0,0,0,63.34,121ZM166.66,40.44c.23-3.39-2.35-6-6-6-6.27-.05-12.53,0-18.79,0a8.39,8.39,0,0,0-1.16.15v5.84Zm14.46,45.88V80.51h-5.83C174.62,85.68,176,87.07,181.12,86.32Z"/><path d="M80.3,68.42,100.47,48.2c1.26-1.27,2.5-2.56,3.8-3.79a2.69,2.69,0,1,1,3.8,3.79Q95.34,61,82.53,73.73c-1.35,1.35-2.75,1.32-4.13,0q-7.05-7-14-14a2.64,2.64,0,0,1-.18-3.9c1.13-1.16,2.68-1.15,4,.17Q73.66,61.29,79,66.73A16.83,16.83,0,0,1,80.3,68.42Z"/><path d="M106.31,97.63H87.5a9.42,9.42,0,0,1-1.84-.09,2.22,2.22,0,0,1-2-2.46,5,5,0,0,1,1.74-2.55c.4-.37,1.28-.26,1.95-.26h38.12a7.64,7.64,0,0,1,1.17,0,2.69,2.69,0,0,1,2.52,2.82,2.62,2.62,0,0,1-2.67,2.48c-2.07.06-4.14,0-6.21,0Z"/><path d="M40.16,86.13q-8.22,0-16.45,0c-2.13,0-3.35-1-3.36-2.64s1.26-2.72,3.33-2.72q16.62,0,33.23,0c2,0,3.34,1.14,3.3,2.77S59,86.13,56.94,86.13C51.35,86.14,45.75,86.13,40.16,86.13Z"/><path d="M158,103.8a5.51,5.51,0,0,1,5.63,5.46,5.56,5.56,0,1,1-11.11.14A5.5,5.5,0,0,1,158,103.8Z"/><path d="M63.21,103.8a5.46,5.46,0,0,1,5.57,5.49,5.56,5.56,0,0,1-5.49,5.62,5.67,5.67,0,0,1-5.62-5.54A5.55,5.55,0,0,1,63.21,103.8Z"/></svg>