<?xml version="1.0" encoding="utf-8"?>
<!-- Generator: Adobe Illustrator 24.1.3, SVG Export Plug-In . SVG Version: 6.00 Build 0)  -->
<svg version="1.1" baseProfile="basic" id="Capa_1" xmlns="http://www.w3.org/2000/svg" xmlns:xlink="http://www.w3.org/1999/xlink"
	 x="0px" y="0px" viewBox="0 0 50 50" xml:space="preserve">
<style type="text/css">
	.st0{fill:#E22621;}
</style>
<g>
	<path class="st0" d="M4.3,43.5c0,0,0.1-0.1,0.1-0.1C4.7,42.4,5.3,42,6.3,42c4.4,0,8.9,0,13.3,0c0.1,0,0.3,0,0.4,0c0,0,0,0,0-0.1
		c-0.3-0.1-0.5-0.2-0.8-0.2c-1.7-0.4-3.3-0.9-5-1.3c-0.5-0.1-0.7-0.4-0.6-0.8c0.1-0.4,0.4-0.5,0.9-0.4c0,0,0.1,0,0.1,0
		c2.8,0.8,5.6,1.5,8.5,2.3c0.1,0,0.3,0.1,0.5,0.1c-1-1.7-1.9-3.4-2.9-5.1c-0.1-0.1-0.2-0.3-0.2-0.4c-0.1-0.3,0-0.6,0.3-0.7
		c0.3-0.2,0.5-0.1,0.7,0.1c0.1,0.1,0.2,0.2,0.2,0.3c0.7,1.3,1.5,2.6,2.2,3.9c0.1,0.1,0.1,0.2,0.3,0.3c0-4.1,0-8.2,0-12.3
		c-0.2,0-0.5,0-0.7,0c-0.6,0-0.7-0.1-0.9-0.7c-0.3-1.1-0.7-2.2-1-3.3c-0.3,0-0.7,0-1,0c-0.5,0-0.7-0.2-0.7-0.8c0-2,0-4,0-6
		c0-0.1,0-0.3,0-0.5c-0.3,0-0.6,0-0.8,0c-0.8,0-1.6,0-2.4,0c-0.6,0-0.8-0.2-0.8-0.8c0-1,0-2.1,0-3.1c0-0.1,0-0.3,0-0.5
		c-0.2,0-0.3,0-0.5,0c-2.7,0-5.5,0-8.2,0c-0.8,0-1-0.1-1-1c0-0.5,0-0.9,0-1.5c-0.3,0-0.7,0-1,0c-0.4,0-0.7-0.1-0.9-0.4
		c0-0.9,0-1.8,0-2.7C4.5,6.1,4.8,5.9,5.2,6C6.1,6,7,6,7.8,6c0.5,0,0.7,0.2,0.7,0.6c0,0.4-0.3,0.6-0.8,0.6c-0.7,0-1.5,0-2.2,0
		c0,0.4,0,0.8,0,1.2c5.8,0,11.7,0,17.6,0c0-0.4,0-0.8,0-1.2c-0.2,0-0.3,0-0.5,0c-3.8,0-7.7,0-11.5,0c-0.1,0-0.2,0-0.4,0
		c-0.3,0-0.6-0.3-0.6-0.6c0-0.3,0.2-0.6,0.6-0.6c0.1,0,0.2,0,0.4,0c3.8,0,7.7,0,11.5,0c0.2,0,0.3,0,0.5,0c0-0.4,0-0.7,0-1
		c0-0.4,0.2-0.6,0.7-0.6c0.8,0,1.5,0,2.3,0c0.4,0,0.7,0.2,0.7,0.7c0,0.3,0,0.6,0,0.9c0.2,0,0.3,0,0.5,0c5.8,0,11.6,0,17.4,0
		c0.8,0,0.9,0.2,0.9,0.9c0,0.6,0,1.3,0,1.9c0,0.6-0.2,0.8-0.8,0.8c-0.3,0-0.6,0-0.9,0c0,0,0,0-0.1,0.1c0,0.5,0,1,0,1.5
		c0,0.7-0.2,0.9-0.9,0.9c-2.7,0-5.5,0-8.2,0c-0.2,0-0.3,0-0.5,0c0,0.2,0,0.3,0,0.5c0,1,0,2.1,0,3.1c0,0.7-0.2,0.8-0.8,0.8
		c-1,0-2.1,0-3.2,0c0,0.2,0,0.3,0,0.5c0,2,0,4,0,5.9c0,0.7-0.2,0.9-0.9,0.9c-0.9,0-0.9,0-1.2,0.9c-0.3,0.8-0.5,1.7-0.8,2.5
		c-0.2,0.5-0.3,0.6-0.8,0.6c-0.2,0-0.5,0-0.8,0c0,4.1,0,8.2,0,12.4c0.1-0.1,0.1-0.2,0.2-0.3c0.8-1.4,1.5-2.7,2.3-4.1
		c0.1-0.2,0.3-0.4,0.5-0.4c0.2,0,0.5,0.1,0.5,0.2c0.1,0.2,0.1,0.5,0,0.7c-0.7,1.3-1.4,2.5-2.1,3.7c-0.3,0.5-0.6,1-0.9,1.6
		c0.2-0.1,0.4-0.1,0.5-0.1c2.8-0.8,5.6-1.5,8.4-2.3c0.1,0,0.2,0,0.2-0.1c0.4-0.1,0.7,0.1,0.8,0.4c0.1,0.3-0.1,0.7-0.5,0.8
		c-0.9,0.2-1.7,0.5-2.6,0.7c-1,0.3-2,0.5-3,0.8c-0.1,0-0.2,0.1-0.3,0.2c0.2,0,0.3,0,0.5,0c4.4,0,8.9,0,13.3,0c0.5,0,1,0.1,1.4,0.5
		c1,0.9,0.7,2.5-0.5,3c-0.1,0.1-0.2,0.1-0.4,0.2c-2.2,0-4.4,0-6.5,0c-0.3-0.2-0.5-0.4-0.4-0.8c0.1-0.4,0.4-0.4,0.8-0.4
		c1.8,0,3.6,0,5.4,0c0.6,0,0.9-0.2,1-0.6c0-0.4-0.3-0.6-0.9-0.6c-12.3,0-24.7,0-37,0c-0.6,0-0.9,0.2-0.9,0.6c0,0.4,0.3,0.6,1,0.6
		c9.4,0,18.7,0,28.1,0c0.1,0,0.3,0,0.4,0c0.2,0.1,0.4,0.2,0.5,0.4c0.1,0.2,0,0.4-0.1,0.6c0,0.1-0.1,0.1-0.2,0.2
		c-9.8,0-19.6,0-29.4,0c-0.7-0.2-1.2-0.7-1.5-1.5C4.3,44,4.3,43.7,4.3,43.5z M32.9,12.1c-5.2,0-10.5,0-15.7,0c0,1.1,0,2.1,0,3.2
		c5.2,0,10.4,0,15.7,0C32.9,14.2,32.9,13.2,32.9,12.1z M44.4,7.2c-5.9,0-11.7,0-17.6,0c0,0.4,0,0.8,0,1.2c0.2,0,0.3,0,0.5,0
		c2.8,0,5.6,0,8.5,0c0.2,0,0.3,0,0.5,0c0.3,0.1,0.4,0.3,0.4,0.6c0,0.3-0.2,0.5-0.5,0.5c-0.1,0-0.3,0-0.4,0c-2.8,0-5.6,0-8.4,0
		c-0.2,0-0.3,0-0.5,0c0,0.4,0,0.8,0,1.2c5.2,0,10.4,0,15.7,0c0-0.4,0-0.8,0-1.2c-0.2,0-0.3,0-0.5,0c-1,0-2,0-3,0
		c-0.4,0-0.7-0.2-0.7-0.6c0-0.4,0.2-0.6,0.7-0.6c0.1,0,0.2,0,0.3,0c1.5,0,3.1,0,4.6,0c0.1,0,0.3,0,0.4,0C44.4,8,44.4,7.6,44.4,7.2z
		 M28.8,16.5c-2.6,0-5.1,0-7.6,0c0,2,0,4,0,6c2.5,0,5,0,7.6,0C28.8,20.5,28.8,18.5,28.8,16.5z M7.5,10.8c5.2,0,10.4,0,15.7,0
		c0-0.4,0-0.8,0-1.2c-5.2,0-10.4,0-15.7,0C7.5,10,7.5,10.4,7.5,10.8z M23,23.8c0.3,0.9,0.5,1.7,0.8,2.6c0,0.1,0.2,0.2,0.3,0.2
		c0.6,0,1.2,0,1.9,0c0.1,0,0.2-0.1,0.3-0.2c0.3-0.9,0.5-1.7,0.8-2.6C25.7,23.8,24.4,23.8,23,23.8z M25.6,10.9c0-1.8,0-3.5,0-5.3
		c-0.4,0-0.8,0-1.2,0c0,1.7,0,3.4,0,5c0,0.1,0.1,0.2,0.2,0.2C24.9,10.9,25.3,10.9,25.6,10.9z"/>
	<path class="st0" d="M30.7,39.1c-0.2-0.1-0.4-0.2-0.5-0.4c-0.1-0.2,0-0.4,0-0.6c0-0.1,0.2-0.2,0.3-0.2c1.9-1.4,3.7-2.7,5.6-4.1
		c0.1-0.1,0.3-0.2,0.5-0.2c0.2,0,0.4,0.2,0.6,0.3c0.2,0.2,0.1,0.5-0.2,0.7c-0.3,0.2-0.6,0.4-0.9,0.6c-1.6,1.2-3.2,2.3-4.8,3.5
		C31.2,38.9,31,39,30.7,39.1z"/>
	<path class="st0" d="M40.2,38.7c0,0.3-0.2,0.5-0.5,0.6c-0.5,0.1-1,0.3-1.5,0.4c-0.4,0.1-0.7-0.1-0.8-0.4c-0.1-0.3,0.1-0.6,0.5-0.8
		c0.5-0.1,1-0.3,1.5-0.4C39.8,38,40.2,38.3,40.2,38.7z"/>
	<path class="st0" d="M13.3,33.5c0.2,0.1,0.4,0.2,0.5,0.3c1.9,1.4,3.7,2.7,5.6,4.1c0.4,0.3,0.5,0.6,0.2,0.9c-0.2,0.3-0.6,0.3-1,0.1
		c-1.9-1.4-3.7-2.7-5.6-4.1c-0.3-0.2-0.4-0.4-0.3-0.8C12.9,33.8,13.1,33.6,13.3,33.5z"/>
	<path class="st0" d="M10.5,38.1c0.5,0.1,1.1,0.3,1.7,0.5c0.3,0.1,0.4,0.4,0.3,0.7c-0.1,0.3-0.3,0.5-0.6,0.4
		c-0.6-0.1-1.2-0.3-1.8-0.5c-0.3-0.1-0.4-0.4-0.3-0.7C9.9,38.3,10.1,38.1,10.5,38.1z"/>
	<path class="st0" d="M25,18.9c0.6,0,1.3,0,1.9,0c0.5,0,0.7,0.2,0.7,0.6c0,0.4-0.3,0.6-0.7,0.6c-1.3,0-2.5,0-3.8,0
		c-0.4,0-0.7-0.3-0.7-0.6c0-0.4,0.2-0.6,0.7-0.6C23.7,18.9,24.3,18.9,25,18.9z"/>
</g>
</svg>
