<?xml version="1.0" encoding="utf-8"?>
<!-- Generator: Adobe Illustrator 24.1.3, SVG Export Plug-In . SVG Version: 6.00 Build 0)  -->
<svg version="1.1" baseProfile="basic" xmlns="http://www.w3.org/2000/svg" xmlns:xlink="http://www.w3.org/1999/xlink" x="0px"
	 y="0px" viewBox="0 0 100 28.7" xml:space="preserve">
<style type="text/css">
	.st0{fill:#FFFFFF;}
	.st1{fill:#020203;}
	.st2{fill:#E22621;}
</style>
<g id="Capa_1">
</g>
<g id="Capa_2">
</g>
<g id="Capa_3">
	<g>
		<g>
			<path class="st0" d="M97,28.7H3c-1.7,0-3-1-3-2.3V2.3C0,1,1.4,0,3,0h94c1.7,0,3,1,3,2.3v24.2C100,27.7,98.6,28.7,97,28.7z"/>
		</g>
		<g>
			<path class="st1" d="M38.6,9.9h-1.8v0.8h1.6v1h-1.6v0.9h1.8v1.1h-3.2V8.8h3.2V9.9z"/>
			<path class="st1" d="M43.3,13.3l1,1.3h-1.6l-0.5-0.8c-0.2,0-0.3,0-0.5,0c-1.4,0-2.5-1.1-2.5-2.5s1.1-2.5,2.5-2.5
				c1.4,0,2.5,1,2.5,2.5C44.2,12.1,43.8,12.8,43.3,13.3z M41.7,12.5c0.7,0,1.1-0.5,1.1-1.3c0-0.8-0.4-1.3-1.1-1.3
				c-0.7,0-1.1,0.5-1.1,1.3C40.5,12.1,41,12.5,41.7,12.5z"/>
			<path class="st1" d="M44.8,8.8h1.4v2.9c0,0.5,0.2,0.8,0.7,0.8s0.8-0.3,0.8-0.8V8.8H49v2.9c0,1.4-1,2.1-2.2,2.1
				c-1.2,0-2.1-0.7-2.1-2.1V8.8z"/>
			<path class="st1" d="M49.8,8.8h1.4v4.9h-1.4V8.8z"/>
			<path class="st1" d="M54,12.1h-0.7v1.7H52V8.8H54c1.2,0,1.8,0.7,1.8,1.6C55.9,11.3,55.3,12.1,54,12.1z M53.9,11
				c0.4,0,0.6-0.2,0.6-0.5c0-0.3-0.2-0.5-0.6-0.5h-0.5V11H53.9z"/>
			<path class="st1" d="M58.8,13.8c-1.4,0-2.5-1.1-2.5-2.5s1.1-2.5,2.5-2.5c1.4,0,2.5,1,2.5,2.5S60.2,13.8,58.8,13.8z M58.8,12.5
				c0.7,0,1.1-0.5,1.1-1.3c0-0.8-0.4-1.3-1.1-1.3c-0.7,0-1.1,0.5-1.1,1.3C57.6,12.1,58.1,12.5,58.8,12.5z"/>
		</g>
		<g>
			<path class="st1" d="M36.6,19.6h-0.7v1.6h-0.4v-3.6h1.1c0.8,0,1.2,0.4,1.2,1C37.8,19.1,37.4,19.6,36.6,19.6z M36.6,19.3
				c0.6,0,0.9-0.3,0.9-0.7c0-0.5-0.2-0.7-0.9-0.7h-0.7v1.5H36.6z"/>
			<path class="st1" d="M38.8,21.1h-0.4v-2.8h0.4v0.5c0.2-0.3,0.5-0.6,1-0.6v0.4h-0.1c-0.5,0-0.9,0.2-0.9,0.9V21.1z"/>
			<path class="st1" d="M41.6,21.2c-0.8,0-1.4-0.6-1.4-1.5c0-0.9,0.6-1.5,1.4-1.5c0.8,0,1.4,0.6,1.4,1.5
				C43,20.6,42.4,21.2,41.6,21.2z M41.6,20.9c0.5,0,1.1-0.4,1.1-1.1c0-0.8-0.5-1.1-1.1-1.1s-1,0.4-1,1.1
				C40.5,20.5,41,20.9,41.6,20.9z"/>
			<path class="st1" d="M43.8,18.6h-0.4v-0.3h0.4v-0.2c0-0.6,0.3-0.9,1-0.9v0.3c-0.5,0-0.6,0.2-0.6,0.6v0.2h0.7v0.3h-0.7v2.5h-0.4
				V18.6z"/>
			<path class="st1" d="M46.6,21.2c-0.8,0-1.4-0.6-1.4-1.5c0-0.9,0.6-1.5,1.4-1.5c0.8,0,1.3,0.6,1.3,1.3c0,0.1,0,0.2,0,0.3h-2.4
				c0,0.7,0.5,1,1,1c0.5,0,0.8-0.3,0.9-0.6h0.4C47.8,20.8,47.3,21.2,46.6,21.2z M45.6,19.6h2c0-0.7-0.5-1-1-1
				C46.1,18.6,45.6,18.9,45.6,19.6z"/>
			<path class="st1" d="M49.6,21.2c-0.6,0-1.1-0.3-1.1-0.8h0.4c0,0.3,0.3,0.5,0.8,0.5c0.4,0,0.6-0.2,0.6-0.5c0-0.7-1.7-0.3-1.7-1.4
				c0-0.4,0.4-0.8,1-0.8c0.6,0,1,0.3,1,0.9h-0.4c0-0.3-0.3-0.6-0.7-0.6c-0.4,0-0.6,0.2-0.6,0.5c0,0.8,1.7,0.4,1.7,1.4
				C50.6,20.8,50.2,21.2,49.6,21.2z"/>
			<path class="st1" d="M51.2,17.5c0-0.2,0.1-0.3,0.3-0.3s0.3,0.1,0.3,0.3s-0.1,0.3-0.3,0.3S51.2,17.6,51.2,17.5z M51.3,18.3h0.4
				v2.8h-0.4V18.3z"/>
			<path class="st1" d="M53.7,21.2c-0.8,0-1.4-0.6-1.4-1.5c0-0.9,0.6-1.5,1.4-1.5c0.8,0,1.4,0.6,1.4,1.5
				C55.2,20.6,54.5,21.2,53.7,21.2z M53.7,20.9c0.5,0,1.1-0.4,1.1-1.1c0-0.8-0.5-1.1-1.1-1.1s-1,0.4-1,1.1
				C52.7,20.5,53.2,20.9,53.7,20.9z"/>
			<path class="st1" d="M58,19.5c0-0.6-0.3-1-0.9-1c-0.5,0-0.9,0.3-0.9,1v1.6h-0.4v-2.8h0.4v0.5c0.2-0.4,0.5-0.5,1-0.5
				c0.6,0,1.2,0.4,1.2,1.2v1.7H58V19.5z"/>
			<path class="st1" d="M60.3,18.2c0.6,0,1,0.3,1.1,0.7v-0.6h0.4v2.8h-0.4v-0.6c-0.2,0.4-0.6,0.7-1.1,0.7c-0.8,0-1.4-0.6-1.4-1.5
				S59.6,18.2,60.3,18.2z M60.4,18.6c-0.6,0-1.1,0.4-1.1,1.1c0,0.7,0.5,1.2,1.1,1.2c0.6,0,1.1-0.4,1.1-1.1S61,18.6,60.4,18.6z"/>
			<path class="st1" d="M62.7,17.3H63v3.9h-0.4V17.3z"/>
			<path class="st1" d="M65.1,21.2c-0.8,0-1.4-0.6-1.4-1.5c0-0.9,0.6-1.5,1.4-1.5c0.8,0,1.3,0.6,1.3,1.3c0,0.1,0,0.2,0,0.3h-2.4
				c0,0.7,0.5,1,1,1c0.5,0,0.8-0.3,0.9-0.6h0.4C66.3,20.8,65.8,21.2,65.1,21.2z M64.1,19.6h2c0-0.7-0.5-1-1-1
				C64.6,18.6,64.1,18.9,64.1,19.6z"/>
			<path class="st1" d="M68.1,21.2c-0.6,0-1.1-0.3-1.1-0.8h0.4c0,0.3,0.3,0.5,0.8,0.5c0.4,0,0.6-0.2,0.6-0.5c0-0.7-1.7-0.3-1.7-1.4
				c0-0.4,0.4-0.8,1-0.8c0.6,0,1,0.3,1,0.9h-0.4c0-0.3-0.3-0.6-0.7-0.6c-0.4,0-0.6,0.2-0.6,0.5c0,0.8,1.7,0.4,1.7,1.4
				C69.1,20.8,68.7,21.2,68.1,21.2z"/>
			<path class="st1" d="M72.4,18.2c0.6,0,1,0.3,1.1,0.7v-0.6h0.4v2.8h-0.4v-0.6c-0.2,0.4-0.6,0.7-1.1,0.7c-0.8,0-1.4-0.6-1.4-1.5
				S71.6,18.2,72.4,18.2z M72.5,18.6c-0.6,0-1.1,0.4-1.1,1.1c0,0.7,0.5,1.2,1.1,1.2c0.6,0,1.1-0.4,1.1-1.1S73.1,18.6,72.5,18.6z"/>
			<path class="st1" d="M77.4,18.2c0.7,0,1.2,0.4,1.3,1h-0.4c-0.1-0.4-0.4-0.7-0.9-0.7c-0.6,0-1,0.4-1,1.2s0.5,1.2,1,1.2
				c0.5,0,0.8-0.2,0.9-0.7h0.4c-0.1,0.6-0.6,1-1.3,1c-0.8,0-1.4-0.6-1.4-1.5C76,18.8,76.6,18.2,77.4,18.2z"/>
			<path class="st1" d="M80.6,18.2c0.6,0,1,0.3,1.1,0.7v-0.6h0.4v2.8h-0.4v-0.6c-0.2,0.4-0.6,0.7-1.1,0.7c-0.8,0-1.4-0.6-1.4-1.5
				S79.8,18.2,80.6,18.2z M80.6,18.6c-0.6,0-1.1,0.4-1.1,1.1c0,0.7,0.5,1.2,1.1,1.2c0.6,0,1.1-0.4,1.1-1.1S81.2,18.6,80.6,18.6z"/>
			<path class="st1" d="M83.3,21.1h-0.4v-2.8h0.4v0.5c0.2-0.3,0.5-0.6,1-0.6v0.4h-0.1c-0.5,0-0.9,0.2-0.9,0.9V21.1z"/>
			<path class="st1" d="M86,18.2c0.6,0,1,0.3,1.1,0.7v-0.6h0.4v2.9c0,0.8-0.5,1.3-1.3,1.3c-0.7,0-1.2-0.4-1.4-1h0.4
				c0.1,0.4,0.5,0.7,1,0.7c0.5,0,1-0.4,1-1v-0.7c-0.2,0.4-0.6,0.7-1.1,0.7c-0.8,0-1.4-0.6-1.4-1.5S85.2,18.2,86,18.2z M86.1,18.6
				c-0.6,0-1.1,0.4-1.1,1.1c0,0.7,0.5,1.2,1.1,1.2c0.6,0,1.1-0.4,1.1-1.1S86.6,18.6,86.1,18.6z"/>
			<path class="st1" d="M89.6,21.2c-0.8,0-1.4-0.6-1.4-1.5c0-0.9,0.6-1.5,1.4-1.5c0.8,0,1.4,0.6,1.4,1.5
				C91,20.6,90.4,21.2,89.6,21.2z M89.6,20.9c0.5,0,1.1-0.4,1.1-1.1c0-0.8-0.5-1.1-1.1-1.1c-0.5,0-1,0.4-1,1.1
				C88.5,20.5,89,20.9,89.6,20.9z"/>
		</g>
		<g>
			<path class="st2" d="M8.3,20.5c0.1-0.6,0.5-1,1.1-1.3c0.4-0.2,0.7-0.4,1.1-0.6c-0.2-0.3-0.4-0.6-0.5-0.9
				c-0.1-0.2-0.2-0.5-0.2-0.8c0-0.6,0-1.1,0-1.7c0-0.3,0.1-0.6,0.2-0.9c0.1-0.4,0.4-0.6,0.8-0.7c0,0,0.1,0,0.1-0.1
				c0.6-0.5,1.3-0.5,2-0.4c0.5,0.1,0.9,0.3,1.2,0.7c0.4,0.4,0.6,0.8,0.6,1.4c0,0.6,0,1.1,0,1.7c0,0.6-0.3,1.2-0.6,1.6
				c0,0-0.1,0.1-0.1,0.1c0.6,0.4,1.2,0.7,1.8,1.1c0.1-0.1,0.3-0.2,0.5-0.3c-0.1-0.1-0.1-0.1-0.2-0.2c-0.4-0.5-0.6-1-0.6-1.6
				c0-0.6,0-1.2,0-1.8c0-0.3,0.1-0.6,0.2-0.8c0.1-0.2,0.3-0.4,0.5-0.5c0.2-0.1,0.4-0.2,0.6-0.4c0.4-0.3,0.9-0.3,1.3-0.2
				c0.6,0.1,1.1,0.3,1.5,0.7c0.4,0.4,0.6,0.9,0.6,1.4c0,0.5,0,1,0,1.5c0,0.7-0.2,1.2-0.6,1.7c0,0-0.1,0.1-0.1,0.1
				c0.2,0.1,0.3,0.2,0.5,0.3c0.6-0.4,1.2-0.7,1.8-1.1c-0.3-0.4-0.6-0.7-0.7-1.2c0-0.1,0-0.1,0-0.2c0-0.9-0.1-1.7,0.1-2.6
				c0.1-0.5,0.4-0.9,1-1.1c0,0,0.1,0,0.1,0c0.6-0.5,1.3-0.5,2-0.4c0.6,0.1,1,0.4,1.4,0.9c0.3,0.3,0.4,0.7,0.4,1.1c0,0.5,0,1.1,0,1.6
				c0,0.7-0.2,1.2-0.6,1.7c0,0-0.1,0.1-0.1,0.1c0.3,0.2,0.7,0.4,1,0.6c0.2,0.1,0.4,0.2,0.5,0.3c0.4,0.3,0.6,0.7,0.6,1.2
				c0,0.6,0,1.1,0,1.7c0,0.3-0.2,0.5-0.5,0.5c-1.6,0-3.3,0-4.9,0c-0.1,0-0.1,0-0.3,0c0,0.1,0,0.3,0,0.4c0,0.3-0.2,0.4-0.5,0.4
				c-1.7,0-3.4,0-5,0c-0.2,0-0.3-0.1-0.3-0.3c0-0.2,0.1-0.3,0.3-0.3c0.2,0,0.4,0,0.6,0c0,0,0-0.1,0-0.1c-0.2-0.3-0.2-0.6,0-0.9
				c0.1-0.2,0.2-0.5,0.3-0.7c0-0.1,0-0.2,0.1-0.3c-0.2,0.1-0.4,0-0.6-0.1c-0.3-0.2-0.6-0.4-0.9-0.6c-0.1-0.1-0.1-0.1-0.2,0
				c-0.2,0.1-0.4,0.2-0.6,0.4c-0.2,0.1-0.3,0.3-0.3,0.6c0,0.6,0,1.1,0,1.7c0.1,0,0.2,0,0.3,0c0.2,0,0.3,0.1,0.3,0.3
				c0,0.2-0.1,0.3-0.3,0.3c-0.1,0-0.3,0-0.4,0c-0.2,0-0.4-0.1-0.4-0.4c0-0.1,0-0.3,0-0.4c-0.1,0-0.2,0-0.2,0c-1.6,0-3.3,0-4.9,0
				c-0.2,0-0.4-0.1-0.5-0.3C8.3,21.9,8.3,21.2,8.3,20.5z M15.9,17.4c0,0,0,0.1,0,0.1c0,0.8,0.3,1.3,0.9,1.8c0.7,0.5,1.3,0.5,2,0
				c0.3-0.2,0.5-0.5,0.7-0.8c0.3-0.4,0.3-0.8,0.2-1.3c-0.5,0-0.9-0.2-1.2-0.6c-0.1-0.1-0.1-0.1-0.2-0.2c-0.2-0.2-0.4-0.3-0.7-0.3
				c-0.2,0-0.3,0-0.5,0c-0.1,0-0.2,0.1-0.2,0.2c0,0.2-0.1,0.4-0.2,0.5c-0.1,0.3-0.3,0.4-0.6,0.5C16.1,17.4,16,17.4,15.9,17.4z
				 M21.6,16.6c0,0.2,0,0.4,0,0.6c0.2,0.9,0.8,1.4,1.6,1.7c0.1,0,0.3,0,0.4,0c1.1-0.1,1.9-1.4,1.7-2.4c-0.4,0-0.7-0.1-0.9-0.3
				c-0.1-0.1-0.2-0.2-0.3-0.2c-0.3-0.3-0.7-0.5-1.1-0.4c-0.4,0-0.4-0.1-0.5,0.4C22.4,16.2,22.1,16.6,21.6,16.6z M14,16.4
				c-0.5,0-0.9-0.2-1.2-0.6c-0.1-0.1-0.2-0.2-0.3-0.3c-0.1-0.1-0.3-0.2-0.5-0.2c-0.2,0-0.4,0-0.6,0c-0.1,0-0.1,0.1-0.2,0.1
				c-0.1,0.1-0.1,0.3-0.1,0.4c-0.1,0.3-0.3,0.6-0.7,0.6c0,0-0.1,0-0.1,0c0,0.2,0,0.4,0,0.6c0.2,0.7,0.6,1.2,1.3,1.6
				c0.4,0.2,0.8,0.2,1.1,0C13.6,18.3,14.1,17.5,14,16.4z M26.8,22.3c0-0.6,0-1.1,0-1.7c0-0.2-0.1-0.4-0.3-0.6
				c-0.2-0.1-0.4-0.2-0.6-0.3c-0.1,0-0.2,0-0.2,0c-0.3,0.2-0.6,0.4-0.9,0.6c-0.1,0.1-0.3,0.1-0.5,0.2c0,0,0,0-0.1,0
				c0,0.1,0,0.2,0,0.2c0.1,0.3,0.2,0.6,0.4,0.8c0.1,0.3,0.2,0.5,0,0.7c0,0,0,0.1,0,0.1C25.3,22.3,26,22.3,26.8,22.3z M8.9,22.3
				c0.7,0,1.5,0,2.2,0c0-0.1,0-0.1-0.1-0.1c-0.2-0.2-0.2-0.4,0-0.6c0.2-0.3,0.3-0.6,0.4-0.9c0-0.1,0-0.2,0-0.2c0,0,0,0-0.1,0
				c-0.2,0-0.3-0.1-0.4-0.1c-0.3-0.2-0.6-0.4-0.9-0.6c-0.1,0-0.1,0-0.2,0c-0.2,0.1-0.4,0.2-0.6,0.4c-0.2,0.1-0.3,0.4-0.3,0.6
				C8.9,21.2,8.9,21.7,8.9,22.3z M18.5,21.1c0,0.1,0,0.2,0.1,0.3c0.1,0.3,0.3,0.7,0.4,1c0.1,0.2,0.1,0.3,0,0.5
				c-0.1,0.1-0.1,0.2-0.1,0.2c0.8,0,1.5,0,2.2,0c0-0.4,0-0.8,0-1.1c0-0.9-0.1-1-0.9-1.5c-0.1-0.1-0.2,0-0.3,0
				c-0.3,0.2-0.6,0.4-0.9,0.6C18.9,21.2,18.8,21.2,18.5,21.1z M19.7,16.7c0-0.2,0-0.4,0-0.6c0-0.6-0.2-1-0.7-1.3
				c-0.3-0.2-0.6-0.3-0.9-0.4c-0.5-0.1-1-0.1-1.3,0.3c0,0-0.1,0.1-0.2,0.1c-0.2,0-0.4,0.2-0.5,0.4c-0.2,0.5-0.1,1-0.2,1.6
				c0.2,0,0.2-0.1,0.3-0.2c0-0.2,0.1-0.4,0.1-0.5c0.1-0.3,0.3-0.4,0.6-0.4c0.2,0,0.3,0,0.5,0c0.4,0,0.8,0.1,1.2,0.4
				c0.2,0.1,0.3,0.3,0.5,0.4C19.3,16.6,19.5,16.7,19.7,16.7z M25.4,15.8c0-0.2,0-0.5,0-0.7c0-0.3-0.1-0.6-0.3-0.9
				c-0.4-0.4-0.8-0.6-1.3-0.7c-0.5-0.1-0.9,0-1.2,0.4c0,0-0.1,0.1-0.2,0.1c-0.4,0-0.6,0.3-0.6,0.6c-0.1,0.4-0.1,0.9-0.1,1.3
				c0.2,0,0.3-0.1,0.3-0.2c0-0.2,0.1-0.4,0.1-0.5c0.1-0.3,0.3-0.4,0.6-0.4c0.2,0,0.4,0,0.5,0c0.4,0,0.7,0.1,1,0.4
				c0.2,0.1,0.3,0.3,0.5,0.5C24.9,15.8,25.1,15.9,25.4,15.8z M10.2,16c0.2,0,0.3-0.1,0.3-0.2c0-0.2,0.1-0.3,0.1-0.5
				c0.1-0.3,0.3-0.4,0.6-0.5c0.2,0,0.3,0,0.5,0c0.4,0,0.8,0.1,1.1,0.4c0.2,0.1,0.3,0.3,0.5,0.5c0.2,0.1,0.4,0.2,0.6,0.2
				c0-0.2,0-0.5,0-0.7c0-0.3-0.1-0.6-0.3-0.9c-0.4-0.4-0.8-0.6-1.3-0.7c-0.5-0.1-0.9,0-1.2,0.4c0,0-0.1,0.1-0.1,0.1
				c-0.4,0-0.6,0.3-0.7,0.7C10.3,15.1,10.3,15.6,10.2,16z M15.1,20c-0.2-0.1-0.4-0.2-0.6-0.4c-0.1-0.1-0.1,0-0.2,0
				c-0.3,0.2-0.6,0.4-0.8,0.5c-0.2,0.1-0.3,0.2-0.6,0.1c0,0.1,0,0.2,0.1,0.3c0.1,0.3,0.2,0.6,0.4,0.9c0.1,0.2,0.2,0.5,0,0.7
				c0,0,0,0.1-0.1,0.1c0.3,0,0.5,0,0.8,0C13.9,21.3,14,20.4,15.1,20z M20.5,20C20.6,20,20.6,20,20.5,20c0.1,0.1,0.1,0.1,0.2,0.1
				c0.7,0.3,1,0.9,1,1.7c0,0.2,0,0.3,0,0.5c0.3,0,0.5,0,0.8,0c0-0.1-0.1-0.1-0.1-0.1c-0.2-0.2-0.2-0.4,0-0.6
				c0.2-0.3,0.3-0.6,0.4-0.9c0-0.1,0-0.2,0-0.2c0,0,0,0-0.1,0c-0.1,0-0.3-0.1-0.4-0.1c-0.3-0.2-0.6-0.4-0.9-0.6c0,0-0.1-0.1-0.2,0
				C20.9,19.7,20.7,19.9,20.5,20z M17.8,23.1c0.3,0.1,0.5,0,0.6-0.3c0.1-0.1,0.1-0.2,0-0.3c-0.1-0.2-0.2-0.3-0.2-0.5
				c-0.1-0.3-0.2-0.3-0.5-0.3c-0.1,0-0.2,0-0.2,0.1c-0.1,0.2-0.2,0.5-0.3,0.7c0,0,0,0.1,0,0.2C17.3,22.9,17.4,23.2,17.8,23.1z
				 M23.5,22.3c0.3,0.1,0.4-0.1,0.6-0.3c0.1-0.1,0.1-0.2,0-0.3c-0.1-0.2-0.2-0.4-0.3-0.7c-0.1-0.1-0.1-0.2-0.3-0.2
				c-0.1,0-0.1,0-0.2,0c-0.1,0-0.1,0.1-0.2,0.1c-0.1,0.3-0.2,0.5-0.4,0.8c0,0,0,0.1,0,0.2C23,22.2,23,22.3,23.5,22.3z M12.2,22.3
				c0.1,0,0.1,0,0.2,0c0.2,0,0.3,0,0.3-0.2c0,0,0-0.1,0.1-0.1c0.1-0.1,0.1-0.2,0-0.4c-0.1-0.2-0.2-0.3-0.2-0.5
				c-0.2-0.3-0.2-0.3-0.5-0.3c-0.1,0-0.1,0-0.1,0.1c-0.1,0.3-0.3,0.5-0.4,0.8c0,0,0,0.1,0,0.2C11.6,22.1,11.8,22.4,12.2,22.3z
				 M18.4,20.2c0.1,0.1,0.2,0.2,0.3,0.3c0,0,0.1,0.1,0.1,0c0.2-0.1,0.5-0.3,0.7-0.5c-0.2-0.1-0.3-0.2-0.4-0.3c0,0-0.1,0-0.1,0
				C18.8,19.9,18.6,20,18.4,20.2z M17.2,20.2c-0.2-0.1-0.4-0.2-0.6-0.3c0,0-0.1,0-0.1,0c-0.1,0.1-0.3,0.2-0.5,0.3
				c0.1,0.1,0.2,0.2,0.4,0.2C16.9,20.6,16.9,20.6,17.2,20.2C17.2,20.2,17.2,20.2,17.2,20.2z M13.9,19.3c-0.2-0.1-0.3-0.2-0.4-0.3
				c0,0-0.1,0-0.1,0c-0.2,0.1-0.4,0.2-0.6,0.4c0.1,0.1,0.3,0.3,0.4,0.4C13.4,19.6,13.6,19.4,13.9,19.3z M24.5,19.8
				c0.3-0.2,0.5-0.3,0.8-0.5c-0.2-0.1-0.3-0.2-0.5-0.3c-0.2,0.1-0.5,0.2-0.7,0.4C24.2,19.5,24.3,19.6,24.5,19.8z M11.2,19.8
				c0.1-0.2,0.3-0.3,0.4-0.4c-0.2-0.1-0.5-0.2-0.7-0.4c-0.1,0.1-0.3,0.2-0.5,0.3C10.7,19.4,10.9,19.6,11.2,19.8z M22.9,19.4
				c-0.2-0.1-0.4-0.2-0.6-0.3c0,0-0.1,0-0.1,0c-0.1,0.1-0.3,0.2-0.4,0.3c0.3,0.2,0.5,0.3,0.8,0.5c0.1-0.1,0.2-0.2,0.3-0.3
				C22.8,19.4,22.9,19.4,22.9,19.4z M23.7,20.2c0.1-0.3,0.1-0.4-0.2-0.7c-0.1,0.1-0.1,0.1-0.2,0.2c-0.2,0.1-0.1,0.3,0,0.4
				c0,0,0.1,0.1,0.2,0.1C23.6,20.2,23.6,20.2,23.7,20.2z M12.3,20.2c0.1-0.3,0.1-0.4-0.2-0.7c-0.1,0.1-0.1,0.1-0.2,0.2
				c-0.2,0.1-0.1,0.3,0,0.4c0,0,0.2,0.1,0.2,0.1C12.2,20.2,12.3,20.2,12.3,20.2z M18,21c0.1-0.4,0.1-0.4-0.2-0.6
				c-0.2,0.2-0.4,0.3-0.2,0.6C17.7,21,17.9,21,18,21z"/>
			<path class="st2" d="M21.4,9.1c0,2-1.5,3.6-3.5,3.7c-1.9,0.1-3.6-1.2-3.9-3.2c-0.1-0.5,0-1,0.1-1.4c0.1-0.2,0.2-0.3,0.3-0.3
				c0.2,0,0.3,0.2,0.2,0.4c-0.4,1.8,0.7,3.6,2.5,3.9c1.7,0.3,3.4-0.9,3.6-2.7c0.2-1.9-1.2-3.6-3.2-3.6c-0.9,0-1.7,0.4-2.3,1.1
				c0,0-0.1,0.1-0.1,0.1c-0.1,0.1-0.3,0.2-0.4,0.1c-0.1-0.1-0.1-0.3,0-0.4c0.6-0.7,1.3-1.2,2.2-1.4c2.1-0.4,4,0.9,4.4,3
				C21.3,8.7,21.3,8.9,21.4,9.1z"/>
			<path class="st2" d="M17.1,9.6c0.5-0.6,1-1.2,1.5-1.8c0,0,0.1-0.1,0.1-0.1c0.1-0.1,0.2-0.1,0.4,0c0.1,0.1,0.1,0.2,0.1,0.4
				c0,0-0.1,0.1-0.1,0.1c-0.5,0.7-1.1,1.3-1.6,2c-0.2,0.2-0.3,0.2-0.5,0c-0.3-0.2-0.5-0.4-0.8-0.7c-0.2-0.2-0.2-0.3-0.1-0.4
				c0.1-0.1,0.3-0.1,0.5,0C16.6,9.3,16.8,9.4,17.1,9.6z"/>
		</g>
	</g>
</g>
</svg>
