<?xml version="1.0" encoding="utf-8"?>
<!-- Generator: Adobe Illustrator 24.1.3, SVG Export Plug-In . SVG Version: 6.00 Build 0)  -->
<svg version="1.1" baseProfile="basic" xmlns="http://www.w3.org/2000/svg" xmlns:xlink="http://www.w3.org/1999/xlink" x="0px"
	 y="0px" viewBox="0 0 100 28.7" xml:space="preserve">
<style type="text/css">
	.st0{fill:#FFFFFF;}
	.st1{fill:#020203;}
	.st2{fill:#E22621;}
</style>
<g id="Capa_1">
</g>
<g id="Capa_2">
</g>
<g id="Capa_3">
	<g>
		<path class="st0" d="M97,28.7H3c-1.7,0-3-1-3-2.3V2.3C0,1,1.4,0,3,0h94c1.7,0,3,1,3,2.3v24.2C100,27.7,98.7,28.7,97,28.7z"/>
	</g>
	<g>
		<path class="st1" d="M38.6,9.9h-1.8v0.8h1.6v1h-1.6v0.9h1.8v1.1h-3.2V8.8h3.2V9.9z"/>
		<path class="st1" d="M43.3,13.3l1,1.3h-1.6l-0.5-0.8c-0.2,0-0.3,0-0.5,0c-1.4,0-2.5-1.1-2.5-2.5s1.1-2.5,2.5-2.5
			c1.4,0,2.5,1,2.5,2.5C44.2,12.1,43.9,12.8,43.3,13.3z M41.7,12.5c0.7,0,1.1-0.5,1.1-1.3c0-0.8-0.4-1.3-1.1-1.3
			c-0.7,0-1.1,0.5-1.1,1.3C40.5,12.1,41,12.5,41.7,12.5z"/>
		<path class="st1" d="M44.8,8.8h1.4v2.9c0,0.5,0.2,0.8,0.7,0.8s0.8-0.3,0.8-0.8V8.8h1.4v2.9c0,1.4-1,2.1-2.2,2.1
			c-1.2,0-2.1-0.7-2.1-2.1V8.8z"/>
		<path class="st1" d="M49.8,8.8h1.4v4.9h-1.4V8.8z"/>
		<path class="st1" d="M54,12.1h-0.7v1.7H52V8.8H54c1.2,0,1.8,0.7,1.8,1.6C55.9,11.3,55.3,12.1,54,12.1z M53.9,11
			c0.4,0,0.6-0.2,0.6-0.5c0-0.3-0.2-0.5-0.6-0.5h-0.5V11H53.9z"/>
		<path class="st1" d="M59.5,13h-1.8l-0.3,0.8h-1.4l1.8-4.9h1.6l1.8,4.9h-1.5L59.5,13z M58.7,10.3l-0.5,1.6h1.1L58.7,10.3z"/>
		<path class="st1" d="M61.7,8.8h1.7l1.2,3.2l1.2-3.2h1.7v4.9h-1.4V11l-0.9,2.7H64L63.1,11v2.7h-1.4V8.8z"/>
		<path class="st1" d="M68.3,8.8h1.4v4.9h-1.4V8.8z"/>
		<path class="st1" d="M73.6,9.9h-1.8v0.8h1.6v1h-1.6v0.9h1.8v1.1h-3.2V8.8h3.2V9.9z"/>
		<path class="st1" d="M78.8,8.8v4.9h-1.4L75.6,11v2.8h-1.4V8.8h1.4l1.8,2.8V8.8H78.8z"/>
		<path class="st1" d="M79.3,8.8h4v1.1H82v3.8h-1.4V9.9h-1.3V8.8z"/>
		<path class="st1" d="M86.2,13.8c-1.4,0-2.5-1.1-2.5-2.5s1.1-2.5,2.5-2.5c1.4,0,2.5,1,2.5,2.5S87.6,13.8,86.2,13.8z M86.2,12.5
			c0.7,0,1.1-0.5,1.1-1.3c0-0.8-0.4-1.3-1.1-1.3c-0.7,0-1.1,0.5-1.1,1.3C85.1,12.1,85.5,12.5,86.2,12.5z"/>
	</g>
	<g>
		<path class="st1" d="M35.2,17.5h2.4v0.3h-1v3.3h-0.4v-3.3h-1V17.5z"/>
		<path class="st1" d="M39.5,21.2c-0.8,0-1.4-0.6-1.4-1.5c0-0.9,0.6-1.5,1.4-1.5c0.8,0,1.3,0.6,1.3,1.3c0,0.1,0,0.2,0,0.3h-2.4
			c0,0.7,0.5,1,1,1c0.5,0,0.8-0.3,0.9-0.6h0.4C40.6,20.8,40.2,21.2,39.5,21.2z M38.4,19.6h2c0-0.7-0.5-1-1-1
			C38.9,18.6,38.5,18.9,38.4,19.6z"/>
		<path class="st1" d="M42.7,18.2c0.7,0,1.2,0.4,1.3,1h-0.4c-0.1-0.4-0.4-0.7-0.9-0.7c-0.6,0-1,0.4-1,1.2s0.5,1.2,1,1.2
			c0.5,0,0.8-0.2,0.9-0.7H44c-0.1,0.6-0.6,1-1.3,1c-0.8,0-1.4-0.6-1.4-1.5C41.3,18.8,41.9,18.2,42.7,18.2z"/>
		<path class="st1" d="M46.8,19.5c0-0.6-0.3-1-0.9-1c-0.5,0-0.9,0.3-0.9,1v1.6h-0.4v-2.8H45v0.5c0.2-0.4,0.5-0.5,1-0.5
			c0.6,0,1.2,0.4,1.2,1.2v1.7h-0.4V19.5z"/>
		<path class="st1" d="M49.2,21.2c-0.8,0-1.4-0.6-1.4-1.5c0-0.9,0.6-1.5,1.4-1.5c0.8,0,1.4,0.6,1.4,1.5C50.7,20.6,50,21.2,49.2,21.2
			z M49.2,20.9c0.5,0,1.1-0.4,1.1-1.1c0-0.8-0.5-1.1-1.1-1.1s-1,0.4-1,1.1C48.2,20.5,48.7,20.9,49.2,20.9z"/>
		<path class="st1" d="M51.3,17.3h0.4v3.9h-0.4V17.3z"/>
		<path class="st1" d="M53.8,21.2c-0.8,0-1.4-0.6-1.4-1.5c0-0.9,0.6-1.5,1.4-1.5c0.8,0,1.4,0.6,1.4,1.5
			C55.2,20.6,54.6,21.2,53.8,21.2z M53.8,20.9c0.5,0,1.1-0.4,1.1-1.1c0-0.8-0.5-1.1-1.1-1.1s-1,0.4-1,1.1
			C52.7,20.5,53.2,20.9,53.8,20.9z"/>
		<path class="st1" d="M57.1,18.2c0.6,0,1,0.3,1.1,0.7v-0.6h0.4v2.9c0,0.8-0.5,1.3-1.3,1.3c-0.7,0-1.2-0.4-1.4-1h0.4
			c0.1,0.4,0.5,0.7,1,0.7c0.5,0,1-0.4,1-1v-0.7c-0.2,0.4-0.6,0.7-1.1,0.7c-0.8,0-1.4-0.6-1.4-1.5S56.3,18.2,57.1,18.2z M57.1,18.6
			c-0.6,0-1.1,0.4-1.1,1.1c0,0.7,0.5,1.2,1.1,1.2c0.6,0,1.1-0.4,1.1-1.1S57.7,18.6,57.1,18.6z"/>
		<path class="st1" d="M60.1,17.1v0.3L59,18.1v-0.3L60.1,17.1z M59.4,18.3h0.4v2.8h-0.4V18.3z"/>
		<path class="st1" d="M61.8,18.2c0.6,0,1,0.3,1.1,0.7v-0.6h0.4v2.8h-0.4v-0.6c-0.2,0.4-0.6,0.7-1.1,0.7c-0.8,0-1.4-0.6-1.4-1.5
			S61,18.2,61.8,18.2z M61.9,18.6c-0.6,0-1.1,0.4-1.1,1.1c0,0.7,0.5,1.2,1.1,1.2c0.6,0,1.1-0.4,1.1-1.1S62.5,18.6,61.9,18.6z"/>
		<path class="st1" d="M66.8,18.2c0.5,0,0.9,0.3,1.1,0.7v-1.6h0.4v3.9h-0.4v-0.6c-0.2,0.4-0.6,0.7-1.1,0.7c-0.8,0-1.4-0.6-1.4-1.5
			S66,18.2,66.8,18.2z M66.8,18.6c-0.6,0-1.1,0.4-1.1,1.1c0,0.7,0.5,1.2,1.1,1.2c0.6,0,1.1-0.4,1.1-1.1S67.4,18.6,66.8,18.6z"/>
		<path class="st1" d="M70.3,21.2c-0.8,0-1.4-0.6-1.4-1.5c0-0.9,0.6-1.5,1.4-1.5c0.8,0,1.3,0.6,1.3,1.3c0,0.1,0,0.2,0,0.3h-2.4
			c0,0.7,0.5,1,1,1c0.5,0,0.8-0.3,0.9-0.6h0.4C71.5,20.8,71,21.2,70.3,21.2z M69.3,19.6h2c0-0.7-0.5-1-1-1
			C69.8,18.6,69.3,18.9,69.3,19.6z"/>
		<path class="st1" d="M75.3,18.2c0.8,0,1.4,0.6,1.4,1.5s-0.6,1.5-1.4,1.5c-0.6,0-1-0.3-1.1-0.7v2h-0.4v-4.2h0.4v0.6
			C74.3,18.6,74.7,18.2,75.3,18.2z M75.2,18.6c-0.6,0-1.1,0.4-1.1,1.1s0.5,1.1,1.1,1.1c0.6,0,1.1-0.4,1.1-1.2
			C76.3,19,75.8,18.6,75.2,18.6z"/>
		<path class="st1" d="M79.8,21.1h-0.4v-0.5c-0.2,0.4-0.5,0.5-1,0.5c-0.6,0-1.2-0.4-1.2-1.2v-1.7h0.4v1.6c0,0.6,0.3,1,0.9,1
			c0.5,0,0.9-0.3,0.9-1v-1.5h0.4V21.1z"/>
		<path class="st1" d="M82.7,19.5c0-0.6-0.3-1-0.9-1c-0.5,0-0.9,0.3-0.9,1v1.6h-0.4v-2.8H81v0.5c0.2-0.4,0.5-0.5,1-0.5
			c0.6,0,1.2,0.4,1.2,1.2v1.7h-0.4V19.5z"/>
		<path class="st1" d="M84,18.6h-0.4v-0.3H84v-0.7h0.4v0.7h0.8v0.3h-0.8v1.8c0,0.3,0.1,0.5,0.4,0.5h0.3v0.3h-0.4
			c-0.5,0-0.8-0.2-0.8-0.8V18.6z"/>
		<path class="st1" d="M87,18.2c0.6,0,1,0.3,1.1,0.7v-0.6h0.4v2.8h-0.4v-0.6c-0.2,0.4-0.6,0.7-1.1,0.7c-0.8,0-1.4-0.6-1.4-1.5
			S86.2,18.2,87,18.2z M87,18.6c-0.6,0-1.1,0.4-1.1,1.1c0,0.7,0.5,1.2,1.1,1.2c0.6,0,1.1-0.4,1.1-1.1S87.6,18.6,87,18.6z"/>
	</g>
	<g>
		<path class="st2" d="M8.7,22.9C8.7,22.9,8.7,22.9,8.7,22.9c0.2-0.5,0.4-0.7,0.9-0.7c2,0,4,0,6,0c0.1,0,0.1,0,0.2,0c0,0,0,0,0,0
			c-0.1,0-0.2-0.1-0.3-0.1c-0.7-0.2-1.5-0.4-2.2-0.6c-0.2-0.1-0.3-0.2-0.3-0.4c0-0.2,0.2-0.2,0.4-0.2c0,0,0,0,0,0
			c1.3,0.3,2.5,0.7,3.8,1c0.1,0,0.1,0,0.2,0c-0.4-0.8-0.9-1.5-1.3-2.3c0-0.1-0.1-0.1-0.1-0.2c-0.1-0.1,0-0.2,0.1-0.3
			c0.1-0.1,0.2,0,0.3,0.1c0,0,0.1,0.1,0.1,0.2c0.3,0.6,0.7,1.2,1,1.8c0,0.1,0.1,0.1,0.1,0.1c0-1.8,0-3.7,0-5.5c-0.1,0-0.2,0-0.3,0
			c-0.3,0-0.3,0-0.4-0.3c-0.1-0.5-0.3-1-0.5-1.5c-0.2,0-0.3,0-0.5,0c-0.2,0-0.3-0.1-0.3-0.3c0-0.9,0-1.8,0-2.7c0-0.1,0-0.1,0-0.2
			c-0.1,0-0.3,0-0.4,0c-0.4,0-0.7,0-1.1,0c-0.3,0-0.4-0.1-0.4-0.4c0-0.5,0-0.9,0-1.4c0-0.1,0-0.1,0-0.2c-0.1,0-0.2,0-0.2,0
			c-1.2,0-2.5,0-3.7,0c-0.4,0-0.4-0.1-0.4-0.4c0-0.2,0-0.4,0-0.7c-0.2,0-0.3,0-0.5,0c-0.2,0-0.3,0-0.4-0.2c0-0.4,0-0.8,0-1.2
			c0.1-0.2,0.2-0.2,0.4-0.2c0.4,0,0.8,0,1.2,0c0.2,0,0.3,0.1,0.3,0.3c0,0.2-0.1,0.3-0.3,0.3c-0.3,0-0.7,0-1,0c0,0.2,0,0.4,0,0.5
			c2.6,0,5.2,0,7.9,0c0-0.2,0-0.3,0-0.5c-0.1,0-0.1,0-0.2,0c-1.7,0-3.4,0-5.1,0c-0.1,0-0.1,0-0.2,0c-0.2,0-0.3-0.1-0.3-0.3
			c0-0.1,0.1-0.3,0.3-0.3c0.1,0,0.1,0,0.2,0c1.7,0,3.4,0,5.1,0c0.1,0,0.1,0,0.2,0c0-0.2,0-0.3,0-0.4c0-0.2,0.1-0.3,0.3-0.3
			c0.3,0,0.7,0,1,0c0.2,0,0.3,0.1,0.3,0.3c0,0.1,0,0.3,0,0.4c0.1,0,0.2,0,0.2,0c2.6,0,5.2,0,7.8,0c0.4,0,0.4,0.1,0.4,0.4
			c0,0.3,0,0.6,0,0.8c0,0.3-0.1,0.4-0.4,0.4c-0.1,0-0.3,0-0.4,0c0,0,0,0-0.1,0c0,0.2,0,0.4,0,0.7c0,0.3-0.1,0.4-0.4,0.4
			c-1.2,0-2.5,0-3.7,0c-0.1,0-0.1,0-0.2,0C22,8.9,22,9,22,9c0,0.5,0,0.9,0,1.4c0,0.3-0.1,0.4-0.4,0.4c-0.5,0-0.9,0-1.4,0
			c0,0.1,0,0.2,0,0.2c0,0.9,0,1.8,0,2.7c0,0.3-0.1,0.4-0.4,0.4c-0.4,0-0.4,0-0.5,0.4c-0.1,0.4-0.2,0.7-0.3,1.1
			c-0.1,0.2-0.1,0.3-0.4,0.3c-0.1,0-0.2,0-0.3,0c0,1.9,0,3.7,0,5.6c0-0.1,0.1-0.1,0.1-0.1c0.3-0.6,0.7-1.2,1-1.8
			c0-0.1,0.1-0.2,0.2-0.2c0.1,0,0.2,0,0.2,0.1c0,0.1,0,0.2,0,0.3c-0.3,0.6-0.6,1.1-0.9,1.7c-0.1,0.2-0.3,0.4-0.4,0.7
			c0.1,0,0.2,0,0.2-0.1c1.3-0.3,2.5-0.7,3.8-1c0,0,0.1,0,0.1,0c0.2,0,0.3,0,0.3,0.2c0,0.1,0,0.3-0.2,0.3c-0.4,0.1-0.8,0.2-1.2,0.3
			c-0.4,0.1-0.9,0.2-1.3,0.4c0,0-0.1,0-0.1,0.1c0.1,0,0.1,0,0.2,0c2,0,4,0,6,0c0.2,0,0.5,0,0.6,0.2c0.4,0.4,0.3,1.1-0.2,1.4
			c-0.1,0-0.1,0-0.2,0.1c-1,0-2,0-2.9,0c-0.1-0.1-0.2-0.2-0.2-0.4c0.1-0.2,0.2-0.2,0.4-0.2c0.8,0,1.6,0,2.4,0c0.3,0,0.4-0.1,0.4-0.3
			c0-0.2-0.1-0.3-0.4-0.3c-5.5,0-11,0-16.6,0c-0.3,0-0.4,0.1-0.4,0.3c0,0.2,0.1,0.3,0.4,0.3c4.2,0,8.4,0,12.6,0c0.1,0,0.1,0,0.2,0
			c0.1,0,0.2,0.1,0.2,0.2c0,0.1,0,0.2,0,0.3c0,0-0.1,0.1-0.1,0.1c-4.4,0-8.8,0-13.2,0c-0.3-0.1-0.5-0.3-0.7-0.7
			C8.7,23.1,8.7,23,8.7,22.9z M21.5,8.8c-2.4,0-4.7,0-7,0c0,0.5,0,1,0,1.4c2.3,0,4.7,0,7,0C21.5,9.8,21.5,9.3,21.5,8.8z M26.6,6.7
			c-2.6,0-5.2,0-7.9,0c0,0.2,0,0.4,0,0.5c0.1,0,0.2,0,0.2,0c1.3,0,2.5,0,3.8,0c0.1,0,0.1,0,0.2,0c0.1,0,0.2,0.1,0.2,0.3
			c0,0.1-0.1,0.2-0.2,0.2c-0.1,0-0.1,0-0.2,0c-1.3,0-2.5,0-3.8,0c-0.1,0-0.1,0-0.2,0c0,0.2,0,0.4,0,0.5c2.3,0,4.7,0,7,0
			c0-0.2,0-0.4,0-0.5c-0.1,0-0.1,0-0.2,0c-0.5,0-0.9,0-1.4,0c-0.2,0-0.3-0.1-0.3-0.3c0-0.2,0.1-0.3,0.3-0.3c0,0,0.1,0,0.1,0
			c0.7,0,1.4,0,2.1,0c0.1,0,0.1,0,0.2,0C26.6,7,26.6,6.8,26.6,6.7z M19.6,10.8c-1.1,0-2.3,0-3.4,0c0,0.9,0,1.8,0,2.7
			c1.1,0,2.3,0,3.4,0C19.6,12.6,19.6,11.7,19.6,10.8z M10.1,8.3c2.3,0,4.7,0,7,0c0-0.2,0-0.4,0-0.5c-2.3,0-4.7,0-7,0
			C10.1,7.9,10.1,8.1,10.1,8.3z M17.1,14.1c0.1,0.4,0.2,0.8,0.4,1.2c0,0,0.1,0.1,0.1,0.1c0.3,0,0.6,0,0.8,0c0,0,0.1,0,0.1-0.1
			c0.1-0.4,0.2-0.8,0.4-1.2C18.2,14.1,17.7,14.1,17.1,14.1z M18.2,8.3c0-0.8,0-1.6,0-2.4c-0.2,0-0.4,0-0.5,0c0,0.8,0,1.5,0,2.2
			c0,0,0.1,0.1,0.1,0.1C17.9,8.3,18.1,8.3,18.2,8.3z"/>
		<path class="st2" d="M20.5,20.9c-0.1-0.1-0.2-0.1-0.2-0.2c0-0.1,0-0.2,0-0.3c0,0,0.1-0.1,0.1-0.1c0.8-0.6,1.7-1.2,2.5-1.8
			c0.1,0,0.1-0.1,0.2-0.1c0.1,0,0.2,0.1,0.3,0.2c0.1,0.1,0,0.2-0.1,0.3c-0.1,0.1-0.3,0.2-0.4,0.3c-0.7,0.5-1.4,1-2.2,1.6
			C20.7,20.8,20.6,20.9,20.5,20.9z"/>
		<path class="st2" d="M24.7,20.8c0,0.1-0.1,0.2-0.2,0.3c-0.2,0.1-0.4,0.1-0.7,0.2c-0.2,0-0.3,0-0.3-0.2c0-0.2,0-0.3,0.2-0.3
			c0.2-0.1,0.4-0.1,0.7-0.2C24.6,20.4,24.7,20.6,24.7,20.8z"/>
		<path class="st2" d="M12.7,18.4c0.1,0.1,0.2,0.1,0.2,0.1c0.8,0.6,1.7,1.2,2.5,1.8c0.2,0.1,0.2,0.3,0.1,0.4c-0.1,0.1-0.3,0.1-0.4,0
			c-0.8-0.6-1.7-1.2-2.5-1.8c-0.1-0.1-0.2-0.2-0.1-0.3C12.5,18.6,12.6,18.5,12.7,18.4z"/>
		<path class="st2" d="M11.4,20.5c0.2,0.1,0.5,0.1,0.8,0.2c0.1,0,0.2,0.2,0.1,0.3c0,0.1-0.1,0.2-0.3,0.2c-0.3-0.1-0.5-0.1-0.8-0.2
			c-0.1,0-0.2-0.2-0.1-0.3C11.2,20.6,11.3,20.5,11.4,20.5z"/>
		<path class="st2" d="M17.9,11.9c0.3,0,0.6,0,0.9,0c0.2,0,0.3,0.1,0.3,0.3c0,0.2-0.1,0.3-0.3,0.3c-0.6,0-1.1,0-1.7,0
			c-0.2,0-0.3-0.1-0.3-0.3c0-0.2,0.1-0.3,0.3-0.3C17.4,11.9,17.6,11.9,17.9,11.9z"/>
	</g>
</g>
</svg>
