<?xml version="1.0" encoding="utf-8"?>
<!-- Generator: Adobe Illustrator 24.1.3, SVG Export Plug-In . SVG Version: 6.00 Build 0)  -->
<svg version="1.1" baseProfile="basic" xmlns="http://www.w3.org/2000/svg" xmlns:xlink="http://www.w3.org/1999/xlink" x="0px"
	 y="0px" viewBox="0 0 100 28.7" xml:space="preserve">
<style type="text/css">
	.st0{fill:#FFFFFF;}
	.st1{fill:#E22621;}
	.st2{fill:#020203;}
</style>
<g id="Capa_1">
</g>
<g id="Capa_2">
</g>
<g id="Capa_3">
	<g>
		<g>
			<path class="st0" d="M97,28.7H3c-1.7,0-3-1-3-2.3V2.3C0,1,1.4,0,3,0h94c1.7,0,3,1,3,2.3v24.2C100,27.7,98.6,28.7,97,28.7z"/>
		</g>
		<g>
			<path class="st1" d="M8.2,22.8C8,22.8,8,22.6,8,22.4c0-1.4,0-2.8,0-4.1c0-0.3,0.1-0.4,0.4-0.4c0.5,0,1,0,1.5,0c0-0.1,0-0.1,0-0.2
				c0-3.9,0-7.9,0-11.8c0-0.1,0-0.2-0.1-0.3C9.4,5.1,9.5,4.4,9.9,4c0.5-0.4,1.2-0.4,1.6,0c0.5,0.4,0.6,1.1,0.2,1.6
				c-0.1,0.2-0.1,0.2-0.1,0.5c0.8,0,1.6,0,2.5,0c0-0.1,0-0.1,0-0.2c0-0.5,0-1,0-1.6c0-0.3,0.1-0.4,0.4-0.4c1.8,0,3.6,0,5.4,0
				c0.2,0,0.3,0,0.4,0.2c0.1,0.2,0,0.3-0.1,0.4c-0.4,0.5-0.9,1-1.3,1.6C19.2,6.6,19.6,7,20,7.5c0.1,0.1,0.2,0.2,0.3,0.3
				c0.1,0.1,0.2,0.2,0.1,0.4c-0.1,0.1-0.2,0.2-0.3,0.2c-0.8,0-1.7,0-2.5,0c-0.1,0-0.1,0-0.2,0c0,0.1,0,0.1,0,0.2c0,0.5,0,1,0,1.5
				c0,0.3-0.1,0.4-0.4,0.4c-1.6,0-3.3,0-4.9,0c-0.1,0-0.1,0-0.2,0c0,2.5,0,4.9,0,7.4c0.1,0,0.1,0,0.2,0c1,0,2,0,3,0
				c0.4,0,0.4,0.1,0.4,0.4c0,0.3,0,0.5,0,0.8c1.4,0,2.9,0,4.3,0c0-0.1,0-0.1,0-0.2c0-1.4,0-2.9,0-4.3c0-0.7,0.4-1,1-1
				c0.6,0,1.1,0,1.7,0c0,0,0,0,0.1,0c0-0.8,0-1.6,0-2.5c-0.1,0-0.1,0-0.2,0c-1.3,0-2.7,0-4,0c-0.3,0-0.4-0.1-0.4-0.4
				c0-0.3,0-0.7,0-1c0-0.3,0.1-0.4,0.4-0.4c2.4,0,4.9,0,7.3,0c0.8,0,1.4,0.5,1.5,1.2c0,0,0,0.1,0,0.1c0,1.5,0,3.1,0,4.6
				c-0.1,0.2-0.2,0.2-0.4,0.2c-0.3,0-0.5,0-0.8,0c0,1.7,0,3.3,0,4.9c0.3,0,0.5,0,0.8,0c0.2,0,0.3,0,0.5,0.2c0,0.8,0,1.5,0,2.3
				C20.8,22.8,14.5,22.8,8.2,22.8z M8.6,22.2c6,0,11.9,0,17.9,0c0-0.4,0-0.8,0-1.2c-0.1,0-0.2,0-0.2,0c-1.4,0-2.8,0-4.3,0
				c-0.4,0-0.4-0.1-0.4-0.4c0-0.3,0-0.5,0-0.8c-0.1,0-0.2,0-0.2,0c-2,0-4,0-6,0c-0.5,0-0.5,0-0.5-0.5c0-0.2,0-0.4,0-0.7
				c-0.1,0-0.1,0-0.2,0c-1.9,0-3.9,0-5.8,0c-0.1,0-0.2,0-0.2,0.2c0,0.8,0,1.7,0,2.5C8.6,21.6,8.6,21.9,8.6,22.2z M25.3,20.4
				c0-2.9,0-5.8,0-8.6c0.2,0,0.4,0,0.6,0c0,1,0,2,0,3.1c0.2,0,0.4,0,0.6,0c0-0.1,0-0.1,0-0.2c0-1.2,0-2.5,0-3.7c0-0.7-0.4-1-1.1-1.1
				c-2.3,0-4.5,0-6.8,0c-0.1,0-0.1,0-0.2,0c0,0.2,0,0.4,0,0.6c0.1,0,0.2,0,0.2,0c1.3,0,2.6,0,4,0c0.3,0,0.4,0.1,0.4,0.4
				c0,0.9,0,1.9,0,2.8c0,0.3-0.1,0.4-0.4,0.4c-0.6,0-1.3,0-1.9,0c-0.4,0-0.5,0.1-0.5,0.4c0,1.4,0,2.9,0,4.3c0,0.1,0,0.1,0,0.2
				c0.2,0,0.4,0,0.6,0c0-0.1,0-0.2,0-0.2c0-1.2,0-2.5,0-3.7c0-0.3,0.1-0.4,0.4-0.4c1,0,1.9,0,2.9,0c0.3,0,0.4,0.1,0.4,0.4
				c0,1.6,0,3.3,0,4.9c0,0.1,0,0.1,0,0.2C24.9,20.4,25.1,20.4,25.3,20.4z M11.7,8c0,0.2,0,0.4,0,0.6c0.6,0,1.2,0,1.8,0
				c0,0.2,0,0.4,0,0.6c-0.6,0-1.2,0-1.8,0c0,0.2,0,0.4,0,0.6c1.6,0,3.3,0,4.9,0c0-1,0-2,0-3.1c-1.6,0-3.3,0-4.9,0c0,0.2,0,0.4,0,0.6
				c0.6,0,1.2,0,1.8,0c0,0.2,0,0.4,0,0.6C12.9,8,12.3,8,11.7,8z M22.2,20.4c0.6,0,1.2,0,1.8,0c0-1.6,0-3.3,0-4.9c-0.8,0-1.6,0-2.4,0
				c0,1.2,0,2.5,0,3.7c0.1,0,0.1,0,0.2,0c0.3,0,0.4,0.1,0.4,0.4C22.2,19.8,22.2,20.1,22.2,20.4z M11.1,17.9c0-3.9,0-7.8,0-11.7
				c-0.2,0-0.4,0-0.6,0c0,3.9,0,7.8,0,11.7C10.7,17.9,10.9,17.9,11.1,17.9z M17.2,7.7c0.7,0,1.4,0,2.1,0c-0.4-0.4-0.7-0.8-1-1.3
				c-0.2-0.2-0.2-0.3,0-0.5c0.3-0.4,0.6-0.8,0.9-1.1c0,0,0.1-0.1,0.1-0.1c-1.3,0-2.7,0-4,0c0.1,0.1,0.1,0.1,0.2,0.1
				c0.5,0.4,1,0.9,1.5,1.3c0.2,0.1,0.3,0.3,0.2,0.5C17.2,7,17.2,7.3,17.2,7.7z M10.1,4.9c0,0.3,0.3,0.6,0.6,0.6
				c0.3,0,0.6-0.3,0.6-0.6c0-0.3-0.3-0.6-0.6-0.6C10.4,4.3,10.1,4.6,10.1,4.9z M14.8,6.2c0.4,0,0.9,0,1.3,0
				c-0.4-0.4-0.9-0.8-1.3-1.2c0,0.4,0,0.7,0,1C14.8,6.1,14.8,6.1,14.8,6.2z"/>
			<path class="st1" d="M22.5,6.8c0-0.2,0-0.5,0.1-0.7c0.2-0.7,0.8-1.2,1.6-1.2c0.7,0,1.4,0.6,1.4,1.3c0,0.4,0,0.8,0,1.2
				c-0.1,0.8-0.9,1.3-1.6,1.2c-0.7-0.1-1.4-0.7-1.4-1.5C22.5,7,22.5,6.9,22.5,6.8C22.5,6.8,22.5,6.8,22.5,6.8z M25,6.8
				C25,6.8,25,6.8,25,6.8c0-0.1,0-0.2,0-0.4c0-0.5-0.4-0.9-0.9-0.9c-0.5,0-0.9,0.4-0.9,0.9c0,0.2,0,0.5,0,0.7c0,0.5,0.4,0.8,0.8,0.9
				c0.4,0.1,0.9-0.2,1-0.7C25,7.2,25,7,25,6.8z"/>
		</g>
		<g>
			<path class="st2" d="M38.6,9.9h-1.8v0.8h1.6v1h-1.6v0.9h1.8v1.1h-3.2V8.8h3.2V9.9z"/>
			<path class="st2" d="M41.4,12.4l-0.8,1.4h-1.6l1.6-2.5L39,8.8h1.6l0.9,1.4l0.8-1.4h1.6l-1.6,2.5l1.7,2.5h-1.6L41.4,12.4z"/>
			<path class="st2" d="M46.5,12.1h-0.7v1.7h-1.4V8.8h2.1c1.2,0,1.8,0.7,1.8,1.6C48.4,11.3,47.8,12.1,46.5,12.1z M46.4,11
				c0.4,0,0.6-0.2,0.6-0.5c0-0.3-0.2-0.5-0.6-0.5h-0.5V11H46.4z"/>
			<path class="st2" d="M52.1,9.9h-1.8v0.8h1.6v1h-1.6v0.9h1.8v1.1h-3.2V8.8h3.2V9.9z"/>
			<path class="st2" d="M54.9,8.8c1.2,0,1.8,0.7,1.8,1.6c0,0.6-0.4,1.2-1.1,1.4l1.1,1.9h-1.5l-1-1.8h-0.1v1.8h-1.4V8.8H54.9z
				 M54.8,10h-0.7v1h0.7c0.4,0,0.6-0.2,0.6-0.5C55.4,10.2,55.2,10,54.8,10z"/>
			<path class="st2" d="M57.4,8.8h1.4v4.9h-1.4V8.8z"/>
			<path class="st2" d="M62.7,9.9h-1.8v0.8h1.6v1h-1.6v0.9h1.8v1.1h-3.2V8.8h3.2V9.9z"/>
			<path class="st2" d="M68,8.8v4.9h-1.4L64.8,11v2.8h-1.4V8.8h1.4l1.8,2.8V8.8H68z"/>
			<path class="st2" d="M71,8.8c1.2,0,2.1,0.7,2.4,1.8h-1.5C71.7,10.3,71.4,10,71,10c-0.6,0-1,0.5-1,1.2c0,0.8,0.4,1.3,1,1.3
				c0.4,0,0.7-0.2,0.9-0.6h1.5c-0.2,1.1-1.1,1.8-2.4,1.8c-1.5,0-2.5-1-2.5-2.5C68.6,9.8,69.5,8.8,71,8.8z"/>
			<path class="st2" d="M74,8.8h1.4v4.9H74V8.8z"/>
			<path class="st2" d="M79.3,13h-1.8l-0.3,0.8h-1.4l1.8-4.9h1.6l1.8,4.9h-1.4L79.3,13z M78.4,10.3l-0.5,1.6H79L78.4,10.3z"/>
		</g>
		<g>
			<path class="st2" d="M35.3,20.8c1.1-0.8,2-1.6,2-2.4c0-0.4-0.2-0.8-0.8-0.8c-0.6,0-0.8,0.4-0.9,0.9h-0.4c0-0.8,0.5-1.2,1.2-1.2
				c0.7,0,1.1,0.4,1.1,1.1c0,1-1.1,1.8-1.8,2.4h1.9v0.3h-2.5V20.8z"/>
			<path class="st2" d="M40.6,18.3c-0.1-0.4-0.3-0.7-0.8-0.7c-0.7,0-1,0.5-1,1.7c0.1-0.4,0.6-0.7,1.1-0.7c0.7,0,1.2,0.5,1.2,1.3
				c0,0.7-0.4,1.2-1.2,1.2c-1.1,0-1.4-0.8-1.4-1.9c0-1.2,0.4-1.9,1.3-1.9c0.7,0,1.1,0.4,1.1,1H40.6z M38.8,19.9c0,0.5,0.3,1,1,1
				c0.5,0,0.9-0.3,0.9-0.9c0-0.6-0.3-1-0.9-1C39.3,19,38.8,19.2,38.8,19.9z"/>
			<path class="st2" d="M45.3,20.3h-1.7l-0.3,0.9h-0.4l1.3-3.6h0.4l1.3,3.6h-0.4L45.3,20.3z M44.5,18l-0.7,2h1.4L44.5,18z"/>
			<path class="st2" d="M47,21.1h-0.4v-2.8H47v0.5c0.2-0.4,0.5-0.5,1-0.5c0.6,0,1.2,0.4,1.2,1.2v1.7h-0.4v-1.6c0-0.6-0.3-1-0.9-1
				c-0.5,0-0.9,0.3-0.9,1V21.1z M47.6,17.5c0.3,0,0.4,0.2,0.6,0.2c0.1,0,0.2-0.1,0.2-0.2h0.2c0,0.3-0.2,0.5-0.5,0.5
				c-0.3,0-0.4-0.2-0.6-0.2c-0.1,0-0.2,0.1-0.2,0.2h-0.2C47.2,17.7,47.3,17.5,47.6,17.5z"/>
			<path class="st2" d="M51.2,21.2c-0.8,0-1.4-0.6-1.4-1.5c0-0.9,0.6-1.5,1.4-1.5c0.8,0,1.4,0.6,1.4,1.5
				C52.6,20.6,52,21.2,51.2,21.2z M51.2,20.9c0.5,0,1.1-0.4,1.1-1.1c0-0.8-0.5-1.1-1.1-1.1s-1,0.4-1,1.1
				C50.1,20.5,50.6,20.9,51.2,20.9z"/>
			<path class="st2" d="M54.2,21.2c-0.6,0-1.1-0.3-1.1-0.8h0.4c0,0.3,0.3,0.5,0.8,0.5c0.4,0,0.6-0.2,0.6-0.5c0-0.7-1.7-0.3-1.7-1.4
				c0-0.4,0.4-0.8,1-0.8c0.6,0,1,0.3,1,0.9h-0.4c0-0.3-0.3-0.6-0.7-0.6c-0.4,0-0.6,0.2-0.6,0.5c0,0.8,1.7,0.4,1.7,1.4
				C55.2,20.8,54.8,21.2,54.2,21.2z"/>
			<path class="st2" d="M58.6,18.2c0.5,0,0.9,0.3,1.1,0.7v-1.6h0.4v3.9h-0.4v-0.6c-0.2,0.4-0.6,0.7-1.1,0.7c-0.8,0-1.4-0.6-1.4-1.5
				S57.8,18.2,58.6,18.2z M58.6,18.6c-0.6,0-1.1,0.4-1.1,1.1c0,0.7,0.5,1.2,1.1,1.2c0.6,0,1.1-0.4,1.1-1.1S59.2,18.6,58.6,18.6z"/>
			<path class="st2" d="M62.1,21.2c-0.8,0-1.4-0.6-1.4-1.5c0-0.9,0.6-1.5,1.4-1.5c0.8,0,1.3,0.6,1.3,1.3c0,0.1,0,0.2,0,0.3h-2.4
				c0,0.7,0.5,1,1,1c0.5,0,0.8-0.3,0.9-0.6h0.4C63.3,20.8,62.8,21.2,62.1,21.2z M61.1,19.6h2c0-0.7-0.5-1-1-1
				C61.6,18.6,61.1,18.9,61.1,19.6z"/>
			<path class="st2" d="M66.8,18.2c0.6,0,1,0.3,1.1,0.7v-0.6h0.4v2.8h-0.4v-0.6c-0.2,0.4-0.6,0.7-1.1,0.7c-0.8,0-1.4-0.6-1.4-1.5
				S66,18.2,66.8,18.2z M66.8,18.6c-0.6,0-1.1,0.4-1.1,1.1c0,0.7,0.5,1.2,1.1,1.2c0.6,0,1.1-0.4,1.1-1.1S67.4,18.6,66.8,18.6z"/>
			<path class="st2" d="M70.3,18.2c0.7,0,1.2,0.4,1.3,1h-0.4c-0.1-0.4-0.4-0.7-0.9-0.7c-0.6,0-1,0.4-1,1.2s0.5,1.2,1,1.2
				c0.5,0,0.8-0.2,0.9-0.7h0.4c-0.1,0.6-0.6,1-1.3,1c-0.8,0-1.4-0.6-1.4-1.5C68.9,18.8,69.5,18.2,70.3,18.2z"/>
			<path class="st2" d="M72.4,18.6H72v-0.3h0.4v-0.7h0.4v0.7h0.8v0.3h-0.8v1.8c0,0.3,0.1,0.5,0.4,0.5h0.3v0.3h-0.4
				c-0.5,0-0.8-0.2-0.8-0.8V18.6z"/>
			<path class="st2" d="M74.1,17.5c0-0.2,0.1-0.3,0.3-0.3s0.3,0.1,0.3,0.3s-0.1,0.3-0.3,0.3S74.1,17.6,74.1,17.5z M74.2,18.3h0.4
				v2.8h-0.4V18.3z"/>
			<path class="st2" d="M75.4,18.3l1,2.5l1-2.5h0.4l-1.1,2.8h-0.4L75,18.3H75.4z"/>
			<path class="st2" d="M78.1,17.5c0-0.2,0.1-0.3,0.3-0.3s0.3,0.1,0.3,0.3s-0.1,0.3-0.3,0.3S78.1,17.6,78.1,17.5z M78.2,18.3h0.4
				v2.8h-0.4V18.3z"/>
			<path class="st2" d="M80.6,18.2c0.5,0,0.9,0.3,1.1,0.7v-1.6h0.4v3.9h-0.4v-0.6c-0.2,0.4-0.6,0.7-1.1,0.7c-0.8,0-1.4-0.6-1.4-1.5
				S79.8,18.2,80.6,18.2z M80.7,18.6c-0.6,0-1.1,0.4-1.1,1.1c0,0.7,0.5,1.2,1.1,1.2c0.6,0,1.1-0.4,1.1-1.1S81.3,18.6,80.7,18.6z"/>
			<path class="st2" d="M84.1,18.2c0.6,0,1,0.3,1.1,0.7v-0.6h0.4v2.8h-0.4v-0.6c-0.2,0.4-0.6,0.7-1.1,0.7c-0.8,0-1.4-0.6-1.4-1.5
				S83.3,18.2,84.1,18.2z M84.2,18.6c-0.6,0-1.1,0.4-1.1,1.1c0,0.7,0.5,1.2,1.1,1.2c0.6,0,1.1-0.4,1.1-1.1S84.8,18.6,84.2,18.6z"/>
			<path class="st2" d="M87.7,18.2c0.5,0,0.9,0.3,1.1,0.7v-1.6h0.4v3.9h-0.4v-0.6c-0.2,0.4-0.6,0.7-1.1,0.7c-0.8,0-1.4-0.6-1.4-1.5
				S86.9,18.2,87.7,18.2z M87.7,18.6c-0.6,0-1.1,0.4-1.1,1.1c0,0.7,0.5,1.2,1.1,1.2c0.6,0,1.1-0.4,1.1-1.1S88.3,18.6,87.7,18.6z"/>
		</g>
	</g>
</g>
</svg>
