<?xml version="1.0" encoding="utf-8"?>
<!-- Generator: Adobe Illustrator 24.1.3, SVG Export Plug-In . SVG Version: 6.00 Build 0)  -->
<svg version="1.1" baseProfile="basic" id="Capa_1" xmlns="http://www.w3.org/2000/svg" xmlns:xlink="http://www.w3.org/1999/xlink"
	 x="0px" y="0px" viewBox="0 0 100 38" xml:space="preserve">
<style type="text/css">
	.st0{fill:#FFFFFF;}
	.st1{fill:#020203;}
	.st2{fill:#E22621;}
</style>
<g>
	<path class="st0" d="M97,38H3c-1.7,0-3-1.3-3-3V3c0-1.7,1.3-3,3-3h94c1.7,0,3,1.3,3,3v32C100,36.7,98.7,38,97,38z"/>
</g>
<g>
	<path class="st1" d="M38.6,13.4h-2.1v1.4h1.9v0.9h-1.9v1.5h2.1v0.9h-3.2v-5.6h3.2V13.4z"/>
	<path class="st1" d="M41.2,16.7l-0.8,1.4h-1.2l1.4-2.2l-1.5-2.2h1.3l0.9,1.4l0.8-1.4h1.2l-1.5,2.2l1.5,2.2h-1.3L41.2,16.7z"/>
	<path class="st1" d="M46.5,13.6c1.1,0,2,0.9,2,2.3c0,1.4-0.9,2.3-2,2.3c-0.7,0-1.2-0.3-1.5-0.7v2.7h-1.1v-6.5h1.1v0.6
		C45.3,13.9,45.8,13.6,46.5,13.6z M46.2,14.6c-0.6,0-1.2,0.5-1.2,1.3c0,0.8,0.6,1.3,1.2,1.3c0.6,0,1.2-0.5,1.2-1.3
		C47.4,15,46.8,14.6,46.2,14.6z"/>
	<path class="st1" d="M51.3,18.2c-1.3,0-2.2-0.9-2.2-2.3c0-1.4,0.9-2.3,2.2-2.3c1.3,0,2.2,0.9,2.2,2.2c0,0.1,0,0.3,0,0.4h-3.2
		c0.1,0.7,0.5,1,1.1,1c0.5,0,0.7-0.2,0.9-0.5h1.2C53.1,17.5,52.4,18.2,51.3,18.2z M50.2,15.5h2.1c0-0.6-0.5-1-1.1-1
		C50.7,14.5,50.3,14.9,50.2,15.5z"/>
	<path class="st1" d="M55.4,18.1h-1.1v-4.4h1.1v0.7c0.3-0.5,0.7-0.8,1.4-0.8v1.2h-0.3c-0.7,0-1.1,0.3-1.1,1.1V18.1z"/>
	<path class="st1" d="M57.4,12.5c0-0.4,0.3-0.7,0.7-0.7c0.4,0,0.7,0.3,0.7,0.7s-0.3,0.7-0.7,0.7C57.7,13.1,57.4,12.9,57.4,12.5z
		 M57.5,13.7h1.1v4.4h-1.1V13.7z"/>
	<path class="st1" d="M61.7,18.2c-1.3,0-2.2-0.9-2.2-2.3c0-1.4,0.9-2.3,2.2-2.3c1.3,0,2.2,0.9,2.2,2.2c0,0.1,0,0.3,0,0.4h-3.2
		c0.1,0.7,0.5,1,1.1,1c0.5,0,0.7-0.2,0.9-0.5h1.2C63.5,17.5,62.8,18.2,61.7,18.2z M60.6,15.5h2.1c0-0.6-0.5-1-1.1-1
		C61.1,14.5,60.7,14.9,60.6,15.5z"/>
	<path class="st1" d="M67.8,15.7c0-0.7-0.4-1.1-1-1.1c-0.6,0-1,0.4-1,1.1v2.4h-1.1v-4.4h1.1v0.6c0.3-0.4,0.8-0.6,1.3-0.6
		c1,0,1.8,0.7,1.8,1.9v2.6h-1.1V15.7z"/>
	<path class="st1" d="M71.9,13.6c1.1,0,1.8,0.6,2.1,1.6h-1.2c-0.1-0.4-0.4-0.6-0.9-0.6c-0.6,0-1,0.5-1,1.3c0,0.9,0.4,1.3,1,1.3
		c0.5,0,0.8-0.2,0.9-0.6H74c-0.2,0.9-1,1.6-2.1,1.6c-1.3,0-2.2-0.9-2.2-2.3S70.6,13.6,71.9,13.6z"/>
	<path class="st1" d="M74.7,12.5c0-0.4,0.3-0.7,0.7-0.7c0.4,0,0.7,0.3,0.7,0.7s-0.3,0.7-0.7,0.7C75,13.1,74.7,12.9,74.7,12.5z
		 M74.8,13.7h1.1v4.4h-1.1V13.7z"/>
	<path class="st1" d="M78.8,13.6c0.7,0,1.2,0.3,1.5,0.7v-0.6h1.1v4.4h-1.1v-0.6c-0.3,0.4-0.8,0.7-1.5,0.7c-1.1,0-2-0.9-2-2.3
		C76.7,14.5,77.6,13.6,78.8,13.6z M79,14.6c-0.6,0-1.2,0.4-1.2,1.3c0,0.8,0.6,1.3,1.2,1.3c0.6,0,1.2-0.5,1.2-1.3
		C80.2,15,79.7,14.6,79,14.6z"/>
</g>
<g>
	<path class="st1" d="M35.1,25.7c1.1-0.8,2.1-1.7,2.1-2.5c0-0.5-0.2-0.8-0.8-0.8c-0.6,0-0.9,0.4-0.9,0.9h-0.4c0-0.8,0.5-1.3,1.3-1.3
		c0.7,0,1.2,0.4,1.2,1.1c0,1-1.1,1.9-1.9,2.5h2v0.3h-2.6V25.7z"/>
	<path class="st1" d="M40.5,23c-0.1-0.4-0.3-0.7-0.8-0.7c-0.7,0-1.1,0.5-1,1.8c0.1-0.4,0.6-0.7,1.1-0.7c0.8,0,1.2,0.5,1.2,1.3
		c0,0.7-0.4,1.3-1.3,1.3c-1.2,0-1.4-0.9-1.4-2c0-1.2,0.4-2,1.4-2c0.7,0,1.1,0.5,1.2,1H40.5z M38.7,24.6c0,0.5,0.3,1,1,1
		c0.6,0,0.9-0.4,0.9-1c0-0.6-0.3-1-0.9-1C39.2,23.7,38.7,24,38.7,24.6z"/>
	<path class="st1" d="M44.5,23c0.6,0,1,0.3,1.2,0.7V23H46v3h-0.4v-0.7c-0.2,0.4-0.6,0.7-1.2,0.7c-0.8,0-1.4-0.6-1.4-1.5
		C43.1,23.5,43.7,23,44.5,23z M44.6,23.3c-0.6,0-1.1,0.4-1.1,1.2c0,0.7,0.5,1.2,1.1,1.2c0.6,0,1.1-0.5,1.1-1.2
		C45.7,23.7,45.2,23.3,44.6,23.3z"/>
	<path class="st1" d="M47.3,26h-0.4v-3h0.4v0.5c0.2-0.4,0.6-0.6,1-0.6c0.7,0,1.2,0.4,1.2,1.3V26h-0.4v-1.7c0-0.7-0.4-1-0.9-1
		c-0.6,0-0.9,0.3-0.9,1.1V26z M47.9,22.2c0.3,0,0.4,0.3,0.6,0.3c0.1,0,0.2-0.1,0.2-0.2H49c0,0.3-0.2,0.5-0.5,0.5
		c-0.3,0-0.4-0.3-0.6-0.3c-0.1,0-0.2,0.1-0.2,0.2h-0.2C47.5,22.3,47.7,22.2,47.9,22.2z"/>
	<path class="st1" d="M51.6,26c-0.8,0-1.5-0.6-1.5-1.5c0-0.9,0.7-1.5,1.5-1.5c0.8,0,1.5,0.6,1.5,1.5C53.1,25.4,52.5,26,51.6,26z
		 M51.6,25.7c0.6,0,1.1-0.4,1.1-1.2s-0.5-1.2-1.1-1.2c-0.6,0-1.1,0.4-1.1,1.2S51.1,25.7,51.6,25.7z"/>
	<path class="st1" d="M54.9,26c-0.7,0-1.1-0.3-1.2-0.9h0.4c0,0.3,0.3,0.6,0.8,0.6c0.4,0,0.7-0.2,0.7-0.5c0-0.7-1.8-0.3-1.8-1.4
		c0-0.4,0.4-0.8,1-0.8c0.6,0,1.1,0.3,1.1,0.9h-0.4c0-0.3-0.3-0.6-0.7-0.6c-0.4,0-0.6,0.2-0.6,0.5c0,0.8,1.8,0.4,1.8,1.4
		C55.9,25.7,55.5,26,54.9,26z"/>
	<path class="st1" d="M59.3,23c0.5,0,1,0.3,1.2,0.7v-1.7h0.4v4h-0.4v-0.7c-0.2,0.4-0.6,0.7-1.2,0.7c-0.8,0-1.4-0.6-1.4-1.5
		C57.9,23.5,58.5,23,59.3,23z M59.4,23.3c-0.6,0-1.1,0.4-1.1,1.2c0,0.7,0.5,1.2,1.1,1.2c0.6,0,1.1-0.5,1.1-1.2
		C60.5,23.7,60,23.3,59.4,23.3z"/>
	<path class="st1" d="M63,26c-0.8,0-1.5-0.6-1.5-1.5c0-0.9,0.6-1.5,1.5-1.5c0.9,0,1.4,0.6,1.4,1.4c0,0.1,0,0.2,0,0.3H62
		c0,0.7,0.5,1.1,1.1,1.1c0.5,0,0.8-0.3,1-0.7h0.4C64.3,25.6,63.8,26,63,26z M62,24.3h2.1c0-0.7-0.5-1-1-1C62.5,23.3,62,23.6,62,24.3
		z"/>
	<path class="st1" d="M67.9,23c0.6,0,1,0.3,1.2,0.7V23h0.4v3H69v-0.7c-0.2,0.4-0.6,0.7-1.2,0.7c-0.8,0-1.4-0.6-1.4-1.5
		C66.4,23.5,67.1,23,67.9,23z M67.9,23.3c-0.6,0-1.1,0.4-1.1,1.2c0,0.7,0.5,1.2,1.1,1.2c0.6,0,1.1-0.5,1.1-1.2
		C69,23.7,68.5,23.3,67.9,23.3z"/>
	<path class="st1" d="M71.6,23c0.7,0,1.2,0.4,1.4,1h-0.4c-0.1-0.4-0.5-0.7-1-0.7c-0.6,0-1.1,0.4-1.1,1.2s0.5,1.2,1.1,1.2
		c0.5,0,0.9-0.3,1-0.7h0.4c-0.1,0.6-0.6,1-1.4,1c-0.8,0-1.4-0.6-1.4-1.5C70.1,23.5,70.7,23,71.6,23z"/>
	<path class="st1" d="M73.7,23.3h-0.4V23h0.4v-0.7h0.4V23h0.8v0.3h-0.8v1.8c0,0.4,0.1,0.5,0.5,0.5h0.3V26h-0.4
		c-0.5,0-0.8-0.2-0.8-0.8V23.3z"/>
	<path class="st1" d="M75.5,22.2c0-0.2,0.1-0.3,0.3-0.3c0.2,0,0.3,0.1,0.3,0.3c0,0.2-0.1,0.3-0.3,0.3C75.6,22.4,75.5,22.3,75.5,22.2
		z M75.5,23h0.4v3h-0.4V23z"/>
	<path class="st1" d="M76.8,23l1,2.6l1-2.6h0.4l-1.2,3h-0.4l-1.2-3H76.8z"/>
	<path class="st1" d="M79.7,22.2c0-0.2,0.1-0.3,0.3-0.3c0.2,0,0.3,0.1,0.3,0.3c0,0.2-0.1,0.3-0.3,0.3C79.8,22.4,79.7,22.3,79.7,22.2
		z M79.8,23h0.4v3h-0.4V23z"/>
	<path class="st1" d="M82.3,23c0.5,0,1,0.3,1.2,0.7v-1.7h0.4v4h-0.4v-0.7c-0.2,0.4-0.6,0.7-1.2,0.7c-0.8,0-1.4-0.6-1.4-1.5
		C80.8,23.5,81.4,23,82.3,23z M82.3,23.3c-0.6,0-1.1,0.4-1.1,1.2c0,0.7,0.5,1.2,1.1,1.2c0.6,0,1.1-0.5,1.1-1.2
		C83.4,23.7,82.9,23.3,82.3,23.3z"/>
	<path class="st1" d="M85.9,23c0.6,0,1,0.3,1.2,0.7V23h0.4v3h-0.4v-0.7c-0.2,0.4-0.6,0.7-1.2,0.7c-0.8,0-1.4-0.6-1.4-1.5
		C84.5,23.5,85.1,23,85.9,23z M86,23.3c-0.6,0-1.1,0.4-1.1,1.2c0,0.7,0.5,1.2,1.1,1.2c0.6,0,1.1-0.5,1.1-1.2
		C87.1,23.7,86.6,23.3,86,23.3z"/>
	<path class="st1" d="M89.6,23c0.5,0,1,0.3,1.2,0.7v-1.7h0.4v4h-0.4v-0.7c-0.2,0.4-0.6,0.7-1.2,0.7c-0.8,0-1.4-0.6-1.4-1.5
		C88.2,23.5,88.8,23,89.6,23z M89.6,23.3c-0.6,0-1.1,0.4-1.1,1.2c0,0.7,0.5,1.2,1.1,1.2c0.6,0,1.1-0.5,1.1-1.2
		C90.7,23.7,90.3,23.3,89.6,23.3z"/>
</g>
<g>
	<path class="st2" d="M8.2,27.5C8,27.4,8,27.3,8,27.1c0-1.4,0-2.8,0-4.1c0-0.3,0.1-0.4,0.4-0.4c0.5,0,1,0,1.5,0c0-0.1,0-0.1,0-0.2
		c0-3.9,0-7.9,0-11.8c0-0.1,0-0.2-0.1-0.3C9.4,9.7,9.5,9.1,9.9,8.6c0.5-0.4,1.2-0.4,1.6,0c0.5,0.4,0.6,1.1,0.2,1.6
		c-0.1,0.2-0.1,0.2-0.1,0.5c0.8,0,1.6,0,2.5,0c0-0.1,0-0.1,0-0.2c0-0.5,0-1,0-1.6c0-0.3,0.1-0.4,0.4-0.4c1.8,0,3.6,0,5.4,0
		c0.2,0,0.3,0,0.4,0.2c0.1,0.2,0,0.3-0.1,0.4c-0.4,0.5-0.9,1-1.3,1.6c0.4,0.4,0.7,0.9,1.1,1.3c0.1,0.1,0.2,0.2,0.3,0.3
		c0.1,0.1,0.2,0.2,0.1,0.4C20.2,12.9,20.1,13,20,13c-0.8,0-1.7,0-2.5,0c-0.1,0-0.1,0-0.2,0c0,0.1,0,0.1,0,0.2c0,0.5,0,1,0,1.5
		c0,0.3-0.1,0.4-0.4,0.4c-1.6,0-3.3,0-4.9,0c-0.1,0-0.1,0-0.2,0c0,2.5,0,4.9,0,7.4c0.1,0,0.1,0,0.2,0c1,0,2,0,3,0
		c0.4,0,0.4,0.1,0.4,0.4c0,0.3,0,0.5,0,0.8c1.4,0,2.9,0,4.3,0c0-0.1,0-0.1,0-0.2c0-1.4,0-2.9,0-4.3c0-0.7,0.4-1,1-1
		c0.6,0,1.1,0,1.7,0c0,0,0,0,0.1,0c0-0.8,0-1.6,0-2.5c-0.1,0-0.1,0-0.2,0c-1.3,0-2.7,0-4,0c-0.3,0-0.4-0.1-0.4-0.4c0-0.3,0-0.7,0-1
		c0-0.3,0.1-0.4,0.4-0.4c2.4,0,4.9,0,7.3,0c0.8,0,1.4,0.5,1.5,1.2c0,0,0,0.1,0,0.1c0,1.5,0,3.1,0,4.6c-0.1,0.2-0.2,0.2-0.4,0.2
		c-0.3,0-0.5,0-0.8,0c0,1.7,0,3.3,0,4.9c0.3,0,0.5,0,0.8,0c0.2,0,0.3,0,0.5,0.2c0,0.8,0,1.5,0,2.3C20.8,27.5,14.5,27.5,8.2,27.5z
		 M8.6,26.8c6,0,11.9,0,17.9,0c0-0.4,0-0.8,0-1.2c-0.1,0-0.2,0-0.2,0c-1.4,0-2.8,0-4.3,0c-0.4,0-0.4-0.1-0.4-0.4c0-0.3,0-0.5,0-0.8
		c-0.1,0-0.2,0-0.2,0c-2,0-4,0-6,0c-0.5,0-0.5,0-0.5-0.5c0-0.2,0-0.4,0-0.7c-0.1,0-0.1,0-0.2,0c-1.9,0-3.9,0-5.8,0
		c-0.1,0-0.2,0-0.2,0.2c0,0.8,0,1.7,0,2.5C8.6,26.2,8.6,26.5,8.6,26.8z M25.3,25c0-2.9,0-5.8,0-8.6c0.2,0,0.4,0,0.6,0c0,1,0,2,0,3.1
		c0.2,0,0.4,0,0.6,0c0-0.1,0-0.1,0-0.2c0-1.2,0-2.5,0-3.7c0-0.7-0.4-1-1.1-1.1c-2.3,0-4.5,0-6.8,0c-0.1,0-0.1,0-0.2,0
		c0,0.2,0,0.4,0,0.6c0.1,0,0.2,0,0.2,0c1.3,0,2.6,0,4,0c0.3,0,0.4,0.1,0.4,0.4c0,0.9,0,1.9,0,2.8c0,0.3-0.1,0.4-0.4,0.4
		c-0.6,0-1.3,0-1.9,0c-0.4,0-0.5,0.1-0.5,0.4c0,1.4,0,2.9,0,4.3c0,0.1,0,0.1,0,0.2c0.2,0,0.4,0,0.6,0c0-0.1,0-0.2,0-0.2
		c0-1.2,0-2.5,0-3.7c0-0.3,0.1-0.4,0.4-0.4c1,0,1.9,0,2.9,0c0.3,0,0.4,0.1,0.4,0.4c0,1.6,0,3.3,0,4.9c0,0.1,0,0.1,0,0.2
		C24.9,25,25.1,25,25.3,25z M11.7,12.7c0,0.2,0,0.4,0,0.6c0.6,0,1.2,0,1.8,0c0,0.2,0,0.4,0,0.6c-0.6,0-1.2,0-1.8,0
		c0,0.2,0,0.4,0,0.6c1.6,0,3.3,0,4.9,0c0-1,0-2,0-3.1c-1.6,0-3.3,0-4.9,0c0,0.2,0,0.4,0,0.6c0.6,0,1.2,0,1.8,0c0,0.2,0,0.4,0,0.6
		C12.9,12.7,12.3,12.7,11.7,12.7z M22.2,25c0.6,0,1.2,0,1.8,0c0-1.6,0-3.3,0-4.9c-0.8,0-1.6,0-2.4,0c0,1.2,0,2.5,0,3.7
		c0.1,0,0.1,0,0.2,0c0.3,0,0.4,0.1,0.4,0.4C22.2,24.5,22.2,24.7,22.2,25z M11.1,22.5c0-3.9,0-7.8,0-11.7c-0.2,0-0.4,0-0.6,0
		c0,3.9,0,7.8,0,11.7C10.7,22.5,10.9,22.5,11.1,22.5z M17.3,12.3c0.7,0,1.4,0,2.1,0c-0.4-0.4-0.7-0.8-1-1.3c-0.2-0.2-0.2-0.3,0-0.5
		c0.3-0.4,0.6-0.8,0.9-1.1c0,0,0.1-0.1,0.1-0.1c-1.3,0-2.7,0-4,0c0.1,0.1,0.1,0.1,0.2,0.1c0.5,0.4,1,0.9,1.5,1.3
		c0.2,0.1,0.3,0.3,0.2,0.5C17.2,11.6,17.3,12,17.3,12.3z M10.2,9.6c0,0.3,0.3,0.6,0.6,0.6c0.3,0,0.6-0.3,0.6-0.6
		c0-0.3-0.3-0.6-0.6-0.6C10.4,9,10.2,9.2,10.2,9.6z M14.8,10.8c0.4,0,0.9,0,1.3,0c-0.4-0.4-0.9-0.8-1.3-1.2c0,0.4,0,0.7,0,1
		C14.8,10.7,14.8,10.7,14.8,10.8z"/>
	<path class="st2" d="M22.5,11.4c0-0.2,0-0.5,0.1-0.7c0.2-0.7,0.8-1.2,1.6-1.2c0.7,0,1.4,0.6,1.4,1.3c0,0.4,0,0.8,0,1.2
		c-0.1,0.8-0.9,1.3-1.6,1.2c-0.7-0.1-1.4-0.7-1.4-1.5C22.5,11.7,22.5,11.5,22.5,11.4C22.5,11.4,22.5,11.4,22.5,11.4z M25,11.4
		C25,11.4,25,11.4,25,11.4c0-0.1,0-0.2,0-0.4c0-0.5-0.4-0.9-0.9-0.9c-0.5,0-0.9,0.4-0.9,0.9c0,0.2,0,0.5,0,0.7
		c0,0.5,0.4,0.8,0.8,0.9c0.4,0.1,0.9-0.2,1-0.7C25,11.8,25,11.6,25,11.4z"/>
</g>
</svg>
