<?xml version="1.0" encoding="utf-8"?>
<!-- Generator: Adobe Illustrator 24.1.3, SVG Export Plug-In . SVG Version: 6.00 Build 0)  -->
<svg version="1.1" baseProfile="basic" id="Capa_1" xmlns="http://www.w3.org/2000/svg" xmlns:xlink="http://www.w3.org/1999/xlink"
	 x="0px" y="0px" viewBox="0 0 40 40" xml:space="preserve">
<style type="text/css">
	.st0{fill:#222222;}
	.st1{fill:#E12320;}
</style>
<path class="st0" d="M35,40H5c-2.8,0-5-2.2-5-5V5c0-2.8,2.2-5,5-5h30c2.8,0,5,2.2,5,5v30C40,37.8,37.8,40,35,40z"/>
<g>
	<path class="st1" d="M27.9,30.1c-1.4,0-2.8,0-4.1,0c0-2.3,0-4.7,0-7c0.6,0,1.2,0,1.7,0c0.2,0,0.2-0.1,0.3-0.2
		c0.4-0.9,0.7-1.8,1.1-2.7c0-0.1,0.1-0.2,0.1-0.3c-1.1,0-2.1,0-3.2,0c0-0.6,0-1.2,0-1.7c0-0.3,0-0.6,0-0.9c0-0.3,0.2-0.5,0.5-0.5
		c0.1,0,0.2,0,0.4,0c0.5,0,0.9,0,1.4,0c0.1,0,0.2,0,0.3,0c0-1.1,0-2.1,0-3.2c-0.9,0-1.9,0-2.8,0c-0.2,0-0.4,0-0.6,0.1
		c-1.8,0.4-3,1.9-3,3.8c0,0.7,0,1.5,0,2.2c0,0.1,0,0.1,0,0.2c-0.9,0-1.7,0-2.5,0c0,1.1,0,2.1,0,3.2c0.8,0,1.7,0,2.5,0
		c0,2.3,0,4.7,0,7c-2.6,0-5.3,0-7.9,0c0,0-0.1,0-0.1,0c-1-0.2-1.7-0.8-2-1.7c-0.1-0.2-0.1-0.3-0.1-0.5c0-5.3,0-10.6,0-15.9
		c0,0,0,0,0,0c0.1-1.1,1.1-2.2,2.7-2.2c5,0,10,0,15,0c0.2,0,0.5,0,0.7,0.1c1.2,0.3,2,1.3,2,2.6c0,4.1,0,8.2,0,12.2c0,1,0,1.9,0,2.9
		c0,1.1-0.7,2.1-1.7,2.4C28.3,30.1,28.1,30.1,27.9,30.1z"/>
</g>
</svg>
