<?xml version="1.0" encoding="utf-8"?>
<!-- Generator: Adobe Illustrator 24.1.3, SVG Export Plug-In . SVG Version: 6.00 Build 0)  -->
<svg version="1.1" baseProfile="basic" id="Capa_1" xmlns="http://www.w3.org/2000/svg" xmlns:xlink="http://www.w3.org/1999/xlink"
	 x="0px" y="0px" viewBox="0 0 200 129" xml:space="preserve">
<style type="text/css">
	.st0{fill:#DADADA;}
</style>
<path class="st0" d="M183.4,116.7H16.6c-2.8,0-5-2.3-5-5V17.3c0-2.7,2.3-5,5-5h166.8c2.8,0,5,2.3,5,5v94.4
	C188.4,114.4,186.1,116.7,183.4,116.7z"/>
<path d="M138.5,26h-77v5.7h30.3l0,0c3.3,0,6.1,2.6,6.4,5.8v53.8c-0.3,3.2-3,5.8-6.3,5.8H61.5v5.7h77v-5.7h-30.1
	c-3.5-0.1-6.3-2.9-6.3-6.4l0,0V38.2l0,0c0-3.6,2.9-6.4,6.4-6.4l0,0h30V26z"/>
</svg>
