<?xml version="1.0" encoding="utf-8"?>
<!-- Generator: Adobe Illustrator 24.1.3, SVG Export Plug-In . SVG Version: 6.00 Build 0)  -->
<svg version="1.1" baseProfile="basic" id="Capa_1" xmlns="http://www.w3.org/2000/svg" xmlns:xlink="http://www.w3.org/1999/xlink"
	 x="0px" y="0px" viewBox="0 0 40 40" xml:space="preserve">
<style type="text/css">
	.st0{fill:#222222;}
	.st1{fill:#E12320;}
</style>
<path class="st0" d="M35,40H5c-2.8,0-5-2.2-5-5V5c0-2.8,2.2-5,5-5h30c2.8,0,5,2.2,5,5v30C40,37.8,37.8,40,35,40z"/>
<g>
	<path class="st1" d="M25.3,30.2c-3.5,0-7,0-10.5,0c0,0-0.1,0-0.1,0c-2.3-0.3-3.8-1.6-4.5-3.7c-0.1-0.4-0.2-0.8-0.3-1.2
		c0-3.5,0-7,0-10.5c0-0.1,0-0.1,0-0.2c0.3-2.7,2.6-4.7,5.3-4.8c3.3,0,6.5,0,9.8,0c2.9,0,5.3,2.4,5.3,5.3c0,3.3,0,6.5,0,9.8
		c0,2.3-1.5,4.3-3.7,5C26.1,30,25.7,30.1,25.3,30.2z M26.6,20c0-1,0-2,0-3c0-2-1.6-3.6-3.6-3.6c-2,0-4,0-6,0c-0.2,0-0.5,0-0.7,0.1
		c-1.8,0.3-2.9,1.8-2.9,3.6c0,2,0,4,0,5.9c0,2.1,1.6,3.6,3.6,3.6c2,0,4,0,5.9,0c2.1,0,3.6-1.6,3.6-3.6C26.6,22,26.6,21,26.6,20z"/>
	<path class="st1" d="M14.6,20c0-1,0-2,0-3c0-1.4,1-2.4,2.5-2.4c2,0,4,0,5.9,0c1.4,0,2.4,1,2.4,2.4c0,2,0,4,0,5.9
		c0,1.4-1.1,2.4-2.4,2.4c-2,0-4,0-5.9,0c-1.4,0-2.4-1.1-2.4-2.4C14.6,22,14.6,21,14.6,20z M23,20c0-1.6-1.3-3-3-3c-1.6,0-3,1.3-3,3
		c0,1.6,1.3,3,3,3C21.6,23,23,21.7,23,20z M23.4,16c-0.3,0-0.6,0.3-0.6,0.6c0,0.3,0.3,0.6,0.6,0.6c0.3,0,0.6-0.3,0.6-0.6
		C24,16.3,23.7,16,23.4,16z"/>
	<path class="st1" d="M21.8,20c0,1-0.8,1.8-1.8,1.8c-1,0-1.8-0.8-1.8-1.8c0-1,0.8-1.8,1.8-1.8C21,18.2,21.8,19,21.8,20z"/>
</g>
</svg>
