<?xml version="1.0" encoding="utf-8"?>
<!-- Generator: Adobe Illustrator 24.1.3, SVG Export Plug-In . SVG Version: 6.00 Build 0)  -->
<svg version="1.1" baseProfile="basic" id="Capa_1" xmlns="http://www.w3.org/2000/svg" xmlns:xlink="http://www.w3.org/1999/xlink"
	 x="0px" y="0px" viewBox="0 0 394.3 145.9" xml:space="preserve">
<style type="text/css">
	.st0{fill:#FFFFFF;}
	.st1{fill:#2A4B9B;}
	.st2{fill:#E52320;}
</style>
<path d="M117.3,91.1c-5.9,2.1-12.5,3.2-19.7,3.2H61.9L65.4,80V55.4L0,10.4h163.5L155.8,0h82.1l-7.7,10.4h163.5L328,55.7
	c1.5,3.2,2.2,6.9,2.2,10.9v0.2c0,8.2-3.5,15.5-9.9,20.5c-5.9,4.6-14.2,7.1-23.8,7.1h-24.6l-75,51.6L117.3,91.1z"/>
<path class="st0" d="M374.5,16.4H218.3l2.5-3.3L226,6h-8.9h-40.7h-8.9l7.7,10.4H19.2l52.2,35.9v28.4l-0.5,2.1l-1.4,5.5h5.7h0.6h0.1
	h21.6c7.8,0,14.7-1.3,20.5-3.9l78.8,54.2l73.1-50.3h26.5c8.3,0,15.3-2,20.2-5.8c4.9-3.8,7.6-9.4,7.6-15.8v-0.2
	c0-5.1-1.5-9.3-4.4-12.6L374.5,16.4z"/>
<polygon class="st0" points="19.2,16.4 374.5,16.4 196.8,138.7 "/>
<polygon class="st1" points="196.8,131.4 38.4,22.4 355.3,22.4 "/>
<g>
	<g>
		<path class="st2" d="M259.8,86.9V19.1h37c8.9,0,15.1,2.1,19.4,6.5c3,3.1,4.6,7.1,4.6,11.7v0.2c0,4.3-1.3,9.8-6.8,13.8
			c5.9,3.3,8.8,8.4,8.8,15.3v0.2c0,12.2-10.3,20.1-26.3,20.1H259.8z M292.7,65.3c1.1,0,3.7-0.1,3.7-1.5v-0.2c0-1.3-2.2-1.5-3.6-1.5
			H288v3.2H292.7z M291.4,43.4c3.4,0,3.4-0.9,3.4-1.2V42c0-0.3,0-1.2-3.5-1.2H288v2.6H291.4z"/>
		<path class="st0" d="M296.8,22.1c8.4,0,13.7,1.9,17.2,5.6c2.2,2.2,3.7,5.4,3.7,9.6v0.2c0,7.4-4.2,11.7-10.8,14.1
			c7.9,2.4,12.8,6.5,12.8,15v0.2c0,9.9-8,17.1-23.3,17.1h-33.6V22.1H296.8 M285,46.4h6.4c4.2,0,6.4-1.4,6.4-4.2V42
			c0-2.8-2.2-4.2-6.5-4.2H285V46.4 M285,68.3h7.7c4.4,0,6.7-1.8,6.7-4.5v-0.2c0-2.7-2.2-4.5-6.6-4.5H285V68.3 M296.8,16.1h-34h-6v6
			v61.8v6h6h33.6c21.6,0,29.3-12.5,29.3-23.1v-0.2c0-6.6-2.3-11.8-6.9-15.6c3.9-4.3,4.9-9.3,4.9-13.5v-0.2c0-5.4-1.9-10.2-5.4-13.8
			C313.4,18.5,306.5,16.1,296.8,16.1L296.8,16.1z"/>
	</g>
</g>
<g>
	<path class="st2" d="M71.3,86.9l1.5-6V25.1l-1.5-6h26.9c23.7,0,37.8,12.5,37.8,33.3v0.2c0,21.1-14.7,34.2-38.5,34.2H71.3z
		 M98.6,65.1c10.5,0,11.7-5.6,11.7-9.8v-4.6c0-4.2-1.2-9.8-11.7-9.8h-0.3v24.2H98.6z"/>
	<path class="st0" d="M98.2,22.1c23.2,0,34.8,12,34.8,30.3v0.2c0,18.4-11.9,31.2-35.5,31.2H75.9h-0.1h-0.6l0.6-2.6V24.7l-0.7-2.6h3
		h-2.2H98.2 M95.4,68.1h3.3c9,0,14.7-3.9,14.7-12.8v-4.6c0-8.9-5.7-12.8-14.7-12.8h-3.3V68.1 M98.2,16.1h-20h-3h-7.7l1.9,7.5
		l0.5,1.9v55.1l-0.5,1.9l-1.8,7.4h7.6h0.6h0.1h21.6c25.6,0,41.5-14.3,41.5-37.2v-0.2c0-11-3.7-20.1-10.7-26.5
		C121.2,19.4,111,16.1,98.2,16.1L98.2,16.1z M101.4,61.9V44c5.4,0.7,6,3.6,6,6.6v4.6C107.3,58.3,106.8,61.2,101.4,61.9L101.4,61.9z"
		/>
</g>
<g>
	<polygon class="st2" points="215.7,97.6 216.8,91.8 216.8,68.9 202.1,88.8 191.6,88.8 176.9,68.9 176.9,91.8 178,97.6 141.4,97.6 
		142.8,91.8 142.8,23.2 139.4,17 167.9,17 187.6,43.6 187.6,43.6 196.8,56.1 206.1,43.6 206.7,42.8 225.8,17 254.3,17 250.8,23.2 
		250.8,91.8 252.2,97.6 	"/>
	<path class="st0" d="M249.2,20l-1.4,2.4v69.7l0.6,2.4h-0.6h-0.1h-26.1h-0.1h-2.2l0.5-2.4V59.8l-18.3,24.7h-9.3l-18.3-24.7v32.3
		l0.5,2.4h-2.2H172H146h-0.1h-0.6l0.6-2.4V22.4l-1.4-2.4h1.5h20.4l6.4,8.6l0,0l11.8,15.9v0l12.2,16.5l12.2-16.5v0l11.8-15.9l0,0
		l6.4-8.6h20.4H249.2 M259.4,14h-10.2h-1.5h-20.4h-3l-1.8,2.4l-6.4,8.6L204.2,41l-1.2,1.6v0l-6.2,8.4l-6.2-8.4v0l-1.2-1.6
		l-11.8-15.9l-6.4-8.6l-1.8-2.4h-3H146h-1.5h-10.2l5,8.9l0.6,1.1v67.4l-0.4,1.7l-1.8,7.4h7.6h0.6h0.1H172h0.1h2.2h7.3l-1.4-7.1
		l-0.4-1.9V78l8.4,11.4l1.8,2.4h3h7.4h3l1.8-2.4l8.4-11.4v13.6l-0.4,1.9l-1.4,7.1h7.3h2.2h0.1h26.1h0.1h0.6h7.6l-1.8-7.4l-0.4-1.7
		V24l0.6-1.1L259.4,14L259.4,14z"/>
</g>
<g>
	<polygon class="st2" points="176.7,117.7 191.2,98.1 202.2,98.1 216.7,117.7 	"/>
	<g>
		<path class="st0" d="M201.2,100.1l11.5,15.6h-32l11.5-15.6H201.2 M203.2,96.1h-2h-9h-2l-1.2,1.6l-11.5,15.6l-4.7,6.4h7.9h32h7.9
			l-4.7-6.4l-11.5-15.6L203.2,96.1L203.2,96.1z"/>
	</g>
</g>
<polygon class="st0" points="177.2,7.5 223.6,9.2 196.8,45.2 170.9,10.4 "/>
<polygon class="st2" points="176.5,10.4 217.2,10.4 196.8,37.9 "/>
</svg>
