<?xml version="1.0" encoding="utf-8"?>
<!-- Generator: Adobe Illustrator 24.1.3, SVG Export Plug-In . SVG Version: 6.00 Build 0)  -->
<svg version="1.1" baseProfile="basic" id="Capa_1" xmlns="http://www.w3.org/2000/svg" xmlns:xlink="http://www.w3.org/1999/xlink"
	 x="0px" y="0px" viewBox="0 0 40 40" xml:space="preserve">
<style type="text/css">
	.st0{fill:#222222;}
	.st1{fill:#E12320;}
	.st2{fill:#FFFFFF;}
</style>
<path class="st0" d="M35,40H5c-2.8,0-5-2.2-5-5V5c0-2.8,2.2-5,5-5h30c2.8,0,5,2.2,5,5v30C40,37.8,37.8,40,35,40z"/>
<path class="st1" d="M19.4,9.8c0.4,0,0.8,0,1.3,0c0.3,0,0.7,0.1,1,0.1c2.4,0.4,4.5,1.6,6.1,3.4c2,2.4,2.8,5.1,2.3,8.2
	c-0.4,2.7-1.8,4.8-3.9,6.5c-2.2,1.7-4.7,2.3-7.5,2c-2-0.3-3.8-1.1-5.4-2.5c-1.8-1.6-2.9-3.5-3.3-5.8c-0.1-0.4-0.1-0.8-0.2-1.1
	c0-0.4,0-0.8,0-1.3c0-0.3,0.1-0.7,0.1-1c0.4-2.1,1.3-3.9,2.8-5.5c1.5-1.5,3.3-2.5,5.5-2.9C18.6,9.9,19,9.9,19.4,9.8z"/>
<path class="st2" d="M25.2,15.3c-3.5,0-6.9,0-10.4,0c-0.1,0-0.3,0-0.4,0c-0.6,0.2-1,0.6-1,1.3c0,2.2,0,4.3,0,6.5
	c0,0.8,0.6,1.4,1.4,1.4c1.7,0,3.4,0,5.1,0c1.7,0,3.4,0,5.2,0c0.9,0,1.4-0.5,1.4-1.4c0-2.2,0-4.3,0-6.5C26.6,15.9,26,15.3,25.2,15.3z
	 M24.4,16.4C24.4,16.4,24.4,16.4,24.4,16.4c0,0.1-0.1,0.1-0.1,0.1c-1.4,1.1-2.8,2.2-4.2,3.3c-0.1,0.1-0.2,0.1-0.3,0
	c-1.4-1.1-2.8-2.2-4.2-3.3c0,0-0.1-0.1-0.1-0.1C18.5,16.4,21.5,16.4,24.4,16.4z M25.1,23.5c-3.4,0-6.8,0-10.3,0
	c-0.3,0-0.4-0.1-0.4-0.3c0-2,0-4,0-6.1c0,0,0-0.1,0-0.2c0.4,0.3,0.7,0.5,1,0.8c1.4,1.1,2.7,2.2,4.1,3.2c0.3,0.2,0.5,0.2,0.8,0
	c1.6-1.3,3.2-2.5,4.8-3.8c0.1-0.1,0.2-0.1,0.3-0.2c0,0.1,0,0.2,0,0.2c0,2,0,4,0,6C25.5,23.5,25.5,23.5,25.1,23.5z"/>
</svg>
