<?xml version="1.0" encoding="utf-8"?>
<!-- Generator: Adobe Illustrator 24.1.3, SVG Export Plug-In . SVG Version: 6.00 Build 0)  -->
<svg version="1.1" baseProfile="basic" id="Capa_1" xmlns="http://www.w3.org/2000/svg" xmlns:xlink="http://www.w3.org/1999/xlink"
	 x="0px" y="0px" viewBox="0 0 40 40" xml:space="preserve">
<style type="text/css">
	.st0{fill:#222222;}
	.st1{fill:#E42320;}
</style>
<path class="st0" d="M35,40H5c-2.8,0-5-2.2-5-5V5c0-2.8,2.2-5,5-5h30c2.8,0,5,2.2,5,5v30C40,37.8,37.8,40,35,40z"/>
<g>
	<path class="st1" d="M10,24.6c0.1-0.3,0.1-0.6,0.3-0.9c0.3-0.7,0.9-1.3,1.5-1.7c0.6-0.5,1.2-0.8,1.9-1.1c0.3,0.6,0.6,1.2,1,1.8
		c-0.3,0.1-0.6,0.3-1,0.5c-0.5,0.3-0.9,0.5-1.3,0.9c-0.6,0.5-0.6,1.1,0,1.7c0.6,0.5,1.3,0.9,2.1,1.2c1.5,0.5,2.9,0.8,4.5,0.9
		c1.7,0.1,3.5,0,5.2-0.5c1-0.3,2-0.6,2.9-1.2c0.3-0.2,0.5-0.5,0.7-0.7c0.3-0.3,0.3-0.7,0-1.1c-0.2-0.3-0.5-0.5-0.8-0.7
		c-0.5-0.3-1.1-0.6-1.6-0.9c0.3-0.5,0.6-1.1,1-1.8c1.6,0.8,3.2,1.6,3.7,3.6c0,0.2,0,0.5,0,0.7l0,0c-0.1,0.6-0.3,1.1-0.7,1.6
		c-0.5,0.7-1.2,1.1-2,1.5c-1.6,0.8-3.4,1.2-5.2,1.4c-0.5,0-0.9,0.1-1.4,0.1c-0.6,0-1.2,0-1.7,0c0,0-0.1,0-0.2,0
		c-0.7-0.1-1.4-0.1-2-0.2c-1.5-0.2-2.9-0.6-4.2-1.3c-0.8-0.5-1.6-1-2.1-1.8c-0.2-0.4-0.4-0.8-0.5-1.3C10,25.1,10,24.9,10,24.6z"/>
	<path class="st1" d="M20,27c-0.1-0.1-0.1-0.2-0.2-0.3c-1.6-2.1-3.1-4.3-4.3-6.6c-0.5-0.8-0.8-1.6-1.1-2.5c-0.5-1.5-0.4-2.9,0.3-4.3
		c1.2-2.2,3.1-3.4,5.6-3.3c2.7,0,5.2,2.2,5.7,4.9c0.2,1.2,0,2.3-0.5,3.4c-0.6,1.6-1.5,3-2.4,4.4c-0.9,1.4-1.9,2.7-2.8,4.1
		C20.1,26.8,20,26.9,20,27z M22,16c0-1.1-0.9-2-2-2c-1.1,0-2,0.9-2,2s0.9,2,2,2C21.1,18,22,17,22,16z"/>
</g>
</svg>
