<?xml version="1.0" encoding="utf-8"?>
<!-- Generator: Adobe Illustrator 24.1.3, SVG Export Plug-In . SVG Version: 6.00 Build 0)  -->
<svg version="1.1" id="Capa_1" xmlns="http://www.w3.org/2000/svg" xmlns:xlink="http://www.w3.org/1999/xlink" x="0px" y="0px"
	 viewBox="0 0 173.9 59.6" style="enable-background:new 0 0 173.9 59.6;" xml:space="preserve">
<style type="text/css">
	.st0{fill:#2A4B9A;}
	.st1{fill:#E42320;}
	.st2{fill:#FFFFFF;}
	.st3{fill:#1D1D1B;}
</style>
<g>
	<path class="st0" d="M126.5,24.3h9.2c3,0,3.1,0,3.4,0.1c0.4,0.1,0.7,0.3,0.8,0.7l16.7-9.4h-136L36.9,25v-0.3h9c4,0,4.9,0.1,5.5,0.9
		c0.6,0.7,0.9,1.9,0.9,4.5c0,1.6,0,2.7-0.3,3.4L88.4,54l46.8-26.3h-8.7V24.3z"/>
	<path class="st1" d="M58.2,23.3c-0.6-2-2.1-3.2-4.2-3.6c-1.8-0.4-2.6-0.4-8-0.4H30.5v21.4h15.5c7.2,0,9.1-0.3,10.8-1.8
		c1.6-1.4,2.1-3.6,2.1-9.2C58.8,26.2,58.6,24.8,58.2,23.3z M46,35.3h-9.1V24.6h9c4,0,4.9,0.1,5.5,0.9c0.6,0.7,0.9,1.9,0.9,4.5
		C52.3,34.9,51.9,35.3,46,35.3z"/>
	<polygon class="st1" points="103.7,46.7 103.9,21.6 103.2,21.6 92.4,43 84.6,43 73.9,21.6 73.1,21.6 73.3,46.7 63.8,46.7 
		63.8,13.5 80.3,13.5 88.5,31.4 96.7,13.5 113.2,13.5 113.2,46.7 	"/>
	<path class="st2" d="M112.7,14v32.2h-8.6l0.2-25.1h-1.5L92.2,42.5h-7.2L74.2,21.2h-1.5l0.2,25.1h-8.6V14H80l8.5,18.5L97,14H112.7
		 M113.6,13.1h-0.9H97h-0.6l-0.2,0.5l-7.7,16.7l-7.6-16.7l-0.2-0.5H80H64.3h-0.9V14v32.2v0.9h0.9h8.6h0.9l0-0.9l-0.2-24.1h0
		l10.5,20.9l0.3,0.5h0.6h7.2h0.6l0.3-0.5l10.4-20.8l-0.2,24l0,0.9h0.9h8.6h0.9v-0.9V14V13.1L113.6,13.1z"/>
	<path class="st1" d="M119.8,41.2V18.8h15.9c5.1,0,5.1,0,6.1,0.1c3.8,0.3,5.1,1.8,5.1,6c0,2.5-0.5,4-1.9,4.8c2,0.7,2.7,2.2,2.7,5.3
		c0,3.2-0.9,5-3,5.7c-1.3,0.5-1.7,0.5-8.9,0.5h0H119.8z M135.7,35.1c3.8,0,3.8,0,4.2-0.2c0.3-0.1,0.5-0.3,0.5-1.2
		c0-0.9-0.3-1.1-0.7-1.2c-0.3-0.1-0.3-0.1-4-0.1h-8.8v2.6H135.7z M135.6,27.3c1.8,0,3.1,0,3.5-0.2c0.4-0.2,0.4-0.8,0.4-1.1
		c0-0.9-0.3-1-0.6-1.1c-0.3,0-0.4-0.1-3.2-0.1l-0.1,0h-8.7v2.5H135.6z"/>
	<path class="st2" d="M135.6,19.3c5.1,0,5.1,0,6,0.1c3.5,0.3,4.7,1.6,4.7,5.5c0,3.1-0.7,4.3-2.9,4.9c2.8,0.5,3.7,1.7,3.7,5.2
		c0,3.1-0.8,4.6-2.7,5.3c-1.2,0.4-1.6,0.4-8.8,0.5h-15.4V19.3H135.6 M126.5,27.7h9.2c2.3,0,3.2-0.1,3.7-0.3c0.5-0.2,0.7-0.7,0.7-1.5
		c0-0.9-0.3-1.4-1-1.5c-0.4-0.1-0.4-0.1-3.4-0.1h-9.2V27.7 M126.5,35.6h9.2c3.9,0,3.9,0,4.4-0.3c0.5-0.2,0.8-0.7,0.8-1.6
		c0-1-0.3-1.4-1-1.6c-0.3-0.1-0.3-0.1-4.1-0.1h-9.2V35.6 M135.7,18.4L135.7,18.4h-15.4h-0.9v0.9v21.4v0.9h0.9h15.4
		c7.3,0,7.7-0.1,9.1-0.5c2.9-1,3.3-3.8,3.3-6.1c0-2.5-0.4-4.4-2.3-5.4c1.2-1.1,1.5-2.7,1.5-4.7c0-4.4-1.5-6.1-5.5-6.4
		C140.8,18.4,140.8,18.4,135.7,18.4L135.7,18.4L135.7,18.4z M127.4,25.2h8.3l0.1,0c2.6,0,2.8,0,3.1,0.1c0.1,0,0.2,0.1,0.2,0.6
		c0,0.5-0.1,0.6-0.1,0.7l0,0l0,0c-0.4,0.2-2.5,0.2-3.3,0.2h-8.3V25.2L127.4,25.2z M127.4,32.9h8.3c3.6,0,3.7,0,3.9,0.1
		c0.2,0,0.3,0.1,0.3,0.7c0,0.7-0.1,0.7-0.2,0.8l0,0l0,0c-0.3,0.1-0.3,0.1-4,0.2l-8.3,0V32.9L127.4,32.9z"/>
	<polygon class="st1" points="88.5,24.1 80,5.6 97,5.6 	"/>
	<polygon class="st1" points="80,55.3 97,55.3 93.4,47.3 83.7,47.3 	"/>
	<g>
		<path class="st3" d="M103.2,58.8H73.8l3.2-7l-1.9-1.1H59.4v-8.1c-3,2.3-6.5,2.6-13.4,2.6H25.6V22.7L5.4,11.3h54V8.6h17.9l-3.4-7.5
			h29.4l-3.4,7.5h17.8v2.7h54.2l-20.6,11.6c0,0.5,0.1,1,0.1,1.6c0,1.2-0.1,2.6-0.5,4.1c1.2,2,1.3,4.2,1.3,6c0,6.5-3.3,9-6,9.9
			c-2.1,0.7-2.8,0.7-10.3,0.7h-18.1v5.5h-16l-1.7,0.9L103.2,58.8z M78.1,56H99l-2.5-5.6l4.5-2.5h13.9v-7.8l3.3-1.8v4.1h17.6
			c7.3,0,7.8,0,9.4-0.6c2.8-0.9,4.2-3.3,4.2-7.3c0-1.5-0.1-3.5-1.2-5l-0.5-0.6l0.3-0.7c0.5-1.3,0.6-2.7,0.6-3.8c0-0.8,0-1.5-0.1-2.1
			l-0.1-0.9l13-7.3h-46.4v-2.7H95.5L99,3.9H78.1l3.4,7.5H62.2V14H15.9l12.5,7.1v21.3h17.6c7.3,0,10-0.3,12.2-2.4
			c0.2-0.2,0.4-0.4,0.5-0.6l0.7-0.8l2.7,1.5v7.7h13.7l4.8,2.7L78.1,56z"/>
	</g>
	<g>
		<path class="st2" d="M59,23c-0.7-2.3-2.4-3.8-4.9-4.3c-1.9-0.4-2.8-0.4-8.2-0.4H30.5h-0.9v0.9v21.4v0.9h0.9h15.5
			c7.1,0,9.4-0.3,11.4-2c1.8-1.7,2.4-4,2.4-9.9C59.7,26.1,59.5,24.7,59,23z M57,39.3c-1.8,1.6-3.7,1.9-11.1,1.9H30V18.8h15.9
			c5.4,0,6.2,0,8.1,0.4c2.3,0.5,3.8,1.8,4.5,3.9c0.5,1.6,0.6,3,0.6,6.5C59.2,35.5,58.7,37.7,57,39.3z"/>
		<path class="st2" d="M58.6,23.2c-0.7-2.2-2.2-3.5-4.5-3.9c-1.9-0.4-2.7-0.4-8.1-0.4H30v22.4h15.9c7.4,0,9.3-0.3,11.1-1.9
			c1.7-1.6,2.2-3.8,2.2-9.6C59.2,26.1,59.1,24.7,58.6,23.2z M56.7,38.9c-1.6,1.5-3.5,1.8-10.8,1.8H30.5V19.3h15.5c5.5,0,6.2,0,8,0.4
			c2.1,0.4,3.5,1.6,4.2,3.6c0.5,1.5,0.6,2.9,0.6,6.4C58.8,35.3,58.3,37.5,56.7,38.9z"/>
		<path class="st2" d="M51.5,25.5c-0.7-0.8-1.5-0.9-5.5-0.9h-9v10.6H46c5.9,0,6.3-0.3,6.3-5.2C52.3,27.4,52.1,26.3,51.5,25.5z
			 M50.8,33.8c-0.6,0.5-2.4,0.6-4.8,0.6h-8.2v-8.8h8.1c3.8,0,4.4,0.1,4.8,0.6l0,0l0,0c0.5,0.5,0.6,1.6,0.6,3.9
			C51.4,32.2,51.3,33.4,50.8,33.8z"/>
	</g>
</g>
</svg>
