<svg id="Capa_1" data-name="Capa 1" xmlns="http://www.w3.org/2000/svg" viewBox="0 0 121.42 121.18"><path d="M160.85,61c-.12-.42-.24-.84-.39-1.25a10.58,10.58,0,0,0-8.44-7s0-.05,0-.08a10.47,10.47,0,0,0-2.5-11.9q-8.85-8.86-17.72-17.7l-7.42-7.41L121.73,13c-2.1-2.07-4.28-4.22-6.35-6.39a13.4,13.4,0,0,0-6.94-4l-.07,0h-3c-3.33.65-5.67,2.76-7.78,4.87-18,18.09-35.86,35.87-52.93,52.85-2.27,2.26-4.37,4.56-5,7.91v3c.59,3.15,2.39,5.43,4.92,7.89,2.76,2.69,5.53,5.46,8.21,8.14q3,3,6.11,6.07a2.29,2.29,0,0,1,.78,1.83c0,4.81,0,9.63,0,14.45v2.78c0,6.9,4.5,11.35,11.45,11.36h78.43c6.07,0,9.77-2.84,11.33-8.68a1.76,1.76,0,0,1,.09-.2l.1-.26V61.63S160.9,61.19,160.85,61ZM59.54,83.93v2.42L58.32,85.1ZM59.64,67c0,2.94,0,5.89,0,8.83a1.33,1.33,0,0,1-.12.69c-1.37,1.43-2.77,2.83-4.12,4.19l-.81.8-4.77-4.76ZM49.55,69.5,46,73.06a5.23,5.23,0,0,1-.26-6.37,7.92,7.92,0,0,1,1-1.16l56-55.87A6.07,6.07,0,0,1,107,7.71a5.56,5.56,0,0,1,3.33,1.17l.07.06a4.26,4.26,0,0,0-.58.47L92.65,26.51Q79.35,39.8,66,53.07a7.41,7.41,0,0,1-1,.79,9.62,9.62,0,0,0-1.19,1c-.51.53-1,1.1-1.43,1.65s-1,1.16-1.48,1.68C57.15,62,53.35,65.72,49.55,69.5Zm97-17.58a1.9,1.9,0,0,1-1.23.58q-18.31,0-36.64,0H91.22l31.46-31.36,4.94,4.93Q136.8,35.27,146,44.44A5.4,5.4,0,0,1,146.52,51.92ZM118.37,17.79,111.13,25Q97.69,38.45,84.27,51.87a2.05,2.05,0,0,1-1.63.68h0l-3.9,0H74.11L114,12.75l4.71,4.7ZM64.79,112.4V63.88c0-4.06,2.14-6.2,6.19-6.2h78.79c3.95,0,6.13,2.18,6.13,6.13v48.64c0,4-2.18,6.14-6.12,6.14H71C66.93,118.59,64.79,116.45,64.79,112.4Z" transform="translate(-39.62 -2.53)"/><path d="M75.24,79.67H86.88a4.57,4.57,0,0,0,4.83-4.8c0-2.6,0-5.12,0-7.51a4.58,4.58,0,0,0-4.86-4.8H75.34a4.5,4.5,0,0,0-4.81,4.58c-.07,2.66-.07,5.35,0,8A4.46,4.46,0,0,0,75.24,79.67Zm.5-5.21V67.75H86.48v6.71Z" transform="translate(-39.62 -2.53)"/><path d="M105.29,94.59a2.56,2.56,0,1,0-.08,5.11c1.33,0,2.66,0,4,0s2.61,0,3.91,0a2.7,2.7,0,0,0,2-.8,2.58,2.58,0,0,0-2-4.31l-1.51,0h-4.75Z" transform="translate(-39.62 -2.53)"/><path d="M89.29,94.58a2.54,2.54,0,0,0-2.7,2.53,2.5,2.5,0,0,0,2.67,2.59c1.29,0,2.59,0,3.88,0s2.59,0,3.89,0A2.56,2.56,0,1,0,97,94.59l-1.48,0h-6.2Z" transform="translate(-39.62 -2.53)"/><path d="M97.07,102.61c-.51,0-1,0-1.53,0H90.8c-.53,0-1.07,0-1.6,0a2.46,2.46,0,0,0-2.61,2.47,2.48,2.48,0,0,0,2.5,2.62c1.34,0,2.68,0,4,0s2.72,0,4.08,0a2.58,2.58,0,0,0,1.83-.8,2.55,2.55,0,0,0-2-4.29Z" transform="translate(-39.62 -2.53)"/><path d="M73.3,107.72l1.46,0h4.69l1.52,0a2.6,2.6,0,0,0,2.71-2.58A2.56,2.56,0,0,0,81,102.6l-3.86,0-3.79,0a2.57,2.57,0,1,0,0,5.12Z" transform="translate(-39.62 -2.53)"/><path d="M81,94.59l-1.52,0H74.74l-1.53,0a2.57,2.57,0,0,0-2,4.3,2.71,2.71,0,0,0,2,.81c1.31,0,2.61,0,3.92,0s2.65,0,4,0A2.56,2.56,0,1,0,81,94.59Z" transform="translate(-39.62 -2.53)"/><path d="M73.08,91.67h0a2.4,2.4,0,0,0,2.49-2.16,10.76,10.76,0,0,0,0-1.7v-.13h0V85.23a3.49,3.49,0,0,0,0-.44,2.52,2.52,0,0,0-2.43-2.22H73a2.36,2.36,0,0,0-2.41,2.26,39.53,39.53,0,0,0,0,4.62A2.39,2.39,0,0,0,73.08,91.67Z" transform="translate(-39.62 -2.53)"/><path d="M105.13,91.67h0a2.49,2.49,0,0,0,2.55-2.39c0-.51,0-1,0-1.51,0-.21,0-.43,0-.64s0-.43,0-.65c0-.48,0-1,0-1.5a2.56,2.56,0,0,0-2.59-2.41h0a2.52,2.52,0,0,0-2.5,2.37c-.06,1.47-.06,2.94,0,4.38A2.45,2.45,0,0,0,105.13,91.67Z" transform="translate(-39.62 -2.53)"/><path d="M86.6,89.28a2.45,2.45,0,0,0,2.28,2.37l.26,0a2.36,2.36,0,0,0,2.48-2.11,31.69,31.69,0,0,0,0-4.87,2.42,2.42,0,0,0-2.47-2.12H89A2.54,2.54,0,0,0,86.6,85c0,.49,0,1,0,1.49,0,.22,0,.43,0,.65s0,.43,0,.65C86.57,88.29,86.57,88.78,86.6,89.28Z" transform="translate(-39.62 -2.53)"/><path d="M97.06,91.67h.09a2.54,2.54,0,0,0,2.56-2.47c0-.47,0-.94,0-1.42,0-.2,0-1,0-1s0-.21,0-.31a14.55,14.55,0,0,0,0-1.61,2.55,2.55,0,0,0-2.53-2.32H97A2.51,2.51,0,0,0,94.61,85c0,1.31,0,2.66,0,4.14A2.49,2.49,0,0,0,97.06,91.67Z" transform="translate(-39.62 -2.53)"/><path d="M121.19,91.67h.21a2.44,2.44,0,0,0,2.32-2.34,13.53,13.53,0,0,0,0-1.42s0-1.06,0-1.29c0-.53,0-1,0-1.57a2.52,2.52,0,0,0-2.36-2.46h-.19a2.46,2.46,0,0,0-2.49,2.2,32.72,32.72,0,0,0,0,4.75A2.38,2.38,0,0,0,121.19,91.67Z" transform="translate(-39.62 -2.53)"/><path d="M83.59,84.73A2.44,2.44,0,0,0,81,82.57h0A2.52,2.52,0,0,0,78.59,85c0,.5,0,1,0,1.5,0,.22,0,1,0,1s0,.24,0,.36c0,.52,0,1,0,1.59A2.42,2.42,0,0,0,81,91.66h.1a2.28,2.28,0,0,0,2.49-2.06A30.31,30.31,0,0,0,83.59,84.73Z" transform="translate(-39.62 -2.53)"/><path d="M142.71,87.73c0,.5,0,1,0,1.49a2.4,2.4,0,0,0,2.21,2.42,2.56,2.56,0,0,0,.39,0,2.3,2.3,0,0,0,2.4-2.06,30.68,30.68,0,0,0,0-5,2.34,2.34,0,0,0-2.37-2.06l-.32,0a2.44,2.44,0,0,0-2.29,2.35c0,.51,0,1,0,1.5C142.72,86.47,142.71,87.73,142.71,87.73Z" transform="translate(-39.62 -2.53)"/><path d="M129.22,91.67h.1a2.43,2.43,0,0,0,2.41-2.26,12.77,12.77,0,0,0,0-1.51c0-.22,0-.43,0-.65s0-.46,0-.69a16,16,0,0,0,0-1.69,2.43,2.43,0,0,0-2.36-2.29h-.24a2.35,2.35,0,0,0-2.38,2.12,34.27,34.27,0,0,0,0,4.86A2.35,2.35,0,0,0,129.22,91.67Z" transform="translate(-39.62 -2.53)"/><path d="M134.68,89a3,3,0,0,0,0,.42,2.49,2.49,0,0,0,2.39,2.26h.13a2.34,2.34,0,0,0,2.47-2.09,34.25,34.25,0,0,0,0-4.86,2.44,2.44,0,0,0-2.56-2.15h0a2.51,2.51,0,0,0-2.42,2.26,12.42,12.42,0,0,0,0,1.61v.1h0Z" transform="translate(-39.62 -2.53)"/></svg>