<?xml version="1.0" encoding="utf-8"?>
<!-- Generator: Adobe Illustrator 24.1.3, SVG Export Plug-In . SVG Version: 6.00 Build 0)  -->
<svg version="1.1" baseProfile="basic" id="Capa_1" xmlns="http://www.w3.org/2000/svg" xmlns:xlink="http://www.w3.org/1999/xlink"
	 x="0px" y="0px" viewBox="0 0 50 50" xml:space="preserve">
<style type="text/css">
	.st0{fill:#E22621;}
</style>
<g>
	<path class="st0" d="M3.9,38.2c0.2-1.4,1.2-2.2,2.3-2.8c0.8-0.4,1.6-0.9,2.3-1.4c-0.4-0.7-0.9-1.3-1.1-1.9
		c-0.2-0.6-0.4-1.2-0.4-1.8c-0.1-1.3-0.1-2.5,0-3.8c0-0.7,0.2-1.4,0.4-2.1c0.3-0.9,0.9-1.4,1.8-1.6c0.1,0,0.2-0.1,0.3-0.1
		c1.3-1.1,2.8-1.2,4.3-0.8c1,0.3,1.9,0.7,2.6,1.5c0.9,0.8,1.3,1.9,1.3,3.1c0,1.2,0,2.4,0,3.7c0,1.4-0.6,2.6-1.4,3.6
		c-0.1,0.1-0.1,0.1-0.2,0.2c1.3,0.8,2.6,1.6,4,2.4c0.3-0.2,0.6-0.4,1-0.6c-0.1-0.2-0.2-0.3-0.3-0.4c-0.9-1.1-1.3-2.2-1.3-3.6
		c0-1.3,0-2.6,0.1-3.9c0-0.6,0.2-1.3,0.5-1.9c0.2-0.4,0.7-0.9,1.1-1.1c0.5-0.3,0.9-0.5,1.4-0.8c0.9-0.6,1.9-0.6,2.9-0.5
		c1.3,0.2,2.4,0.7,3.3,1.6c0.9,0.9,1.4,1.9,1.4,3.2c0,1.1,0,2.3,0,3.4c0,1.5-0.5,2.7-1.4,3.8c-0.1,0.1-0.2,0.2-0.3,0.3
		c0.4,0.2,0.7,0.4,1,0.6c1.4-0.8,2.7-1.6,4-2.4c-0.7-0.8-1.2-1.6-1.5-2.6c0-0.1-0.1-0.3-0.1-0.4c0-1.9-0.2-3.8,0.1-5.7
		c0.2-1.2,0.9-2.1,2.1-2.4c0.1,0,0.1,0,0.2-0.1c1.3-1.2,2.8-1.2,4.3-0.8c1.2,0.3,2.3,0.9,3.1,2c0.6,0.7,0.9,1.5,0.9,2.5
		c0,1.2,0,2.4,0,3.6c0,1.4-0.5,2.6-1.4,3.7c-0.1,0.1-0.2,0.2-0.3,0.3c0.8,0.5,1.5,0.9,2.2,1.3c0.4,0.2,0.8,0.5,1.2,0.7
		c0.9,0.6,1.3,1.5,1.3,2.6c0,1.2,0,2.5,0,3.7c0,0.7-0.3,1-1,1c-3.6,0-7.3,0-10.9,0c-0.2,0-0.3,0-0.6,0c0,0.3,0,0.6,0,0.8
		c0,0.7-0.3,1-1,1c-3.7,0-7.4,0-11.1,0c-0.5,0-0.8-0.2-0.8-0.6c0-0.4,0.3-0.6,0.8-0.6c0.4,0,0.8,0,1.2,0c0-0.1,0-0.1,0-0.2
		c-0.5-0.6-0.4-1.2-0.1-1.9c0.3-0.5,0.5-1.1,0.8-1.6c0.1-0.2,0.1-0.3,0.1-0.6c-0.5,0.2-0.9,0-1.2-0.2c-0.7-0.4-1.3-0.8-2-1.3
		c-0.2-0.1-0.3-0.2-0.5,0c-0.4,0.3-0.8,0.5-1.2,0.8c-0.4,0.3-0.7,0.7-0.7,1.3c0,1.2,0,2.5,0,3.8c0.2,0,0.4,0,0.6,0
		c0.4,0,0.7,0.3,0.7,0.6c0,0.3-0.3,0.6-0.6,0.6c-0.3,0-0.6,0-0.9,0c-0.5,0-0.8-0.3-0.9-0.8c0-0.3,0-0.6,0-1c-0.2,0-0.4,0-0.5,0
		c-3.6,0-7.3,0-10.9,0c-0.5,0-0.9-0.2-1.1-0.7C3.9,41.3,3.9,39.7,3.9,38.2z M20.9,31.4c0,0.1,0,0.2,0,0.3c-0.1,1.7,0.7,2.9,2,3.9
		c1.5,1.2,2.9,1.2,4.4,0c0.6-0.5,1-1.1,1.5-1.7c0.6-0.8,0.6-1.8,0.5-2.9c-1.2,0.1-2-0.5-2.7-1.3c-0.1-0.1-0.3-0.3-0.5-0.4
		c-0.4-0.4-0.9-0.6-1.5-0.6c-0.4,0-0.7,0-1.1,0c-0.3,0-0.4,0.1-0.5,0.4c-0.1,0.4-0.2,0.8-0.3,1.2c-0.2,0.6-0.7,0.9-1.3,1
		C21.1,31.4,21,31.4,20.9,31.4z M33.4,29.6c0,0.4-0.1,0.9,0,1.2c0.5,1.9,1.7,3.2,3.5,3.8c0.3,0.1,0.6,0.1,0.9,0
		c2.3-0.3,4.2-3,3.8-5.4c-0.8,0-1.5-0.2-2.1-0.8c-0.2-0.2-0.4-0.3-0.6-0.5c-0.7-0.7-1.5-1.1-2.5-1c-1,0.1-0.9-0.2-1.1,0.9
		C35.1,28.8,34.6,29.6,33.4,29.6z M16.6,29.2c-1.1,0.1-1.9-0.5-2.7-1.2c-0.2-0.2-0.4-0.4-0.7-0.6c-0.3-0.2-0.7-0.4-1.1-0.4
		c-0.5-0.1-1,0-1.4,0c-0.1,0-0.3,0.2-0.4,0.3c-0.1,0.3-0.2,0.6-0.3,1c-0.2,0.8-0.7,1.3-1.5,1.4c-0.1,0-0.2,0-0.3,0.1
		c0,0.4,0,0.9,0.1,1.3c0.4,1.6,1.4,2.7,2.9,3.5c0.8,0.4,1.7,0.4,2.5,0C15.7,33.4,16.8,31.5,16.6,29.2z M44.8,42.2c0-1.3,0-2.5,0-3.8
		c0-0.5-0.3-1-0.7-1.3c-0.4-0.3-0.8-0.5-1.2-0.8c-0.1-0.1-0.3-0.1-0.5,0c-0.7,0.4-1.3,0.9-2,1.3c-0.3,0.2-0.7,0.3-1.1,0.4
		c0,0-0.1-0.1-0.1-0.1c0,0.2,0,0.3,0.1,0.5c0.3,0.6,0.5,1.3,0.9,1.9c0.3,0.6,0.3,1.1-0.1,1.6c0,0.1-0.1,0.1-0.1,0.2
		C41.6,42.2,43.2,42.2,44.8,42.2z M5.2,42.2c1.6,0,3.2,0,4.9,0C10,42,10,41.9,9.9,41.8c-0.4-0.5-0.3-0.9-0.1-1.4
		c0.3-0.6,0.6-1.3,0.9-2c0.1-0.2,0.1-0.3,0.1-0.5c0,0-0.1,0.1-0.1,0.1c-0.3-0.1-0.7-0.2-1-0.3c-0.7-0.4-1.4-0.9-2.1-1.3
		c-0.1-0.1-0.3-0.1-0.4,0c-0.4,0.2-0.9,0.5-1.3,0.8c-0.5,0.3-0.7,0.8-0.7,1.4C5.2,39.7,5.2,40.9,5.2,42.2z M26.6,39.7
		c0,0.3,0,0.4,0.1,0.6c0.3,0.7,0.6,1.5,1,2.2c0.2,0.4,0.2,0.7,0,1c-0.1,0.2-0.2,0.3-0.3,0.5c1.7,0,3.3,0,4.9,0c0-0.9,0-1.7,0-2.5
		c0-2.1-0.1-2.2-1.9-3.3c-0.2-0.1-0.4-0.1-0.6,0c-0.6,0.4-1.3,0.8-2,1.3C27.5,39.7,27.1,39.9,26.6,39.7z M29.2,29.7
		c0-0.4,0-0.8,0-1.3c0.1-1.2-0.5-2.2-1.5-2.8c-0.6-0.4-1.3-0.7-2-0.8c-1.1-0.2-2.1-0.1-2.9,0.8c-0.1,0.1-0.3,0.2-0.4,0.2
		c-0.5,0.1-0.9,0.4-1.1,0.8c-0.5,1.1-0.3,2.3-0.4,3.5c0.4,0,0.5-0.1,0.6-0.4c0.1-0.4,0.2-0.8,0.3-1.2c0.2-0.6,0.7-1,1.3-1
		c0.4,0,0.7,0,1.1,0c1,0,1.8,0.3,2.6,0.9c0.4,0.3,0.7,0.7,1.1,1C28.2,29.7,28.6,29.9,29.2,29.7z M41.7,28c0-0.5,0-1,0-1.5
		c0-0.8-0.3-1.4-0.8-1.9c-0.8-0.8-1.8-1.3-2.9-1.5c-1-0.1-2,0-2.7,0.8C35.3,23.9,35.1,24,35,24c-0.8,0.1-1.3,0.6-1.4,1.4
		c-0.2,1-0.2,2-0.3,3c0.5,0.1,0.6-0.2,0.7-0.5c0.1-0.4,0.2-0.8,0.3-1.2c0.2-0.6,0.7-0.9,1.3-0.9c0.4,0,0.8,0,1.2,0
		c0.9,0,1.6,0.3,2.3,0.8c0.4,0.3,0.8,0.7,1.1,1C40.7,27.8,41.1,28.1,41.7,28z M8.2,28.3c0.5,0,0.6-0.2,0.7-0.5
		c0.1-0.4,0.2-0.8,0.3-1.1c0.2-0.6,0.7-1,1.4-1c0.4,0,0.7,0,1.1,0c0.9,0,1.7,0.3,2.4,0.8c0.4,0.3,0.8,0.7,1.1,1
		c0.4,0.3,0.8,0.5,1.3,0.4c0-0.5,0-1,0-1.5c0-0.7-0.2-1.4-0.7-1.9c-0.8-0.9-1.8-1.3-2.9-1.5c-1-0.1-2,0-2.7,0.8
		C10.2,23.9,10,24,9.9,24c-0.9,0.1-1.3,0.7-1.4,1.4C8.3,26.4,8.3,27.3,8.2,28.3z M19.1,37.2c-0.5-0.3-0.9-0.5-1.3-0.8
		c-0.2-0.1-0.3-0.1-0.5,0c-0.6,0.4-1.2,0.8-1.9,1.2c-0.4,0.3-0.8,0.5-1.4,0.3c0.1,0.3,0.1,0.4,0.1,0.6c0.3,0.6,0.6,1.3,0.9,1.9
		c0.3,0.5,0.3,1-0.1,1.5c-0.1,0.1-0.1,0.2-0.1,0.3c0.6,0,1.1,0,1.7,0C16.2,40,16.7,38.1,19.1,37.2z M31,37.1c0,0.1,0,0.1,0.1,0.1
		c0.1,0.1,0.2,0.1,0.3,0.2c1.5,0.8,2.3,2,2.1,3.7c0,0.4,0,0.7,0,1.1c0.6,0,1.1,0,1.7,0c-0.1-0.1-0.1-0.2-0.2-0.3
		c-0.3-0.4-0.3-0.9-0.1-1.4c0.3-0.6,0.6-1.3,0.9-2c0.1-0.1,0-0.3,0.1-0.5c0,0-0.1,0.1-0.1,0.1c-0.3-0.1-0.7-0.1-1-0.3
		c-0.7-0.4-1.4-0.9-2.1-1.3c-0.1-0.1-0.3-0.1-0.4-0.1C31.9,36.6,31.5,36.8,31,37.1z M25,43.9c0.7,0.3,1.1-0.1,1.4-0.7
		c0.1-0.3,0.2-0.5,0-0.7c-0.2-0.4-0.4-0.8-0.5-1.2c-0.2-0.6-0.5-0.8-1.1-0.7c-0.2,0-0.4,0.1-0.5,0.3c-0.2,0.6-0.5,1.1-0.7,1.6
		c0,0.1-0.1,0.3,0,0.4C23.8,43.6,24.1,44.3,25,43.9z M37.7,42.2c0.6,0.2,1-0.2,1.3-0.8c0.1-0.2,0.2-0.4,0-0.7
		c-0.2-0.5-0.5-1-0.7-1.4c-0.1-0.3-0.3-0.4-0.6-0.4c-0.1,0-0.3,0-0.4,0c-0.1,0-0.3,0.1-0.4,0.2c-0.3,0.6-0.6,1.2-0.8,1.7
		c0,0.1-0.1,0.2,0,0.3C36.4,42.1,36.6,42.2,37.7,42.2z M12.5,42.2c0.1,0,0.3,0,0.4,0c0.4,0.1,0.6-0.1,0.7-0.4c0-0.1,0.1-0.2,0.2-0.3
		c0.2-0.3,0.2-0.5,0.1-0.8c-0.2-0.3-0.3-0.7-0.5-1.1c-0.3-0.7-0.3-0.8-1.2-0.7c-0.1,0-0.3,0.1-0.3,0.2c-0.3,0.6-0.6,1.2-0.8,1.8
		c0,0.1,0,0.3,0,0.4C11.3,41.9,11.6,42.5,12.5,42.2z M26.3,37.5c0.2,0.3,0.5,0.5,0.7,0.7c0.1,0.1,0.2,0.1,0.3,0.1
		c0.5-0.3,1-0.7,1.6-1c-0.4-0.2-0.7-0.4-1-0.6c-0.1,0-0.2,0-0.3,0C27.2,37,26.8,37.3,26.3,37.5z M23.7,37.5
		c-0.5-0.3-0.9-0.5-1.4-0.8c-0.1,0-0.2,0-0.2,0c-0.3,0.2-0.6,0.4-1,0.6c0.3,0.2,0.6,0.4,0.8,0.5C22.9,38.5,22.9,38.5,23.7,37.5
		C23.7,37.6,23.7,37.6,23.7,37.5z M16.3,35.5c-0.4-0.2-0.7-0.4-1-0.6c-0.1,0-0.2,0-0.2,0c-0.5,0.3-0.9,0.5-1.4,0.8
		c0.3,0.3,0.6,0.6,0.9,0.9C15.2,36.3,15.7,35.9,16.3,35.5z M39.7,36.7c0.6-0.4,1.1-0.7,1.7-1.1c-0.4-0.2-0.7-0.4-1.1-0.6
		c-0.5,0.3-1,0.5-1.6,0.8C39.1,36,39.4,36.3,39.7,36.7z M10.3,36.7c0.3-0.3,0.6-0.6,0.9-0.9c-0.5-0.3-1-0.5-1.6-0.8
		c-0.3,0.2-0.7,0.4-1.1,0.6C9.2,35.9,9.7,36.3,10.3,36.7z M36.3,35.7c-0.5-0.3-0.9-0.5-1.4-0.8c-0.1,0-0.2,0-0.2,0
		c-0.3,0.2-0.6,0.4-1,0.6c0.6,0.4,1.2,0.8,1.7,1.1c0.2-0.3,0.4-0.5,0.6-0.7C36.1,35.9,36.2,35.8,36.3,35.7z M38,37.7
		c0.3-0.7,0.3-0.9-0.4-1.5c-0.1,0.1-0.2,0.3-0.4,0.4c-0.4,0.3-0.2,0.6-0.1,0.9c0,0.1,0.3,0.1,0.5,0.2C37.7,37.7,37.8,37.7,38,37.7z
		 M12.9,37.7c0.3-0.8,0.3-0.9-0.5-1.5c-0.1,0.1-0.2,0.3-0.4,0.4c-0.4,0.3-0.2,0.6-0.1,0.9c0,0.1,0.3,0.1,0.5,0.2
		C12.6,37.7,12.7,37.7,12.9,37.7z M25.4,39.5c0.3-0.8,0.2-0.9-0.5-1.4c-0.5,0.4-0.9,0.8-0.4,1.4C24.9,39.5,25.1,39.5,25.4,39.5z"/>
	<path class="st0" d="M32.8,13c0,4.4-3.3,7.9-7.8,8.2c-4.2,0.3-7.9-2.7-8.6-7c-0.2-1.1-0.1-2.1,0.2-3.2c0.1-0.5,0.4-0.7,0.8-0.7
		c0.4,0.1,0.6,0.4,0.4,1c-1,4,1.6,7.9,5.6,8.6c3.8,0.7,7.6-2.1,8.1-6c0.5-4.3-2.8-8-7.1-7.9c-2.1,0-3.8,0.9-5.1,2.4
		c-0.1,0.1-0.2,0.2-0.2,0.3c-0.3,0.3-0.6,0.4-0.9,0.1c-0.3-0.2-0.3-0.6-0.1-0.9c1.3-1.6,2.9-2.6,4.9-3c4.6-0.9,8.9,2.1,9.7,6.7
		C32.8,12.1,32.8,12.5,32.8,13z"/>
	<path class="st0" d="M23.4,14.2c1.1-1.4,2.3-2.7,3.4-4c0.1-0.1,0.1-0.2,0.2-0.2c0.3-0.2,0.5-0.3,0.8,0c0.3,0.2,0.3,0.5,0.1,0.8
		c0,0.1-0.1,0.2-0.2,0.2c-1.2,1.4-2.4,2.9-3.6,4.3c-0.4,0.5-0.7,0.5-1.2,0.1c-0.6-0.5-1.2-1-1.8-1.5c-0.4-0.3-0.5-0.7-0.2-1
		c0.3-0.3,0.6-0.3,1,0.1C22.4,13.4,22.8,13.8,23.4,14.2z"/>
</g>
</svg>
