<?xml version="1.0" encoding="utf-8"?>
<!-- Generator: Adobe Illustrator 24.1.3, SVG Export Plug-In . SVG Version: 6.00 Build 0)  -->
<svg version="1.1" baseProfile="basic" id="Capa_1" xmlns="http://www.w3.org/2000/svg" xmlns:xlink="http://www.w3.org/1999/xlink"
	 x="0px" y="0px" viewBox="0 0 50 50" xml:space="preserve">
<style type="text/css">
	.st0{fill:#E12320;}
</style>
<g>
	<path class="st0" d="M5.8,26.2c0-0.8,0-1.6,0-2.4c0.1-0.5,0.1-0.9,0.2-1.4c0.6-4.2,2.4-7.8,5.3-10.8C15,7.9,19.4,6,24.6,5.8
		c3.6-0.1,7,0.7,10.1,2.6c6,3.7,9.2,9.1,9.5,16.2c0.1,3.6-0.8,7-2.6,10.1c-3,5-7.5,8.1-13.2,9.2c-0.7,0.1-1.4,0.2-2.1,0.3
		c-0.8,0-1.6,0-2.4,0c-0.5-0.1-0.9-0.1-1.4-0.2c-3.8-0.6-7.2-2.1-10.1-4.7c-3.3-3-5.4-6.6-6.2-11C6,27.6,5.9,26.9,5.8,26.2z M25,9
		C16.2,9,9,16.1,9,25c0,8.8,7.1,15.9,16,16c8.8,0.1,16-7.1,16-16C41,16.2,33.9,9,25,9z"/>
	<path class="st0" d="M30.6,26.6c-2.4,0-4.8,0-7.1,0c0-4.8,0-9.6,0-14.4c1,0,2.1,0,3.1,0c0,3.7,0,7.4,0,11.2c1.4,0,2.7,0,4,0
		C30.6,24.5,30.6,25.5,30.6,26.6z"/>
	<path class="st0" d="M12.2,26.6c0-1.1,0-2.1,0-3.1c1.3,0,2.6,0,4,0c0,1,0,2.1,0,3.1C14.9,26.6,13.6,26.6,12.2,26.6z"/>
	<path class="st0" d="M33.8,23.4c1.3,0,2.6,0,4,0c0,1.1,0,2.1,0,3.1c-1.3,0-2.6,0-4,0C33.8,25.5,33.8,24.5,33.8,23.4z"/>
	<path class="st0" d="M26.6,33.8c0,1.3,0,2.6,0,4c-1.1,0-2.1,0-3.1,0c0-1.3,0-2.6,0-4C24.5,33.8,25.5,33.8,26.6,33.8z"/>
</g>
</svg>
