<?xml version="1.0" encoding="utf-8"?>
<!-- Generator: Adobe Illustrator 24.1.3, SVG Export Plug-In . SVG Version: 6.00 Build 0)  -->
<svg version="1.1" baseProfile="basic" id="Capa_1" xmlns="http://www.w3.org/2000/svg" xmlns:xlink="http://www.w3.org/1999/xlink"
	 x="0px" y="0px" viewBox="0 0 40 40" xml:space="preserve">
<style type="text/css">
	.st0{fill:#222222;}
	.st1{fill:#E12320;}
</style>
<path class="st0" d="M35,40H5c-2.8,0-5-2.2-5-5V5c0-2.8,2.2-5,5-5h30c2.8,0,5,2.2,5,5v30C40,37.8,37.8,40,35,40z"/>
<g>
	<path class="st1" d="M9.3,20.7c0-0.4,0-0.9,0-1.3c0.1-0.3,0.1-0.5,0.1-0.8c0.3-2.3,1.3-4.3,2.9-6c2.1-2.1,4.5-3.1,7.4-3.2
		c2-0.1,3.9,0.4,5.6,1.4c3.3,2.1,5.1,5.1,5.3,9c0.1,2-0.4,3.9-1.4,5.6c-1.7,2.8-4.2,4.5-7.3,5.1c-0.4,0.1-0.8,0.1-1.2,0.2
		c-0.4,0-0.9,0-1.3,0c-0.3-0.1-0.5-0.1-0.8-0.1c-2.1-0.3-4-1.2-5.6-2.6c-1.8-1.7-3-3.7-3.4-6.1C9.5,21.4,9.4,21.1,9.3,20.7z
		 M20,11.1c-4.9,0-8.9,3.9-8.9,8.9c0,4.9,3.9,8.8,8.9,8.9c4.9,0.1,8.9-3.9,8.9-8.9C28.9,15.1,24.9,11.1,20,11.1z"/>
	<path class="st1" d="M23.1,20.9c-1.3,0-2.7,0-3.9,0c0-2.7,0-5.3,0-8c0.6,0,1.2,0,1.7,0c0,2.1,0,4.1,0,6.2c0.8,0,1.5,0,2.2,0
		C23.1,19.7,23.1,20.3,23.1,20.9z"/>
	<path class="st1" d="M12.9,20.9c0-0.6,0-1.2,0-1.7c0.7,0,1.4,0,2.2,0c0,0.6,0,1.2,0,1.7C14.4,20.9,13.7,20.9,12.9,20.9z"/>
	<path class="st1" d="M24.9,19.1c0.7,0,1.4,0,2.2,0c0,0.6,0,1.2,0,1.7c-0.7,0-1.4,0-2.2,0C24.9,20.3,24.9,19.7,24.9,19.1z"/>
	<path class="st1" d="M20.9,24.9c0,0.7,0,1.4,0,2.2c-0.6,0-1.2,0-1.7,0c0-0.7,0-1.4,0-2.2C19.7,24.9,20.3,24.9,20.9,24.9z"/>
</g>
</svg>
