<?xml version="1.0" encoding="utf-8"?>
<!-- Generator: Adobe Illustrator 24.1.3, SVG Export Plug-In . SVG Version: 6.00 Build 0)  -->
<svg version="1.1" baseProfile="basic" id="Capa_1" xmlns="http://www.w3.org/2000/svg" xmlns:xlink="http://www.w3.org/1999/xlink"
	 x="0px" y="0px" viewBox="0 0 40 40" xml:space="preserve">
<style type="text/css">
	.st0{fill:#222222;}
	.st1{fill:#E12320;}
</style>
<path class="st0" d="M35,40H5c-2.8,0-5-2.2-5-5V5c0-2.8,2.2-5,5-5h30c2.8,0,5,2.2,5,5v30C40,37.8,37.8,40,35,40z"/>
<g>
	<g>
		<g>
			<g>
				<path class="st1" d="M20,9.7L20,9.7c-5.6,0-10.2,4.6-10.2,10.2c0,2.3,0.8,4.4,1.9,6l-1.3,3.8l3.9-1.3c1.6,1.1,3.5,1.7,5.6,1.7
					c5.6,0,10.2-4.6,10.2-10.2S25.6,9.7,20,9.7z M26,24.1c-0.3,0.7-1.3,1.3-2,1.4c-0.5,0.1-1.3,0.2-3.6-0.8c-3-1.3-4.9-4.3-5.1-4.5
					c-0.2-0.2-1.3-1.6-1.3-3.1c0-1.5,0.8-2.2,1.1-2.5c0.3-0.3,0.7-0.3,1.1-0.3c0.2,0,0.3,0,0.3,0c0.3,0,0.4,0,0.7,0.5
					c0.3,0.6,0.8,2.1,0.9,2.2c0.1,0.2,0.2,0.3,0.1,0.6c-0.1,0.2-0.2,0.3-0.3,0.5c-0.2,0.2-0.3,0.3-0.4,0.5c-0.2,0.2-0.3,0.3-0.1,0.7
					c0.2,0.3,0.8,1.3,1.7,2.1c1.2,1,2.1,1.3,2.4,1.5c0.3,0.1,0.5,0.1,0.8-0.1c0.3-0.3,0.5-0.7,0.8-1.1c0.2-0.3,0.5-0.3,0.8-0.3
					c0.3,0.1,1.8,0.8,2,1c0.3,0.2,0.5,0.3,0.6,0.3C26.2,22.9,26.2,23.5,26,24.1z"/>
			</g>
		</g>
	</g>
</g>
</svg>
