<?xml version="1.0" encoding="utf-8"?>
<!-- Generator: Adobe Illustrator 24.1.3, SVG Export Plug-In . SVG Version: 6.00 Build 0)  -->
<svg version="1.1" baseProfile="basic" id="Capa_1" xmlns="http://www.w3.org/2000/svg" xmlns:xlink="http://www.w3.org/1999/xlink"
	 x="0px" y="0px" viewBox="0 0 465.7 512" xml:space="preserve">
<g>
	<path d="M232,0c2.8,2.3,6,4.2,8.4,6.8c34.4,36,68.7,72.1,103.2,108.2c3.7,3.8,5.4,8,5.4,13.4c-0.1,29.2-0.1,58.3-0.1,87.5
		c0,1.8,0,3.6,0,5.1c9.7,3.4,19.2,5.9,28,9.9c47.3,21.5,77.4,57.7,86.2,108.8c9.8,57-9.3,104.7-54.4,141.2
		c-22.4,18.2-48.6,27.9-77.4,30.4c-0.8,0.1-1.6,0.4-2.4,0.7c-7.3,0-14.7,0-22,0c-0.9-0.3-1.8-0.7-2.8-0.9
		c-46.4-5.3-82.3-27.6-108.2-66.3c-2.2-3.2-4.4-4.2-8.1-4.2c-42.3,0.1-84.6,0.1-127,0c-5.3,0-10.7-0.3-15.9-1.5
		c-27.2-6-45-28.6-45.1-57C0,308,0,233.6,0,159.3c0-33.7-0.1-67.3,0-101c0.1-20,7.9-36.6,24.5-47.7C32.1,5.7,41.5,3.5,50,0
		C110.7,0,171.4,0,232,0z M201.7,276.5c-2.9,0-4.8,0-6.7,0c-34.5,0-69,0-103.5,0c-1.8,0-3.7,0-5.5-0.2c-6.3-0.7-10.1-4.5-10.2-10.2
		c-0.2-5.8,3.7-10.1,10.1-10.9c1.6-0.2,3.3-0.1,5-0.1c41.5,0,83-0.1,124.5,0.1c4.4,0,7.8-1.1,11.3-3.9
		c25.2-20.1,53.9-31.2,86.3-32.5c4.7-0.2,9.5,0,14.2,0c0-28,0-55.4,0-83.2c-2.2,0-4.1,0-5.9,0c-17.2,0-34.3,0.1-51.5-0.1
		c-5.1-0.1-10.4-0.3-15.3-1.6c-22.3-6-35.5-23.5-35.7-47.1c-0.1-20,0-40,0-60c0-1.7-0.2-3.5-0.3-5.3c-1.8-0.1-2.9-0.2-4.1-0.2
		c-51.7,0-103.3,0-155,0.1c-3.8,0-7.7,0.4-11.3,1.4C31,27.6,21.3,41.2,21.3,60.7c0,106.5-0.1,213,0.1,319.5c0,6.3,1.2,13.1,3.8,18.8
		c6.9,15,19.9,20.5,35.9,20.5c38.5-0.1,77,0,115.5,0c1.7,0,3.5-0.2,5.8-0.3c-5.6-14.6-8.7-28.9-9.9-43.8
		c-1.2-14.9,0.4-29.5,3.5-44.4c-2.1,0-3.8,0-5.4,0c-27.5,0-55,0-82.5,0c-7.7,0-12.4-4.3-12.3-10.8c0-6.3,4.5-10.2,12-10.5
		c1.3-0.1,2.7,0,4,0c25.8,0,51.7-0.5,77.5,0.2c9.7,0.3,16.8-1,19.3-11.6c0.3-1.4,1.3-2.7,2.1-4C194.1,288.7,197.6,283.1,201.7,276.5
		z M319.2,490.8c69.1-0.3,125.2-56.5,125.1-125.5C444.2,296,387.6,239.6,318.6,240c-69.2,0.4-125.4,57-124.9,125.7
		C194.2,435,250.5,491.1,319.2,490.8z M240.1,37.4c0,2.8,0,3.9,0,5.1c0,15.3-0.2,30.6,0.1,45.9c0.3,15,11.3,25.4,26.3,25.6
		c13.5,0.2,27,0,40.4,0c1.6,0,3.2-0.1,5.8-0.2C288.3,88.2,264.7,63.4,240.1,37.4z"/>
	<path d="M139.9,223c-16.8,0-33.6,0-50.5,0c-2.1,0-4.4-0.1-6.4-0.8c-4.8-1.4-7.5-5.7-7.2-10.7c0.3-4.9,3.8-8.7,8.7-9.5
		c2-0.3,4-0.3,6-0.3c33.1,0,66.3,0,99.4,0c0.5,0,1,0,1.5,0c8.5,0.1,13.6,4.1,13.5,10.7c-0.1,6.6-5.1,10.6-13.6,10.6
		C174.2,223,157,223,139.9,223z"/>
	<path d="M308.4,408.6c0-2,0-3.9,0-5.9c0-35.2,0-70.3,0-105.5c0-8,2.6-12.1,8.4-13.4c5.2-1.2,10.7,1.7,12.2,6.8
		c0.7,2.4,0.8,4.9,0.9,7.4c0.1,35.2,0,70.3,0,105.5c0,1.8,0,3.6,0,5.4c0.6,0.4,1.1,0.8,1.7,1.2c0.7-1.3,1.2-2.8,2.2-3.8
		c12.4-13.5,24.9-26.9,37.4-40.3c1.6-1.7,3.3-3.4,5.2-4.6c3.9-2.5,9.2-1.8,12.4,1.6c3.3,3.5,4.3,7.6,2.1,11.9
		c-1,1.9-2.4,3.6-3.9,5.2c-19.4,20.9-38.8,41.7-58.2,62.6c-7,7.5-12.7,7.4-19.8-0.2c-19.4-20.8-38.9-41.7-58.2-62.7
		c-2.2-2.4-3.9-5.8-4.5-9.1c-0.8-4.1,1.4-8,5.2-9.2c3.2-1,7-0.6,10.4,0.1c1.8,0.4,3.4,2.6,4.9,4.1c12.4,13.2,24.8,26.5,37.2,39.8
		c1.1,1.2,2,2.6,3,3.9C307.4,409.1,307.9,408.8,308.4,408.6z"/>
</g>
</svg>
