<?xml version="1.0" encoding="utf-8"?>
<!-- Generator: Adobe Illustrator 24.1.3, SVG Export Plug-In . SVG Version: 6.00 Build 0)  -->
<svg version="1.1" baseProfile="basic" id="Capa_1" xmlns="http://www.w3.org/2000/svg" xmlns:xlink="http://www.w3.org/1999/xlink"
	 x="0px" y="0px" viewBox="0 0 301.4 384" xml:space="preserve">
<g>
	<path d="M67.5,0c3,2.1,4,4.9,4,8.6c-0.1,50.4-0.1,100.7-0.1,151.1c0,1,0,2-0.1,3c-0.5,3.3-2.4,5.2-5.7,5.4
		c-3.3,0.2-5.6-1.3-6.5-4.5c-0.4-1.7-0.4-3.5-0.4-5.2c0-46.7,0-93.5,0-140.2c0-1.6,0-3.2,0-4.8c-13.9-3.7-26.3,5.3-26.3,19.2
		c-0.1,70.7,0,141.5,0,212.2c0,0.6,0.1,1.2,0.1,2.1c2.8-1.3,5.2-2.7,7.8-3.8c5-2,8.5-0.9,10.1,3c1.5,3.8-0.3,6.8-5.5,8.9
		c-7.2,2.9-11.5,8.3-12.4,16c-0.8,7.1,1.7,13.3,7.7,17.2c10.2,6.7,13.8,4.8,17.1-6.5c4.2-14.6,6.8-29.7,10.2-44.5
		c4.2-18.1,7.8-36.4,12.8-54.3c7-24.8,19.9-46.5,37.1-65.6c11.1-12.3,23.4-13.2,36.2-2.4c0.4-0.3,1-0.6,1.4-1
		c10.5-9.2,24-8.6,33.4,1.6c21.5,23.3,35.6,50.4,42.5,81.4c6.3,28.3,12.6,56.5,19,84.8c0.4,1.9,1.3,3.8,2.4,5.4
		c8.8,12.5,17.7,24.8,26.5,37.3c0.9,1.2,1.8,2.4,2.4,3.8c1.3,3.1,0.4,5.7-2.3,7.6c-2.5,1.8-5.2,1.6-7.6-0.4
		c-0.8-0.6-1.4-1.5-1.9-2.3c-9.2-12.8-18.1-25.8-27.5-38.4c-3.6-4.8-4.4-10.2-5.7-15.6c-6.8-29.7-13-59.5-20.4-89
		c-6.3-25-19.3-46.7-36.8-65.7c-4.1-4.5-9.7-5.3-14.1-2c-4.4,3.2-5.3,8.8-2.2,14.1c4.7,8.2,9.6,16.4,14.1,24.7
		c5.2,9.7,8.7,20.1,10.9,31c0.9,4.5-0.9,7.9-4.7,8.7c-3.6,0.8-6.8-1.5-7.6-5.9c-3.4-17.6-11.9-33-21.5-48.2c-0.6,0.6-1.1,1-1.5,1.6
		c-9.6,15.5-18,31.4-21,49.7c-0.7,4.3-4.1,6.6-7.7,5.8c-3.6-0.9-5.4-4-4.7-8.1c2.6-15.2,8-29.3,15.8-42.6c3.2-5.5,6.5-11,9.7-16.5
		c3.2-5.5,2.3-11.1-2.2-14.4c-4.5-3.3-9.9-2.3-14.3,2.4c-21.1,22.9-34,49.9-40.4,80.3c-5.7,27.4-12.1,54.6-18.2,81.9
		c-0.4,1.9-1.3,3.8-2.4,5.4c-16.2,22.8-32.4,45.6-48.6,68.4c-2.8,4-6.3,4.9-9.6,2.6c-3.4-2.4-3.6-6-0.7-10.2
		c11.1-15.6,22.2-31.1,33.3-46.7c0.5-0.7,0.9-1.4,1.4-2.2c-0.4-0.3-0.7-0.6-1-0.7c-15.6-6-22.4-17.5-22.3-34c0.1-77,0.4-154-0.2-231
		C19.2,19.3,27.4,4.2,47.3,0C54,0,60.8,0,67.5,0z"/>
	<path d="M230.3,384c-1.7-2-3.5-3.8-5-5.9c-9.4-13.7-18.8-27.4-28-41.2c-4.4-6.5-10-11-17.5-13.2c-10.9-3.3-19.2-10-24.8-19.9
		c-0.2-0.4-0.5-0.8-0.8-1.2c-0.1-0.1-0.2-0.1-0.6-0.1c-0.5,0.8-1.1,1.7-1.7,2.7c-5.4,8.9-13,15.2-23,18.2
		c-8.3,2.5-14.5,7.4-19.3,14.6c-9,13.5-18.2,26.9-27.4,40.3c-1.4,2.1-3.3,3.9-5,5.9c-1.5,0-3,0-4.5,0c-5.2-4-5.6-6.4-1.8-11.9
		c9.5-14.1,19.2-28,28.6-42.2c6.1-9.1,14.2-15.2,24.6-18.6c12.7-4.1,19.8-13.1,20.7-26.5c1-15,1.6-29.9,2.3-44.9
		c0.3-6.4-3.6-11-9.6-11.8c-5.6-0.7-10.6,3-11.8,9.1c-1.8,9.1-3.5,18.1-5.2,27.2c-0.6,3.1-1.8,5.8-5.3,6.5c-4.8,1-8.3-2.7-7.3-8.4
		c1.2-7.3,2.7-14.5,4-21.7c0.4-2,0.8-3.9,1.1-5.9c3.5-18.4,24.4-25.9,38.8-13.8c0.5,0.4,0.9,0.8,0.8,0.7c4.7-2.1,8.9-4.8,13.5-5.9
		c13.1-3,25.3,5.4,27.8,18.6c1.7,9.1,3.6,18.1,5,27.2c0.4,2.4-0.4,5.5-1.8,7.5c-0.8,1.2-3.8,1.7-5.7,1.5c-3.2-0.4-4.3-3.1-4.9-5.9
		c-1.6-8.2-3.1-16.4-4.6-24.7c-0.2-1.1-0.4-2.2-0.7-3.3c-1.3-5.8-6.3-9.4-11.7-8.8c-5.9,0.7-9.9,5.3-9.6,11.4
		c0.3,9.4,0.9,18.7,1.3,28.1c0.3,6,0.5,12,1.1,18c1.2,12.6,7.8,21.4,19.6,25.3c11.6,3.8,20.3,10.6,27,20.8
		c8.9,13.6,18.2,26.9,27.3,40.3c3.7,5.5,3.3,8-1.8,12C233.3,384,231.8,384,230.3,384z"/>
	<path d="M267.8,0c3.3,2.1,4.2,5.1,4.2,8.9c-0.1,83.1,0,166.2-0.1,249.3c0,1.4,0,2.8-0.3,4.1c-0.8,3.2-3,4.8-6.3,4.7
		c-3.1-0.1-5.2-1.8-5.8-4.9c-0.3-1.7-0.3-3.5-0.3-5.2c0-79.5,0-159,0-238.5c0-1.7,0-3.5,0-5.7c-1.8,0-3.2,0-4.6,0
		c-48.4,0-96.7,0-145.1,0c-0.9,0-1.8,0-2.6,0c-3.7,0.2-6.8-0.6-8.1-4.5c-1.3-4,1.1-6.3,4.1-8.3C157.8,0,212.8,0,267.8,0z"/>
	<path d="M160.1,60.7c0,7.2,0,13.9,0,20.6c0,1.5,0.1,3-0.1,4.5c-0.4,3.7-3,6-6.5,5.9c-3.3-0.1-5.9-2.3-6.1-5.9
		c-0.2-6.1-0.1-12.2-0.2-18.3c0-2.1,0-4.2,0-6.8c-3.7,0-7,0.1-10.3,0c-4.3-0.1-7.2-2.7-7.2-6.4c0-3.7,2.9-6.2,7.3-6.3
		c3-0.1,6,0,9-0.1c0.2,0,0.5-0.2,1.2-0.5c0-3-0.1-6.2,0-9.4c0.1-4.8,2.5-7.6,6.4-7.6c3.9,0,6.3,2.8,6.4,7.6c0.1,3.1,0,6.2,0,9.9
		c3.6,0,6.9,0,10.2,0c4.4,0.1,7.3,2.5,7.3,6.3c0,3.7-2.9,6.4-7.2,6.5C167.3,60.7,164,60.7,160.1,60.7z"/>
	<path d="M301.4,358.2c-0.1,3.5-3.2,6.4-6.6,6.2c-3.8-0.2-8.6-5.9-8.4-10.1c0.2-3.4,3-6.1,6.4-6
		C296.4,348.4,301.5,354.3,301.4,358.2z"/>
</g>
</svg>
