<?xml version="1.0" encoding="utf-8"?>
<!-- Generator: Adobe Illustrator 24.1.3, SVG Export Plug-In . SVG Version: 6.00 Build 0)  -->
<svg version="1.1" id="Capa_1" xmlns="http://www.w3.org/2000/svg" xmlns:xlink="http://www.w3.org/1999/xlink" x="0px" y="0px"
	 viewBox="0 0 366.7 58.1" style="enable-background:new 0 0 366.7 58.1;" xml:space="preserve">
<style type="text/css">
	.st0{display:none;}
	.st1{display:inline;fill:none;}
	.st2{fill:url(#SVGID_1_);}
	.st3{fill:url(#SVGID_2_);}
	.st4{fill:url(#SVGID_3_);}
	.st5{fill:url(#SVGID_4_);}
	.st6{fill:url(#SVGID_5_);}
	.st7{fill:url(#SVGID_6_);}
	.st8{fill:url(#SVGID_7_);}
	.st9{fill:#FFFFFF;}
	.st10{fill:none;stroke:#FFFFFF;stroke-width:1.1089;stroke-miterlimit:10;}
</style>
<g id="guias_borde">
</g>
<g id="guiasl_letras" class="st0">
	<line class="st1" x1="-7152.6" y1="282.8" x2="9230.4" y2="282.8"/>
	<line class="st1" x1="-7150.5" y1="341.4" x2="9232.5" y2="341.4"/>
	<line class="st1" x1="-7152.6" y1="285.1" x2="9230.4" y2="285.1"/>
	<line class="st1" x1="-7152.6" y1="327.2" x2="9230.4" y2="327.2"/>
</g>
<g id="Capa_2_1_">
	<g id="Capa_1-2_1_">
		
			<linearGradient id="SVGID_1_" gradientUnits="userSpaceOnUse" x1="139.371" y1="-1046.5925" x2="-7.0025" y2="-1000.5513" gradientTransform="matrix(1 0 0 -1 0 -965.8246)">
			<stop  offset="0" style="stop-color:#4C0C26"/>
			<stop  offset="0.54" style="stop-color:#BE1622"/>
			<stop  offset="1" style="stop-color:#E30613"/>
		</linearGradient>
		<path class="st2" d="M0,44.9h6.5c0.7,0,1.3-0.5,1.5-1.1l2.5-7.3l-5.6-6L0,44.9z"/>
		
			<linearGradient id="SVGID_2_" gradientUnits="userSpaceOnUse" x1="145.9194" y1="-1025.778" x2="-0.4541" y2="-979.7369" gradientTransform="matrix(1 0 0 -1 0 -965.8246)">
			<stop  offset="0" style="stop-color:#4C0C26"/>
			<stop  offset="0.54" style="stop-color:#BE1622"/>
			<stop  offset="1" style="stop-color:#E30613"/>
		</linearGradient>
		<path class="st3" d="M15.4,1.4l-2.2,5c-0.4,1-0.2,2,0.5,2.8l4.4,4.5c0,0,1.1-3.8,1.4-4.9c0.3,1,0.6,2,0.9,2.9s0.6,1.6,0.9,2.3
			L25,24.4l-7.5-8.2L9.6,7.7l-1.3,2.8c-1.5,3.2-1,7.1,1.6,9.7l9.9,10.3l12.6,13.3l0,0c0.2,0.2,0.3,0.4,0.5,0.5
			c0.5,0.4,1.1,0.6,1.7,0.5h6.3L23.6,1.4H15.4z"/>
		
			<linearGradient id="SVGID_3_" gradientUnits="userSpaceOnUse" x1="146.8943" y1="-1022.695" x2="0.5209" y2="-976.6539" gradientTransform="matrix(1 0 0 -1 0 -965.8246)">
			<stop  offset="0" style="stop-color:#4C0C26"/>
			<stop  offset="0.54" style="stop-color:#BE1622"/>
			<stop  offset="1" style="stop-color:#E30613"/>
		</linearGradient>
		<path class="st4" d="M62,14.4c-0.4,0.3-0.6,0.6-0.8,1l-6.1,16.5c-0.4,1-0.7,1.9-0.9,2.9c-0.3,1-0.5,1.8-0.7,2.8
			c-0.2-1-0.4-1.8-0.7-2.8s-0.5-1.9-0.9-2.9L46,15.4c-0.1-0.4-0.4-0.8-0.8-1c-0.4-0.3-0.9-0.4-1.4-0.4h-6.2l11.8,29.7
			c0.3,0.8,1,1.2,1.8,1.2h5.4l12.3-30.8h-5.8C62.8,14.1,62.3,14.2,62,14.4z"/>
		
			<linearGradient id="SVGID_4_" gradientUnits="userSpaceOnUse" x1="148.3526" y1="-1018.0399" x2="1.9792" y2="-971.9988" gradientTransform="matrix(1 0 0 -1 0 -965.8246)">
			<stop  offset="0" style="stop-color:#4C0C26"/>
			<stop  offset="0.54" style="stop-color:#BE1622"/>
			<stop  offset="1" style="stop-color:#E30613"/>
		</linearGradient>
		<path class="st5" d="M78.3,14.1h-4.8c-0.8,0-1.4,0.6-1.4,1.3l0,0V43c0,1,0.9,1.9,1.9,1.9l0,0h5.5V15.4
			C79.7,14.7,79.1,14.1,78.3,14.1z"/>
		
			<linearGradient id="SVGID_5_" gradientUnits="userSpaceOnUse" x1="150.9672" y1="-1009.7401" x2="4.5937" y2="-963.699" gradientTransform="matrix(1 0 0 -1 0 -965.8246)">
			<stop  offset="0" style="stop-color:#4C0C26"/>
			<stop  offset="0.54" style="stop-color:#BE1622"/>
			<stop  offset="1" style="stop-color:#E30613"/>
		</linearGradient>
		<path class="st6" d="M107,14.4c-0.4,0.3-0.6,0.6-0.8,1l-6.1,16.5c-0.4,1-0.7,1.9-0.9,2.9c-0.3,1-0.5,1.8-0.7,2.8
			c-0.2-1-0.4-1.8-0.7-2.8c-0.3-1-0.5-1.9-0.9-2.9l-6-16.5c-0.1-0.4-0.4-0.8-0.8-1c-0.4-0.3-1-0.4-1.4-0.4h-6.2l12,29.7
			c0.3,0.8,1,1.2,1.8,1.2h5.4L114,14h-5.9C107.8,14.1,107.4,14.2,107,14.4z"/>
		
			<linearGradient id="SVGID_6_" gradientUnits="userSpaceOnUse" x1="152.9088" y1="-1003.5693" x2="6.5353" y2="-957.5281" gradientTransform="matrix(1 0 0 -1 0 -965.8246)">
			<stop  offset="0" style="stop-color:#4C0C26"/>
			<stop  offset="0.54" style="stop-color:#BE1622"/>
			<stop  offset="1" style="stop-color:#E30613"/>
		</linearGradient>
		<path class="st7" d="M139.6,20.6c-0.5-1.4-1.2-2.7-2.2-3.8c-1-1-2.3-1.9-3.6-2.5c-1.5-0.6-3.2-1-4.9-0.9
			c-4.8-0.1-9.3,1.6-12.8,4.9l1.3,2.4c0.2,0.4,0.6,0.7,0.9,1c0.4,0.3,0.9,0.4,1.3,0.4c0.6,0,1.1-0.1,1.6-0.4l1.6-1
			c0.7-0.4,1.3-0.7,2.1-1c1-0.3,2-0.5,3-0.4c1.4-0.1,2.9,0.5,3.8,1.5c1,1.3,1.4,3,1.3,4.6v1.8c-2.1,0-4.2,0.2-6.3,0.5
			c-1.6,0.2-3.2,0.6-4.9,1.1c-1.2,0.4-2.4,1-3.5,1.6c-0.9,0.6-1.6,1.2-2.3,2c-0.6,0.7-1,1.4-1.3,2.2s-0.4,1.5-0.4,2.3
			c0,1.2,0.2,2.5,0.7,3.6c0.4,1,1,1.9,1.9,2.7s1.8,1.2,2.9,1.6c1.1,0.4,2.4,0.6,3.6,0.6c1,0,2-0.1,3-0.3c0.9-0.2,1.7-0.5,2.6-0.9
			s1.6-0.9,2.3-1.3c0.8-0.6,1.5-1.1,2.3-1.8l0.7,2.2c0.1,0.6,0.5,1,1,1.3c0.5,0.2,1,0.4,1.6,0.3h3.4V25.5
			C140.5,23.8,140.2,22.1,139.6,20.6z M133.2,37c-1,1-2,1.9-3.2,2.5s-2.6,0.9-4,0.9c-1,0.1-2.1-0.3-3-0.9c-0.9-0.7-1.2-1.7-1.1-2.8
			c0-0.7,0.2-1.3,0.6-1.8c0.5-0.7,1.1-1.1,1.9-1.4c1.1-0.5,2.3-0.9,3.5-1c1.8-0.3,3.6-0.5,5.4-0.6L133.2,37z"/>
		
			<linearGradient id="SVGID_7_" gradientUnits="userSpaceOnUse" x1="141.9459" y1="-1038.411" x2="-4.4276" y2="-992.3698" gradientTransform="matrix(1 0 0 -1 0 -965.8246)">
			<stop  offset="0" style="stop-color:#4C0C26"/>
			<stop  offset="0.54" style="stop-color:#BE1622"/>
			<stop  offset="1" style="stop-color:#E30613"/>
		</linearGradient>
		<path class="st8" d="M6.3,20.3l-1,2.1c-1,2.4-0.6,5.2,1.3,7l14.2,14.7l1.3-4.7c0.4-1.2,0-2.6-0.9-3.5L6.3,20.3z"/>
		<path class="st9" d="M178.5,24.8V14.1h7v1.1h-5.7v3.4h5.5v1.2h-5.5v3.7h5.7v1.2L178.5,24.8z"/>
		<path class="st9" d="M187.6,22.9c0.7,0.7,1.6,1.1,2.6,1.1c1.1,0,1.8-0.6,1.8-1.3c0-0.8-1-1.1-2-1.4c-1.3-0.3-2.9-0.7-2.9-2.2
			c0-1.2,1-2.2,2.9-2.2c1,0,2.1,0.4,2.9,1.1l-0.6,0.9c-0.6-0.7-1.4-1-2.3-1c-1.1,0-1.7,0.5-1.7,1.1s0.9,1,1.9,1.2
			c1.3,0.3,3,0.7,3,2.4c0,1.3-1,2.4-3,2.4c-1.1,0.1-2.3-0.4-3.1-1.2L187.6,22.9z"/>
		<path class="st9" d="M198.5,16.8c1.1,0,2.2,0.5,2.9,1.4l-0.8,0.8c-0.5-0.7-1.2-1-2-1c-1.5,0-2.8,1.2-2.7,2.8c0,0.1,0,0.2,0,0.3
			c-0.2,1.5,1,2.9,2.4,3c0.1,0,0.2,0,0.3,0c0.8,0,1.5-0.4,2-1l0.8,0.8c-0.7,0.9-1.7,1.4-2.9,1.3c-2.3,0-4.1-1.8-4.1-4.1
			S196.3,16.9,198.5,16.8L198.5,16.8z"/>
		<path class="st9" d="M208.4,24.8v-1.1c-0.7,0.8-1.7,1.2-2.8,1.3c-1.2,0.1-2.3-0.8-2.5-2c0-0.2,0-0.4,0-0.5V17h1.2v5.1
			c0,1.3,0.7,1.8,1.7,1.8c0.9,0,1.7-0.5,2.3-1.1v-5.7h1.2v7.8L208.4,24.8z"/>
		<path class="st9" d="M215.3,16.8c2.4,0,3.7,1.8,3.7,4.2v0.3h-6.3c0,1.5,1.2,2.8,2.8,2.7l0,0c0.9,0,1.8-0.4,2.4-1l0.6,0.8
			c-0.9,0.8-1.9,1.2-3.1,1.1c-2.3,0-4.1-1.8-4.2-4C211.3,18.7,213,16.8,215.3,16.8L215.3,16.8z M212.8,20.4h5.1
			c0.1-1.4-1-2.6-2.4-2.7c-0.1,0-0.1,0-0.2,0C213.9,17.9,212.7,19,212.8,20.4z"/>
		<path class="st9" d="M221,24.8V14.1h1.2v10.8H221V24.8z"/>
		<path class="st9" d="M229.5,24.8V24c-0.7,0.8-1.6,1.1-2.6,1.1c-1.4,0.1-2.7-1-2.8-2.4c0-0.1,0-0.1,0-0.2c0-1.4,1.1-2.6,2.6-2.6
			c0.1,0,0.1,0,0.2,0c1-0.1,1.9,0.4,2.6,1v-1.5c0-1-0.9-1.6-2-1.6c-1,0-1.8,0.4-2.4,1.1l-0.6-0.9c0.8-0.9,1.9-1.3,3.1-1.3
			c1.6,0,3,0.8,3,2.6v5.3L229.5,24.8z M229.5,21.7c-0.5-0.7-1.3-1-2.1-1c-1-0.1-1.8,0.6-1.9,1.4c-0.1,1,0.6,1.8,1.4,1.9
			c0.2,0,0.3,0,0.5,0c0.9,0,1.6-0.3,2.1-1V21.7z"/>
		<path class="st9" d="M242.9,24.8v-1.1c-0.6,0.9-1.6,1.3-2.7,1.3c-2,0-3.4-1.5-3.4-4.1s1.4-4.1,3.4-4.1c1,0,2,0.6,2.7,1.4V14h1.2
			v10.8C244.1,24.8,242.9,24.8,242.9,24.8z M242.9,19.2c-0.6-0.8-1.4-1.2-2.4-1.2c-1.5,0-2.5,1.3-2.5,3s1,3,2.5,3
			c1,0,1.8-0.5,2.4-1.2V19.2z"/>
		<path class="st9" d="M249.9,16.8c2.4,0,3.7,1.8,3.7,4.2v0.3h-6.3c0,1.5,1.2,2.8,2.8,2.7l0,0c0.9,0,1.7-0.4,2.4-1l0.6,0.8
			c-0.9,0.8-1.9,1.2-3.1,1.1c-2.3,0-4.1-1.8-4.2-4S247.7,16.8,249.9,16.8L249.9,16.8z M247.4,20.4h5.1c0-1.4-1-2.6-2.5-2.6h-0.1
			C248.5,17.9,247.4,19,247.4,20.4z"/>
		<path class="st9" d="M263.3,16.8c1.1,0,2.2,0.5,2.9,1.4l-0.8,0.8c-0.5-0.7-1.2-1-2-1c-1.5,0-2.8,1.2-2.7,2.8c0,0.1,0,0.2,0,0.3
			c-0.2,1.5,1,2.9,2.4,3c0.1,0,0.2,0,0.3,0c0.8,0,1.5-0.4,2-1l0.8,0.8c-0.7,0.9-1.7,1.4-2.9,1.3c-2.3,0-4.1-1.8-4.1-4.1
			S261,16.9,263.3,16.8L263.3,16.8z"/>
		<path class="st9" d="M272.6,24.8V24c-0.7,0.8-1.6,1.1-2.6,1.1c-1.4,0.1-2.7-1-2.8-2.5v-0.1c0-1.4,1.1-2.6,2.5-2.6
			c0.1,0,0.1,0,0.2,0c1,0,1.9,0.4,2.6,1v-1.5c0-1-0.9-1.6-2-1.6c-1,0-1.8,0.4-2.4,1.1l-0.6-0.9c0.8-0.9,1.9-1.3,3.1-1.3
			c1.6,0,3,0.8,3,2.6v5.3L272.6,24.8z M272.6,21.7c-0.5-0.7-1.3-1-2.1-1c-1-0.1-1.8,0.6-1.9,1.4c-0.1,1,0.6,1.8,1.4,1.9
			c0.2,0,0.3,0,0.5,0c0.9,0,1.6-0.3,2.1-1V21.7z"/>
		<path class="st9" d="M277.5,27.8h-1.1V17h1.2v1.2c0.6-0.9,1.6-1.3,2.7-1.3c2,0,3.4,1.5,3.4,4.1s-1.4,4.1-3.4,4.1
			c-1,0-2-0.5-2.7-1.3L277.5,27.8z M279.8,17.9c-1,0-1.8,0.5-2.3,1.2v3.5c0.5,0.8,1.4,1.2,2.3,1.2c1.5,0,2.5-1.3,2.5-3
			S281.4,17.9,279.8,17.9z"/>
		<path class="st9" d="M290.4,24.8V24c-0.7,0.8-1.6,1.1-2.6,1.1c-1.4,0.1-2.7-1-2.8-2.5v-0.1c0-1.4,1.1-2.6,2.5-2.6
			c0.1,0,0.1,0,0.2,0c1,0,1.9,0.4,2.6,1v-1.5c0-1-0.9-1.6-2-1.6c-1,0-1.8,0.4-2.4,1.1l-0.6-0.9c0.8-0.9,1.9-1.3,3.1-1.3
			c1.6,0,3,0.8,3,2.6v5.3L290.4,24.8z M290.4,21.7c-0.6-0.7-1.3-1-2.2-1c-1-0.1-1.8,0.7-1.8,1.5c-0.1,1,0.7,1.8,1.5,1.8
			c0.1,0,0.2,0,0.3,0c0.9,0,1.6-0.3,2.2-1V21.7z"/>
		<path class="st9" d="M297.4,16.8c1.1,0,2.2,0.5,2.9,1.4l-0.8,0.8c-0.5-0.7-1.2-1-2-1c-1.5,0-2.8,1.2-2.7,2.8c0,0.1,0,0.2,0,0.3
			c-0.2,1.5,1,2.9,2.4,3c0.1,0,0.2,0,0.3,0c0.8,0,1.5-0.4,2-1l0.8,0.8c-0.7,0.9-1.7,1.4-2.9,1.3c-2.3,0-4.1-1.8-4.1-4.1
			S295.2,16.9,297.4,16.8L297.4,16.8z"/>
		<path class="st9" d="M301.8,14.9c0-0.5,0.4-0.8,0.9-0.8s0.9,0.4,0.9,0.8l0,0c0,0.5-0.4,0.9-0.9,0.9
			C302.2,15.7,301.8,15.4,301.8,14.9z M302,24.8V17h1.2v7.8H302z"/>
		<path class="st9" d="M305.8,23.2v-5h-1.3V17h1.3v-2.1h1.2V17h1.6v1.1H307V23c0,0.6,0.3,1,0.8,1c0.3,0,0.6-0.1,0.9-0.3l0.4,0.9
			c-0.4,0.4-1,0.6-1.4,0.5c-0.9,0.1-1.6-0.6-1.7-1.4C305.8,23.5,305.8,23.3,305.8,23.2z"/>
		<path class="st9" d="M315.2,24.8V24c-0.7,0.8-1.6,1.1-2.6,1.1c-1.4,0.1-2.7-1-2.8-2.5v-0.1c0-1.4,1.1-2.6,2.5-2.6
			c0.1,0,0.1,0,0.2,0c1,0,1.9,0.4,2.6,1v-1.5c0-1-0.9-1.6-2-1.6c-1,0-1.8,0.4-2.4,1.1l-0.6-0.9c0.8-0.9,1.9-1.3,3.1-1.3
			c1.6,0,3,0.8,3,2.6v5.3L315.2,24.8z M315.2,21.7c-0.5-0.7-1.3-1-2.1-1c-1-0.1-1.8,0.6-1.9,1.4c-0.1,1,0.6,1.8,1.4,1.9
			c0.2,0,0.3,0,0.5,0c0.9,0,1.6-0.3,2.1-1V21.7z"/>
		<path class="st9" d="M322.3,16.8c1.1,0,2.2,0.5,2.9,1.4l-0.8,0.8c-0.5-0.7-1.2-1-2-1c-1.5,0-2.8,1.2-2.7,2.8c0,0.1,0,0.2,0,0.3
			c-0.2,1.5,1,2.9,2.4,3c0.1,0,0.2,0,0.3,0c0.8,0,1.5-0.4,2-1l0.8,0.8c-0.7,0.9-1.7,1.4-2.9,1.3c-2.3,0-4.1-1.8-4.1-4.1
			S320,16.9,322.3,16.8L322.3,16.8z"/>
		<path class="st9" d="M326.6,14.9c0.1-0.5,0.5-0.8,1-0.8c0.4,0,0.7,0.4,0.8,0.8c0.1,0.5-0.3,0.9-0.8,1s-0.9-0.3-1-0.8
			C326.6,15,326.6,15,326.6,14.9z M326.9,24.8V17h1.2v7.8H326.9z"/>
		<path class="st9" d="M330,20.9c-0.1-2.1,1.5-3.9,3.6-4.1s3.9,1.5,4.1,3.6c0,0.1,0,0.3,0,0.4c0.1,2.1-1.5,3.9-3.6,4.1
			s-3.9-1.5-4.1-3.6C330,21.2,330,21,330,20.9z M336.4,20.9c0.2-1.4-0.8-2.8-2.2-3c-1.4-0.2-2.8,0.8-3,2.2c0,0.3,0,0.6,0,0.9
			c-0.2,1.4,0.8,2.8,2.2,3c1.4,0.2,2.8-0.8,3-2.2C336.5,21.5,336.5,21.2,336.4,20.9z M334.3,15.9h-1l2.4-2.3h1.2L334.3,15.9z"/>
		<path class="st9" d="M344.9,24.8v-5c0-1.3-0.7-1.8-1.7-1.8s-1.8,0.5-2.3,1.2v5.7h-1.2v-7.8h1.2v1.1c0.7-0.8,1.7-1.2,2.8-1.3
			c1.2-0.2,2.4,0.7,2.6,1.9c0,0.2,0,0.5,0,0.7v5.4L344.9,24.8z"/>
		<path class="st9" d="M178.2,46c0.2,0.1,0.5,0.1,0.7,0.1c0.6,0,1-0.3,1.1-0.9l0.5-1.1l-3.2-7.9h1.3l2.6,6.4l2.6-6.4h1.3l-3.9,9.3
			c-0.3,1-1.2,1.6-2.3,1.6c-0.3,0-0.6,0-0.9-0.1L178.2,46z"/>
		<path class="st9" d="M193.9,36.1c2.4,0,3.7,1.8,3.7,4.2v0.3h-6.3c0,1.5,1.3,2.8,2.8,2.7l0,0c0.9,0,1.8-0.4,2.4-1l0.6,0.8
			c-0.9,0.8-1.9,1.2-3.1,1.2c-2.3-0.1-4-2-4-4.2C190.2,38,191.8,36.3,193.9,36.1L193.9,36.1z M191.3,39.8h5.1c0-1.4-1-2.6-2.5-2.6
			h-0.1C192.5,37.2,191.3,38.3,191.3,39.8z"/>
		<path class="st9" d="M204.8,44.1v-5c0-1.3-0.7-1.8-1.7-1.8s-1.8,0.5-2.3,1.2v5.7h-1.2v-7.8h1.2v1.1c0.7-0.8,1.7-1.2,2.8-1.3
			c1.2-0.2,2.3,0.7,2.5,1.9c0,0.2,0,0.4,0,0.6v5.4C206.1,44.1,204.8,44.1,204.8,44.1z"/>
		<path class="st9" d="M208.6,42.5v-5h-1.3v-1.1h1.3v-2.1h1.2v2.1h1.6v1.1h-1.6v4.9c0,0.6,0.3,1,0.8,1c0.3,0,0.6-0.1,0.9-0.3l0.4,1
			c-0.4,0.4-1,0.6-1.4,0.5c-0.9,0.1-1.6-0.6-1.7-1.4C208.6,42.8,208.6,42.6,208.6,42.5z"/>
		<path class="st9" d="M213.2,44.1v-7.8h1.2v1.2c0.6-0.9,1.5-1.3,2.6-1.4v1.2c-0.2,0-0.3,0-0.5,0c-0.9,0.1-1.6,0.6-2.1,1.2v5.6
			H213.2z"/>
		<path class="st9" d="M221.9,36.1c2.4,0,3.7,1.8,3.7,4.2v0.3h-6.3c0,1.5,1.2,2.8,2.8,2.7l0,0c0.9,0,1.8-0.4,2.4-1l0.6,0.8
			c-0.9,0.9-2,1.2-3.1,1.2c-2.3-0.1-4-2-3.9-4.2C218.1,37.9,219.8,36.3,221.9,36.1L221.9,36.1z M219.3,39.8h5.1c0-1.4-1-2.6-2.5-2.6
			h-0.1C220.4,37.2,219.3,38.3,219.3,39.8z"/>
		<path class="st9" d="M232.8,44.1v-5c0-1.3-0.7-1.8-1.7-1.8s-1.7,0.5-2.3,1.2v5.7h-1.2v-7.8h1.2v1.1c0.7-0.8,1.7-1.2,2.8-1.3
			c1.2-0.2,2.3,0.7,2.5,1.9c0,0.2,0,0.4,0,0.6v5.4C234,44.1,232.8,44.1,232.8,44.1z"/>
		<path class="st9" d="M241.3,44.1v-0.9c-0.7,0.8-1.6,1.1-2.6,1.1c-1.4,0.1-2.7-1-2.8-2.5v-0.1c0-1.4,1.1-2.6,2.5-2.6
			c0.1,0,0.1,0,0.2,0c1,0,1.9,0.4,2.6,1.1V39c0-1.1-0.9-1.6-2-1.6c-1,0-1.8,0.4-2.4,1.1l-0.6-0.9c0.8-0.9,1.9-1.3,3.1-1.3
			c1.6,0,3,0.8,3,2.7v5.3L241.3,44.1z M241.3,41c-0.5-0.7-1.3-1-2.1-1c-1-0.1-1.8,0.6-1.9,1.5c-0.1,1,0.6,1.8,1.5,1.9
			c0.1,0,0.3,0,0.4,0c0.9,0,1.6-0.3,2.1-1V41z"/>
		<path class="st9" d="M254.3,44.1v-5.2c0-1-0.5-1.6-1.4-1.6s-1.6,0.5-2.1,1.1v5.7h-1.1v-5.2c0-1-0.4-1.6-1.4-1.6
			c-0.9,0.1-1.6,0.5-2,1.2v5.7H245v-7.8h1.2v1.1c0.6-0.8,1.5-1.2,2.5-1.3s1.8,0.6,2.1,1.4c0.6-0.9,1.5-1.4,2.6-1.4
			c1.4,0,2.2,0.8,2.2,2.4v5.6L254.3,44.1L254.3,44.1z"/>
		<path class="st9" d="M257.7,34.2c0-0.5,0.4-0.9,0.9-0.9s0.9,0.4,0.9,0.9s-0.4,0.9-0.9,0.9l0,0C258.1,35,257.7,34.7,257.7,34.2z
			 M257.9,44.1v-7.8h1.2v7.8H257.9z"/>
		<path class="st9" d="M265,36.1c2.4,0,3.7,1.8,3.7,4.2v0.3h-6.3c0,1.5,1.3,2.8,2.8,2.7l0,0c0.9,0,1.8-0.4,2.4-1l0.6,0.8
			c-0.9,0.8-1.9,1.2-3.1,1.2c-2.3-0.1-4-2-4-4.2C261.2,38,262.9,36.3,265,36.1z M262.4,39.8h5.1c0-1.4-1-2.6-2.5-2.6l0,0
			C263.6,37.2,262.4,38.3,262.4,39.8z"/>
		<path class="st9" d="M275.9,44.1v-5c0-1.3-0.7-1.8-1.7-1.8s-1.8,0.5-2.3,1.2v5.7h-1.2v-7.8h1.2v1.1c0.7-0.8,1.7-1.2,2.8-1.3
			c1.2-0.2,2.3,0.7,2.5,1.9c0,0.2,0,0.4,0,0.6v5.4C277.2,44.1,275.9,44.1,275.9,44.1z"/>
		<path class="st9" d="M279.7,42.5v-5h-1.2v-1.1h1.3v-2.1h1.2v2.1h1.6v1.1H281v4.9c0,0.6,0.3,1,0.8,1c0.3,0,0.6-0.1,0.9-0.3l0.4,1
			c-0.4,0.4-1,0.6-1.4,0.5c-0.9,0.1-1.6-0.5-1.8-1.4C279.7,42.8,279.7,42.7,279.7,42.5z"/>
		<path class="st9" d="M283.8,40.2c0.1-2.1,2-3.7,4.1-3.6c2.1,0.1,3.7,2,3.6,4.1c-0.1,2-1.8,3.6-3.9,3.6s-3.8-1.6-3.9-3.8
			C283.8,40.4,283.8,40.3,283.8,40.2z M290.2,40.2c-0.2-1.4-1.5-2.4-3-2.2s-2.4,1.5-2.2,3c0.2,1.2,1.3,2.2,2.6,2.2
			C289.2,43.1,290.3,41.9,290.2,40.2C290.3,40.3,290.3,40.3,290.2,40.2z"/>
		<path class="st9" d="M307.1,44.1v-5.2c0-1-0.5-1.6-1.4-1.6c-0.9,0.1-1.6,0.5-2.1,1.1v5.7h-1.2v-5.2c0-1-0.4-1.6-1.4-1.6
			c-0.9,0.1-1.6,0.5-2,1.2v5.7h-1.2v-7.8h1.2v1.1c0.6-0.8,1.5-1.2,2.5-1.3s1.8,0.6,2.1,1.4c0.6-0.9,1.5-1.4,2.6-1.4
			c1.4,0,2.2,0.8,2.2,2.4v5.6L307.1,44.1L307.1,44.1z"/>
		<path class="st9" d="M310.5,34.2c0-0.5,0.4-0.9,0.9-0.9s0.9,0.4,0.9,0.9s-0.4,0.9-0.9,0.9l0,0C310.9,35,310.5,34.7,310.5,34.2z
			 M310.7,44.1v-7.8h1.2v7.8H310.7z"/>
		<path class="st9" d="M319.5,44.1v-5c0-1.3-0.7-1.8-1.7-1.8s-1.8,0.5-2.3,1.2v5.7h-1.2v-7.8h1.2v1.1c0.7-0.8,1.7-1.2,2.8-1.3
			c1.2-0.2,2.3,0.7,2.5,1.9c0,0.2,0,0.4,0,0.6v5.4C320.8,44.1,319.5,44.1,319.5,44.1z"/>
		<path class="st9" d="M322.9,34.2c0-0.5,0.4-0.8,0.8-0.9c0.5,0,0.9,0.4,0.9,0.9l0,0c0,0.5-0.4,0.9-0.9,0.9
			C323.3,35,322.9,34.7,322.9,34.2L322.9,34.2z M323.1,44.1v-7.8h1.2v7.8H323.1z"/>
		<path class="st9" d="M326.8,42.2c0.7,0.7,1.6,1.1,2.6,1.1c1.2,0,1.8-0.6,1.8-1.3c0-0.8-1-1.1-2-1.4c-1.3-0.3-2.9-0.7-2.9-2.2
			c0-1.2,1-2.2,2.9-2.2c1,0,2.1,0.4,2.9,1.1l-0.6,0.9c-0.6-0.7-1.4-1-2.3-1c-1.1,0-1.7,0.5-1.7,1.1c0,0.7,0.9,1,1.9,1.2
			c1.3,0.3,3,0.7,3,2.4c0,1.3-1,2.4-3,2.4c-1.1,0.1-2.3-0.4-3.1-1.2L326.8,42.2z"/>
		<path class="st9" d="M334.6,42.5v-5h-1.3v-1.1h1.3v-2.1h1.2v2.1h1.5v1.1h-1.5v4.9c0,0.6,0.3,1,0.8,1c0.3,0,0.6-0.1,0.9-0.3l0.4,1
			c-0.4,0.4-1,0.6-1.4,0.5c-0.9,0.1-1.6-0.6-1.7-1.4C334.5,42.8,334.5,42.6,334.6,42.5z"/>
		<path class="st9" d="M342.5,36.1c2.4,0,3.7,1.8,3.7,4.2v0.3h-6.3c0,1.5,1.2,2.8,2.8,2.7l0,0c0.9,0,1.8-0.4,2.4-1l0.6,0.8
			c-0.9,0.8-1.9,1.2-3.1,1.2c-2.3-0.1-4-2-3.9-4.2C338.7,37.9,340.3,36.3,342.5,36.1z M339.9,39.8h5.1c0-1.4-1-2.6-2.5-2.6h-0.1
			C340.9,37.2,339.9,38.3,339.9,39.8z"/>
		<path class="st9" d="M348.1,44.1v-7.8h1.2v1.2c0.6-0.9,1.5-1.3,2.6-1.4v1.2c-0.2,0-0.3,0-0.5,0c-0.9,0.1-1.6,0.6-2.1,1.2v5.6
			H348.1z"/>
		<path class="st9" d="M353.2,34.2c0-0.5,0.4-0.9,0.9-0.9s0.9,0.4,0.9,0.9s-0.4,0.9-0.9,0.9l0,0C353.6,35,353.2,34.7,353.2,34.2z
			 M353.4,44.1v-7.8h1.2v7.8H353.4z"/>
		<path class="st9" d="M361.9,44.1v-0.9c-0.7,0.8-1.6,1.1-2.6,1.1c-1.4,0.1-2.7-1-2.8-2.5v-0.1c0-1.4,1.1-2.6,2.5-2.6
			c0.1,0,0.1,0,0.2,0c1,0,1.9,0.4,2.6,1.1V39c0-1.1-0.9-1.6-2-1.6c-1,0-1.8,0.4-2.4,1.1l-0.6-0.9c0.8-0.9,1.9-1.3,3.1-1.3
			c1.6,0,3,0.8,3,2.7v5.3L361.9,44.1z M361.9,41c-0.5-0.7-1.3-1-2.1-1c-1-0.1-1.8,0.6-1.9,1.5c-0.1,1,0.6,1.8,1.5,1.9
			c0.1,0,0.3,0,0.4,0c0.9,0,1.6-0.3,2.1-1V41z"/>
		<path class="st9" d="M365.5,44.1V33.4h1.2v10.8C366.7,44.1,365.5,44.1,365.5,44.1z"/>
		<line class="st10" x1="159.3" y1="2.4" x2="159.3" y2="56.7"/>
	</g>
</g>
</svg>
