<?xml version="1.0" encoding="utf-8"?>
<!-- Generator: Adobe Illustrator 24.1.3, SVG Export Plug-In . SVG Version: 6.00 Build 0)  -->
<svg version="1.1" id="Capa_1" xmlns="http://www.w3.org/2000/svg" xmlns:xlink="http://www.w3.org/1999/xlink" x="0px" y="0px"
	 viewBox="0 0 394.3 58.1" style="enable-background:new 0 0 394.3 58.1;" xml:space="preserve">
<style type="text/css">
	.st0{display:none;}
	.st1{display:inline;fill:none;}
	.st2{fill:url(#SVGID_1_);}
	.st3{fill:url(#SVGID_2_);}
	.st4{fill:url(#SVGID_3_);}
	.st5{fill:url(#SVGID_4_);}
	.st6{fill:url(#SVGID_5_);}
	.st7{fill:url(#SVGID_6_);}
	.st8{fill:url(#SVGID_7_);}
	.st9{fill:#616160;}
	.st10{fill:none;stroke:#616160;stroke-width:1.1089;stroke-miterlimit:10;}
</style>
<g id="guias_borde">
</g>
<g id="guiasl_letras" class="st0">
	<line class="st1" x1="-7125" y1="282.8" x2="9258" y2="282.8"/>
	<line class="st1" x1="-7122.9" y1="341.4" x2="9260.1" y2="341.4"/>
	<line class="st1" x1="-7125" y1="285.1" x2="9258" y2="285.1"/>
	<line class="st1" x1="-7125" y1="327.2" x2="9258" y2="327.2"/>
</g>
<g id="Capa_2_1_">
	<g id="Capa_1-2_1_">
		
			<linearGradient id="SVGID_1_" gradientUnits="userSpaceOnUse" x1="166.948" y1="1106.5662" x2="20.5745" y2="1060.525" gradientTransform="matrix(1 0 0 1 0 -1025.8246)">
			<stop  offset="0" style="stop-color:#4C0C26"/>
			<stop  offset="0.54" style="stop-color:#BE1622"/>
			<stop  offset="1" style="stop-color:#E30613"/>
		</linearGradient>
		<path class="st2" d="M27.6,44.9H34c0.7,0,1.3-0.5,1.5-1.1l2.5-7.3l-5.6-6L27.6,44.9z"/>
		
			<linearGradient id="SVGID_2_" gradientUnits="userSpaceOnUse" x1="173.4986" y1="1085.7448" x2="27.1251" y2="1039.7036" gradientTransform="matrix(1 0 0 1 0 -1025.8246)">
			<stop  offset="0" style="stop-color:#4C0C26"/>
			<stop  offset="0.54" style="stop-color:#BE1622"/>
			<stop  offset="1" style="stop-color:#E30613"/>
		</linearGradient>
		<path class="st3" d="M43,1.4l-2.2,5c-0.4,1-0.2,2,0.5,2.8l4.4,4.5c0,0,1.1-3.8,1.4-4.9c0.3,1,0.6,2,0.9,2.9
			c0.3,0.9,0.6,1.6,0.9,2.3l3.8,10.5l-7.5-8.2l-7.9-8.6l-1.3,2.8c-1.5,3.2-1,7.1,1.6,9.7l9.9,10.3l12.6,13.3l0,0
			c0.2,0.2,0.3,0.4,0.5,0.5c0.5,0.4,1.1,0.6,1.7,0.5h6.3L51.2,1.4H43z"/>
		
			<linearGradient id="SVGID_3_" gradientUnits="userSpaceOnUse" x1="174.4605" y1="1082.703" x2="28.0871" y2="1036.6619" gradientTransform="matrix(1 0 0 1 0 -1025.8246)">
			<stop  offset="0" style="stop-color:#4C0C26"/>
			<stop  offset="0.54" style="stop-color:#BE1622"/>
			<stop  offset="1" style="stop-color:#E30613"/>
		</linearGradient>
		<path class="st4" d="M89.5,14.4c-0.4,0.3-0.6,0.6-0.8,1l-6.1,16.5c-0.4,1-0.7,1.9-0.9,2.9c-0.3,1-0.5,1.8-0.7,2.8
			c-0.2-1-0.4-1.8-0.7-2.8c-0.3-1-0.5-1.9-0.9-2.9l-5.9-16.5c-0.1-0.4-0.4-0.8-0.8-1c-0.4-0.3-0.9-0.4-1.4-0.4h-6.2l11.8,29.7
			c0.3,0.8,1,1.2,1.8,1.2h5.4l12.3-30.8h-5.8C90.4,14.1,89.9,14.2,89.5,14.4z"/>
		
			<linearGradient id="SVGID_4_" gradientUnits="userSpaceOnUse" x1="175.9283" y1="1078.0177" x2="29.5548" y2="1031.9767" gradientTransform="matrix(1 0 0 1 0 -1025.8246)">
			<stop  offset="0" style="stop-color:#4C0C26"/>
			<stop  offset="0.54" style="stop-color:#BE1622"/>
			<stop  offset="1" style="stop-color:#E30613"/>
		</linearGradient>
		<path class="st5" d="M105.9,14.1h-4.8c-0.8,0-1.4,0.6-1.4,1.3l0,0V43c0,1,0.9,1.9,1.9,1.9l0,0h5.5V15.4
			C107.2,14.7,106.7,14.1,105.9,14.1z"/>
		
			<linearGradient id="SVGID_5_" gradientUnits="userSpaceOnUse" x1="178.5341" y1="1069.7457" x2="32.1606" y2="1023.7047" gradientTransform="matrix(1 0 0 1 0 -1025.8246)">
			<stop  offset="0" style="stop-color:#4C0C26"/>
			<stop  offset="0.54" style="stop-color:#BE1622"/>
			<stop  offset="1" style="stop-color:#E30613"/>
		</linearGradient>
		<path class="st6" d="M134.6,14.4c-0.4,0.3-0.6,0.6-0.8,1l-6.1,16.5c-0.4,1-0.7,1.9-0.9,2.9c-0.3,1-0.5,1.8-0.7,2.8
			c-0.2-1-0.4-1.8-0.7-2.8c-0.3-1-0.5-1.9-0.9-2.9l-6-16.5c-0.1-0.4-0.4-0.8-0.8-1c-0.4-0.3-1-0.4-1.4-0.4h-6.2l12,29.7
			c0.3,0.8,1,1.2,1.8,1.2h5.4l12.3-30.9h-5.9C135.4,14.1,134.9,14.2,134.6,14.4z"/>
		
			<linearGradient id="SVGID_6_" gradientUnits="userSpaceOnUse" x1="180.4579" y1="1063.6317" x2="34.0844" y2="1017.5906" gradientTransform="matrix(1 0 0 1 0 -1025.8246)">
			<stop  offset="0" style="stop-color:#4C0C26"/>
			<stop  offset="0.54" style="stop-color:#BE1622"/>
			<stop  offset="1" style="stop-color:#E30613"/>
		</linearGradient>
		<path class="st7" d="M167.2,20.6c-0.5-1.4-1.2-2.7-2.2-3.8c-1-1-2.3-1.9-3.6-2.5c-1.5-0.6-3.2-1-4.9-0.9
			c-4.8-0.1-9.3,1.6-12.8,4.9l1.3,2.4c0.2,0.4,0.6,0.7,0.9,1c0.4,0.3,0.9,0.4,1.3,0.4c0.6,0,1.1-0.1,1.6-0.4l1.6-1
			c0.7-0.4,1.3-0.7,2.1-1c1-0.3,2-0.5,3-0.4c1.4-0.1,2.9,0.5,3.8,1.5c1,1.3,1.4,3,1.3,4.6v1.8c-2.1,0-4.2,0.2-6.3,0.5
			c-1.6,0.2-3.2,0.6-4.9,1.1c-1.2,0.4-2.4,1-3.5,1.6c-0.9,0.6-1.6,1.2-2.3,2c-0.6,0.7-1,1.4-1.3,2.2c-0.3,0.8-0.4,1.5-0.4,2.3
			c0,1.2,0.2,2.5,0.7,3.6c0.4,1,1,1.9,1.9,2.7s1.8,1.2,2.9,1.6c1.1,0.4,2.4,0.6,3.6,0.6c1,0,2-0.1,3-0.3c0.9-0.2,1.7-0.5,2.6-0.9
			c0.9-0.4,1.6-0.9,2.3-1.3c0.8-0.6,1.5-1.1,2.3-1.8l0.7,2.2c0.1,0.6,0.5,1,1,1.3c0.5,0.2,1,0.4,1.6,0.3h3.4V25.5
			C168.1,23.8,167.8,22.1,167.2,20.6z M160.7,37c-1,1-2,1.9-3.2,2.5c-1.2,0.6-2.6,0.9-4,0.9c-1,0.1-2.1-0.3-3-0.9
			c-0.9-0.7-1.2-1.7-1.1-2.8c0-0.7,0.2-1.3,0.6-1.8c0.5-0.7,1.1-1.1,1.9-1.4c1.1-0.5,2.3-0.9,3.5-1c1.8-0.3,3.6-0.5,5.4-0.6
			L160.7,37z"/>
		
			<linearGradient id="SVGID_7_" gradientUnits="userSpaceOnUse" x1="169.5047" y1="1098.4423" x2="23.1312" y2="1052.4011" gradientTransform="matrix(1 0 0 1 0 -1025.8246)">
			<stop  offset="0" style="stop-color:#4C0C26"/>
			<stop  offset="0.54" style="stop-color:#BE1622"/>
			<stop  offset="1" style="stop-color:#E30613"/>
		</linearGradient>
		<path class="st8" d="M33.9,20.3l-1,2.1c-1,2.4-0.6,5.2,1.3,7l14.2,14.7l1.3-4.7c0.4-1.2,0-2.6-0.9-3.5L33.9,20.3z"/>
		<path class="st9" d="M206,24.8V14.1h7v1.1h-5.7v3.4h5.5v1.2h-5.5v3.7h5.7v1.2L206,24.8z"/>
		<path class="st9" d="M215.2,22.9c0.7,0.7,1.6,1.1,2.6,1.1c1.1,0,1.8-0.6,1.8-1.3c0-0.8-1-1.1-2-1.4c-1.3-0.3-2.9-0.7-2.9-2.2
			c0-1.2,1-2.2,2.9-2.2c1,0,2.1,0.4,2.9,1.1l-0.6,0.9c-0.6-0.7-1.4-1-2.3-1c-1.1,0-1.7,0.5-1.7,1.1s0.9,1,1.9,1.2
			c1.3,0.3,3,0.7,3,2.4c0,1.3-1,2.4-3,2.4c-1.1,0.1-2.3-0.4-3.1-1.2L215.2,22.9z"/>
		<path class="st9" d="M226.1,16.8c1.1,0,2.2,0.5,2.9,1.4l-0.8,0.8c-0.5-0.7-1.2-1-2-1c-1.5,0-2.8,1.2-2.7,2.8c0,0.1,0,0.2,0,0.3
			c-0.2,1.5,1,2.9,2.4,3c0.1,0,0.2,0,0.3,0c0.8,0,1.5-0.4,2-1l0.8,0.8c-0.7,0.9-1.7,1.4-2.9,1.3c-2.3,0-4.1-1.8-4.1-4.1
			S223.8,16.9,226.1,16.8L226.1,16.8z"/>
		<path class="st9" d="M235.9,24.8v-1.1c-0.7,0.8-1.7,1.2-2.8,1.3c-1.2,0.1-2.3-0.8-2.5-2c0-0.2,0-0.4,0-0.5V17h1.2v5.1
			c0,1.3,0.7,1.8,1.7,1.8c0.9,0,1.7-0.5,2.3-1.1v-5.7h1.2v7.8L235.9,24.8z"/>
		<path class="st9" d="M242.9,16.8c2.4,0,3.7,1.8,3.7,4.2v0.3h-6.3c0,1.5,1.2,2.8,2.8,2.7l0,0c0.9,0,1.8-0.4,2.4-1l0.6,0.8
			c-0.9,0.8-1.9,1.2-3.1,1.1c-2.3,0-4.1-1.8-4.2-4C238.9,18.7,240.6,16.8,242.9,16.8L242.9,16.8z M240.4,20.4h5.1
			c0.1-1.4-1-2.6-2.4-2.7c-0.1,0-0.1,0-0.2,0C241.4,17.9,240.3,19,240.4,20.4z"/>
		<path class="st9" d="M248.6,24.8V14.1h1.2v10.8H248.6z"/>
		<path class="st9" d="M257,24.8V24c-0.7,0.8-1.6,1.1-2.6,1.1c-1.4,0.1-2.7-1-2.8-2.4c0-0.1,0-0.1,0-0.2c0-1.4,1.1-2.6,2.6-2.6
			c0.1,0,0.1,0,0.2,0c1-0.1,1.9,0.4,2.6,1v-1.5c0-1-0.9-1.6-2-1.6c-1,0-1.8,0.4-2.4,1.1l-0.6-0.9c0.8-0.9,1.9-1.3,3.1-1.3
			c1.6,0,3,0.8,3,2.6v5.3L257,24.8z M257,21.7c-0.5-0.7-1.3-1-2.1-1c-1-0.1-1.8,0.6-1.9,1.4c-0.1,1,0.6,1.8,1.4,1.9
			c0.2,0,0.3,0,0.5,0c0.9,0,1.6-0.3,2.1-1V21.7z"/>
		<path class="st9" d="M270.5,24.8v-1.1c-0.6,0.9-1.6,1.3-2.7,1.3c-2,0-3.4-1.5-3.4-4.1s1.4-4.1,3.4-4.1c1,0,2,0.6,2.7,1.4v-4.2h1.2
			v10.8C271.7,24.8,270.5,24.8,270.5,24.8z M270.5,19.2c-0.6-0.8-1.4-1.2-2.4-1.2c-1.5,0-2.5,1.3-2.5,3c0,1.7,1,3,2.5,3
			c1,0,1.8-0.5,2.4-1.2V19.2z"/>
		<path class="st9" d="M277.5,16.8c2.4,0,3.7,1.8,3.7,4.2v0.3h-6.3c0,1.5,1.2,2.8,2.8,2.7l0,0c0.9,0,1.7-0.4,2.4-1l0.6,0.8
			c-0.9,0.8-1.9,1.2-3.1,1.1c-2.3,0-4.1-1.8-4.2-4S275.2,16.8,277.5,16.8L277.5,16.8z M274.9,20.4h5.1c0-1.4-1-2.6-2.5-2.6h-0.1
			C276.1,17.9,274.9,19,274.9,20.4z"/>
		<path class="st9" d="M290.8,16.8c1.1,0,2.2,0.5,2.9,1.4l-0.8,0.8c-0.5-0.7-1.2-1-2-1c-1.5,0-2.8,1.2-2.7,2.8c0,0.1,0,0.2,0,0.3
			c-0.2,1.5,1,2.9,2.4,3c0.1,0,0.2,0,0.3,0c0.8,0,1.5-0.4,2-1l0.8,0.8c-0.7,0.9-1.7,1.4-2.9,1.3c-2.3,0-4.1-1.8-4.1-4.1
			S288.6,16.9,290.8,16.8L290.8,16.8z"/>
		<path class="st9" d="M300.2,24.8V24c-0.7,0.8-1.6,1.1-2.6,1.1c-1.4,0.1-2.7-1-2.8-2.5v-0.1c0-1.4,1.1-2.6,2.5-2.6
			c0.1,0,0.1,0,0.2,0c1,0,1.9,0.4,2.6,1v-1.5c0-1-0.9-1.6-2-1.6c-1,0-1.8,0.4-2.4,1.1l-0.6-0.9c0.8-0.9,1.9-1.3,3.1-1.3
			c1.6,0,3,0.8,3,2.6v5.3L300.2,24.8z M300.2,21.7c-0.5-0.7-1.3-1-2.1-1c-1-0.1-1.8,0.6-1.9,1.4c-0.1,1,0.6,1.8,1.4,1.9
			c0.2,0,0.3,0,0.5,0c0.9,0,1.6-0.3,2.1-1V21.7z"/>
		<path class="st9" d="M305,27.8h-1.1V17h1.2v1.2c0.6-0.9,1.6-1.3,2.7-1.3c2,0,3.4,1.5,3.4,4.1s-1.4,4.1-3.4,4.1c-1,0-2-0.5-2.7-1.3
			L305,27.8z M307.4,17.9c-1,0-1.8,0.5-2.3,1.2v3.5c0.5,0.8,1.4,1.2,2.3,1.2c1.5,0,2.5-1.3,2.5-3C309.9,19.1,308.9,17.9,307.4,17.9z
			"/>
		<path class="st9" d="M318,24.8V24c-0.7,0.8-1.6,1.1-2.6,1.1c-1.4,0.1-2.7-1-2.8-2.5v-0.1c0-1.4,1.1-2.6,2.5-2.6c0.1,0,0.1,0,0.2,0
			c1,0,1.9,0.4,2.6,1v-1.5c0-1-0.9-1.6-2-1.6c-1,0-1.8,0.4-2.4,1.1l-0.6-0.9c0.8-0.9,1.9-1.3,3.1-1.3c1.6,0,3,0.8,3,2.6v5.3
			L318,24.8z M318,21.7c-0.6-0.7-1.3-1-2.2-1c-1-0.1-1.8,0.7-1.8,1.5c-0.1,1,0.7,1.8,1.5,1.8c0.1,0,0.2,0,0.3,0c0.9,0,1.6-0.3,2.2-1
			V21.7z"/>
		<path class="st9" d="M325,16.8c1.1,0,2.2,0.5,2.9,1.4l-0.8,0.8c-0.5-0.7-1.2-1-2-1c-1.5,0-2.8,1.2-2.7,2.8c0,0.1,0,0.2,0,0.3
			c-0.2,1.5,1,2.9,2.4,3c0.1,0,0.2,0,0.3,0c0.8,0,1.5-0.4,2-1l0.8,0.8c-0.7,0.9-1.7,1.4-2.9,1.3c-2.3,0-4.1-1.8-4.1-4.1
			S322.7,16.9,325,16.8L325,16.8z"/>
		<path class="st9" d="M329.4,14.9c0-0.5,0.4-0.8,0.9-0.8c0.5,0,0.9,0.4,0.9,0.8l0,0c0,0.5-0.4,0.9-0.9,0.9
			C329.8,15.7,329.4,15.4,329.4,14.9z M329.6,24.8V17h1.2v7.8C330.8,24.8,329.6,24.8,329.6,24.8z"/>
		<path class="st9" d="M333.4,23.2v-5h-1.3V17h1.3v-2.1h1.2V17h1.6v1.1h-1.6V23c0,0.6,0.3,1,0.8,1c0.3,0,0.6-0.1,0.9-0.3l0.4,0.9
			c-0.4,0.4-1,0.6-1.4,0.5c-0.9,0.1-1.6-0.6-1.7-1.4C333.4,23.5,333.4,23.3,333.4,23.2z"/>
		<path class="st9" d="M342.8,24.8V24c-0.7,0.8-1.6,1.1-2.6,1.1c-1.4,0.1-2.7-1-2.8-2.5v-0.1c0-1.4,1.1-2.6,2.5-2.6
			c0.1,0,0.1,0,0.2,0c1,0,1.9,0.4,2.6,1v-1.5c0-1-0.9-1.6-2-1.6c-1,0-1.8,0.4-2.4,1.1l-0.6-0.9c0.8-0.9,1.9-1.3,3.1-1.3
			c1.6,0,3,0.8,3,2.6v5.3L342.8,24.8z M342.8,21.7c-0.5-0.7-1.3-1-2.1-1c-1-0.1-1.8,0.6-1.9,1.4c-0.1,1,0.6,1.8,1.4,1.9
			c0.2,0,0.3,0,0.5,0c0.9,0,1.6-0.3,2.1-1V21.7z"/>
		<path class="st9" d="M349.9,16.8c1.1,0,2.2,0.5,2.9,1.4l-0.8,0.8c-0.5-0.7-1.2-1-2-1c-1.5,0-2.8,1.2-2.7,2.8c0,0.1,0,0.2,0,0.3
			c-0.2,1.5,1,2.9,2.4,3c0.1,0,0.2,0,0.3,0c0.8,0,1.5-0.4,2-1l0.8,0.8c-0.7,0.9-1.7,1.4-2.9,1.3c-2.3,0-4.1-1.8-4.1-4.1
			S347.6,16.9,349.9,16.8L349.9,16.8z"/>
		<path class="st9" d="M354.1,14.9c0.1-0.5,0.5-0.8,1-0.8c0.4,0,0.7,0.4,0.8,0.8c0.1,0.5-0.3,0.9-0.8,1c-0.5,0.1-0.9-0.3-1-0.8
			C354.1,15,354.1,15,354.1,14.9z M354.4,24.8V17h1.2v7.8C355.7,24.8,354.4,24.8,354.4,24.8z"/>
		<path class="st9" d="M357.6,20.9c-0.1-2.1,1.5-3.9,3.6-4.1c2.1-0.2,3.9,1.5,4.1,3.6c0,0.1,0,0.3,0,0.4c0.1,2.1-1.5,3.9-3.6,4.1
			s-3.9-1.5-4.1-3.6C357.6,21.2,357.6,21,357.6,20.9z M363.9,20.9c0.2-1.4-0.8-2.8-2.2-3c-1.4-0.2-2.8,0.8-3,2.2c0,0.3,0,0.6,0,0.9
			c-0.2,1.4,0.8,2.8,2.2,3c1.4,0.2,2.8-0.8,3-2.2C364,21.5,364,21.2,363.9,20.9z M361.8,15.9h-1l2.4-2.3h1.2L361.8,15.9z"/>
		<path class="st9" d="M372.5,24.8v-5c0-1.3-0.7-1.8-1.7-1.8c-1,0-1.8,0.5-2.3,1.2v5.7h-1.2v-7.8h1.2v1.1c0.7-0.8,1.7-1.2,2.8-1.3
			c1.2-0.2,2.4,0.7,2.6,1.9c0,0.2,0,0.5,0,0.7v5.4L372.5,24.8z"/>
		<path class="st9" d="M205.7,46c0.2,0.1,0.5,0.1,0.7,0.1c0.6,0,1-0.3,1.1-0.9l0.5-1.1l-3.2-7.9h1.3l2.6,6.4l2.6-6.4h1.3l-3.9,9.3
			c-0.3,1-1.2,1.6-2.3,1.6c-0.3,0-0.6,0-0.9-0.1L205.7,46z"/>
		<path class="st9" d="M221.5,36.1c2.4,0,3.7,1.8,3.7,4.2v0.3h-6.3c0,1.5,1.3,2.8,2.8,2.7l0,0c0.9,0,1.8-0.4,2.4-1l0.6,0.8
			c-0.9,0.8-1.9,1.2-3.1,1.2c-2.3-0.1-4-2-4-4.2C217.7,38,219.4,36.3,221.5,36.1L221.5,36.1z M218.9,39.8h5.1c0-1.4-1-2.6-2.5-2.6
			h-0.1C220,37.2,218.9,38.3,218.9,39.8z"/>
		<path class="st9" d="M232.4,44.1v-5c0-1.3-0.7-1.8-1.7-1.8c-1,0-1.8,0.5-2.3,1.2v5.7h-1.2v-7.8h1.2v1.1c0.7-0.8,1.7-1.2,2.8-1.3
			c1.2-0.2,2.3,0.7,2.5,1.9c0,0.2,0,0.4,0,0.6v5.4C233.6,44.1,232.4,44.1,232.4,44.1z"/>
		<path class="st9" d="M236.2,42.5v-5h-1.3v-1.1h1.3v-2.1h1.2v2.1h1.6v1.1h-1.6v4.9c0,0.6,0.3,1,0.8,1c0.3,0,0.6-0.1,0.9-0.3l0.4,1
			c-0.4,0.4-1,0.6-1.4,0.5c-0.9,0.1-1.6-0.6-1.7-1.4C236.2,42.8,236.2,42.6,236.2,42.5z"/>
		<path class="st9" d="M240.8,44.1v-7.8h1.2v1.2c0.6-0.9,1.5-1.3,2.6-1.4v1.2c-0.2,0-0.3,0-0.5,0c-0.9,0.1-1.6,0.6-2.1,1.2v5.6
			L240.8,44.1z"/>
		<path class="st9" d="M249.4,36.1c2.4,0,3.7,1.8,3.7,4.2v0.3h-6.3c0,1.5,1.2,2.8,2.8,2.7l0,0c0.9,0,1.8-0.4,2.4-1l0.6,0.8
			c-0.9,0.9-2,1.2-3.1,1.2c-2.3-0.1-4-2-3.9-4.2C245.6,37.9,247.3,36.3,249.4,36.1L249.4,36.1z M246.9,39.8h5.1c0-1.4-1-2.6-2.5-2.6
			h-0.1C248,37.2,246.9,38.3,246.9,39.8z"/>
		<path class="st9" d="M260.4,44.1v-5c0-1.3-0.7-1.8-1.7-1.8c-1,0-1.7,0.5-2.3,1.2v5.7h-1.2v-7.8h1.2v1.1c0.7-0.8,1.7-1.2,2.8-1.3
			c1.2-0.2,2.3,0.7,2.5,1.9c0,0.2,0,0.4,0,0.6v5.4C261.6,44.1,260.4,44.1,260.4,44.1z"/>
		<path class="st9" d="M268.9,44.1v-0.9c-0.7,0.8-1.6,1.1-2.6,1.1c-1.4,0.1-2.7-1-2.8-2.5v-0.1c0-1.4,1.1-2.6,2.5-2.6
			c0.1,0,0.1,0,0.2,0c1,0,1.9,0.4,2.6,1.1V39c0-1.1-0.9-1.6-2-1.6c-1,0-1.8,0.4-2.4,1.1l-0.6-0.9c0.8-0.9,1.9-1.3,3.1-1.3
			c1.6,0,3,0.8,3,2.7v5.3L268.9,44.1z M268.9,41c-0.5-0.7-1.3-1-2.1-1c-1-0.1-1.8,0.6-1.9,1.5c-0.1,1,0.6,1.8,1.5,1.9
			c0.1,0,0.3,0,0.4,0c0.9,0,1.6-0.3,2.1-1V41z"/>
		<path class="st9" d="M281.9,44.1v-5.2c0-1-0.5-1.6-1.4-1.6c-0.9,0-1.6,0.5-2.1,1.1v5.7h-1.1v-5.2c0-1-0.4-1.6-1.4-1.6
			c-0.9,0.1-1.6,0.5-2,1.2v5.7h-1.2v-7.8h1.2v1.1c0.6-0.8,1.5-1.2,2.5-1.3c1-0.1,1.8,0.6,2.1,1.4c0.6-0.9,1.5-1.4,2.6-1.4
			c1.4,0,2.2,0.8,2.2,2.4v5.6L281.9,44.1L281.9,44.1z"/>
		<path class="st9" d="M285.3,34.2c0-0.5,0.4-0.9,0.9-0.9s0.9,0.4,0.9,0.9c0,0.5-0.4,0.9-0.9,0.9l0,0
			C285.7,35,285.3,34.7,285.3,34.2z M285.5,44.1v-7.8h1.2v7.8H285.5z"/>
		<path class="st9" d="M292.6,36.1c2.4,0,3.7,1.8,3.7,4.2v0.3H290c0,1.5,1.3,2.8,2.8,2.7l0,0c0.9,0,1.8-0.4,2.4-1l0.6,0.8
			c-0.9,0.8-1.9,1.2-3.1,1.2c-2.3-0.1-4-2-4-4.2C288.7,38,290.5,36.3,292.6,36.1z M290,39.8h5.1c0-1.4-1-2.6-2.5-2.6h-0.1
			C291.1,37.2,290,38.3,290,39.8z"/>
		<path class="st9" d="M303.5,44.1v-5c0-1.3-0.7-1.8-1.7-1.8c-1,0-1.8,0.5-2.3,1.2v5.7h-1.2v-7.8h1.2v1.1c0.7-0.8,1.7-1.2,2.8-1.3
			c1.2-0.2,2.3,0.7,2.5,1.9c0,0.2,0,0.4,0,0.6v5.4C304.7,44.1,303.5,44.1,303.5,44.1z"/>
		<path class="st9" d="M307.3,42.5v-5h-1.2v-1.1h1.3v-2.1h1.2v2.1h1.6v1.1h-1.6v4.9c0,0.6,0.3,1,0.8,1c0.3,0,0.6-0.1,0.9-0.3l0.4,1
			c-0.4,0.4-1,0.6-1.4,0.5c-0.9,0.1-1.6-0.5-1.8-1.4C307.3,42.8,307.3,42.7,307.3,42.5z"/>
		<path class="st9" d="M311.4,40.2c0.1-2.1,2-3.7,4.1-3.6c2.1,0.1,3.7,2,3.6,4.1c-0.1,2-1.8,3.6-3.9,3.6s-3.8-1.6-3.9-3.8
			C311.4,40.4,311.4,40.3,311.4,40.2z M317.8,40.2c-0.2-1.4-1.5-2.4-3-2.2c-1.4,0.2-2.4,1.5-2.2,3c0.2,1.2,1.3,2.2,2.6,2.2
			C316.7,43.1,317.9,41.9,317.8,40.2C317.9,40.3,317.9,40.3,317.8,40.2z"/>
		<path class="st9" d="M334.6,44.1v-5.2c0-1-0.5-1.6-1.4-1.6c-0.9,0.1-1.6,0.5-2.1,1.1v5.7h-1.2v-5.2c0-1-0.4-1.6-1.4-1.6
			c-0.9,0.1-1.6,0.5-2,1.2v5.7h-1.2v-7.8h1.2v1.1c0.6-0.8,1.5-1.2,2.5-1.3c1-0.1,1.8,0.6,2.1,1.4c0.6-0.9,1.5-1.4,2.6-1.4
			c1.4,0,2.2,0.8,2.2,2.4v5.6L334.6,44.1L334.6,44.1z"/>
		<path class="st9" d="M338,34.2c0-0.5,0.4-0.9,0.9-0.9c0.5,0,0.9,0.4,0.9,0.9c0,0.5-0.4,0.9-0.9,0.9l0,0
			C338.4,35,338,34.7,338,34.2z M338.2,44.1v-7.8h1.2v7.8H338.2z"/>
		<path class="st9" d="M347.1,44.1v-5c0-1.3-0.7-1.8-1.7-1.8c-1,0-1.8,0.5-2.3,1.2v5.7h-1.2v-7.8h1.2v1.1c0.7-0.8,1.7-1.2,2.8-1.3
			c1.2-0.2,2.3,0.7,2.5,1.9c0,0.2,0,0.4,0,0.6v5.4C348.3,44.1,347.1,44.1,347.1,44.1z"/>
		<path class="st9" d="M350.5,34.2c0-0.5,0.4-0.8,0.8-0.9c0.5,0,0.9,0.4,0.9,0.9l0,0c0,0.5-0.4,0.9-0.9,0.9
			C350.9,35,350.5,34.7,350.5,34.2L350.5,34.2z M350.7,44.1v-7.8h1.2v7.8H350.7z"/>
		<path class="st9" d="M354.3,42.2c0.7,0.7,1.6,1.1,2.6,1.1c1.2,0,1.8-0.6,1.8-1.3c0-0.8-1-1.1-2-1.4c-1.3-0.3-2.9-0.7-2.9-2.2
			c0-1.2,1-2.2,2.9-2.2c1,0,2.1,0.4,2.9,1.1l-0.6,0.9c-0.6-0.7-1.4-1-2.3-1c-1.1,0-1.7,0.5-1.7,1.1c0,0.7,0.9,1,1.9,1.2
			c1.3,0.3,3,0.7,3,2.4c0,1.3-1,2.4-3,2.4c-1.1,0.1-2.3-0.4-3.1-1.2L354.3,42.2z"/>
		<path class="st9" d="M362.1,42.5v-5h-1.3v-1.1h1.3v-2.1h1.2v2.1h1.5v1.1h-1.5v4.9c0,0.6,0.3,1,0.8,1c0.3,0,0.6-0.1,0.9-0.3l0.4,1
			c-0.4,0.4-1,0.6-1.4,0.5c-0.9,0.1-1.6-0.6-1.7-1.4C362,42.8,362,42.6,362.1,42.5z"/>
		<path class="st9" d="M370,36.1c2.4,0,3.7,1.8,3.7,4.2v0.3h-6.3c0,1.5,1.2,2.8,2.8,2.7l0,0c0.9,0,1.8-0.4,2.4-1l0.6,0.8
			c-0.9,0.8-1.9,1.2-3.1,1.2c-2.3-0.1-4-2-3.9-4.2C366.2,37.9,367.8,36.3,370,36.1z M367.5,39.8h5.1c0-1.4-1-2.6-2.5-2.6H370
			C368.5,37.2,367.5,38.3,367.5,39.8z"/>
		<path class="st9" d="M375.6,44.1v-7.8h1.2v1.2c0.6-0.9,1.5-1.3,2.6-1.4v1.2c-0.2,0-0.3,0-0.5,0c-0.9,0.1-1.6,0.6-2.1,1.2v5.6
			L375.6,44.1z"/>
		<path class="st9" d="M380.8,34.2c0-0.5,0.4-0.9,0.9-0.9s0.9,0.4,0.9,0.9c0,0.5-0.4,0.9-0.9,0.9l0,0
			C381.2,35,380.8,34.7,380.8,34.2z M381,44.1v-7.8h1.2v7.8H381z"/>
		<path class="st9" d="M389.4,44.1v-0.9c-0.7,0.8-1.6,1.1-2.6,1.1c-1.4,0.1-2.7-1-2.8-2.5v-0.1c0-1.4,1.1-2.6,2.5-2.6
			c0.1,0,0.1,0,0.2,0c1,0,1.9,0.4,2.6,1.1V39c0-1.1-0.9-1.6-2-1.6c-1,0-1.8,0.4-2.4,1.1l-0.6-0.9c0.8-0.9,1.9-1.3,3.1-1.3
			c1.6,0,3,0.8,3,2.7v5.3L389.4,44.1z M389.4,41c-0.5-0.7-1.3-1-2.1-1c-1-0.1-1.8,0.6-1.9,1.5c-0.1,1,0.6,1.8,1.5,1.9
			c0.1,0,0.3,0,0.4,0c0.9,0,1.6-0.3,2.1-1V41z"/>
		<path class="st9" d="M393.1,44.1V33.4h1.2v10.8C394.3,44.1,393.1,44.1,393.1,44.1z"/>
		<line class="st10" x1="186.9" y1="2.4" x2="186.9" y2="56.7"/>
	</g>
</g>
</svg>
