<?xml version="1.0" encoding="utf-8"?>
<!-- Generator: Adobe Illustrator 24.1.3, SVG Export Plug-In . SVG Version: 6.00 Build 0)  -->
<svg version="1.1" id="Capa_1" xmlns="http://www.w3.org/2000/svg" xmlns:xlink="http://www.w3.org/1999/xlink" x="0px" y="0px"
	 viewBox="0 0 45.2 47" style="enable-background:new 0 0 45.2 47;" xml:space="preserve">
<style type="text/css">
	.st0{display:none;}
	.st1{display:inline;fill:none;}
	.st2{fill:url(#SVGID_1_);}
	.st3{fill:url(#SVGID_2_);}
	.st4{fill:url(#SVGID_3_);}
</style>
<g id="guias_borde">
</g>
<g id="guiasl_letras" class="st0">
	<line class="st1" x1="-7154.4" y1="278.6" x2="9228.6" y2="278.6"/>
	<line class="st1" x1="-7152.3" y1="337.2" x2="9230.7" y2="337.2"/>
	<line class="st1" x1="-7154.4" y1="280.9" x2="9228.6" y2="280.9"/>
	<line class="st1" x1="-7154.4" y1="323" x2="9228.6" y2="323"/>
</g>
<g id="Capa_2_1_">
	<g id="Capa_1-2_1_">
		
			<linearGradient id="SVGID_1_" gradientUnits="userSpaceOnUse" x1="141.538" y1="-1054.9978" x2="-4.8355" y2="-1008.9567" gradientTransform="matrix(1 0 0 -1 0 -974.2246)">
			<stop  offset="0" style="stop-color:#4C0C26"/>
			<stop  offset="0.54" style="stop-color:#BE1622"/>
			<stop  offset="1" style="stop-color:#E30613"/>
		</linearGradient>
		<path class="st2" d="M2.2,44.9h6.4c0.7,0,1.3-0.5,1.5-1.1l2.5-7.3l-5.6-6L2.2,44.9z"/>
		
			<linearGradient id="SVGID_2_" gradientUnits="userSpaceOnUse" x1="148.0955" y1="-1034.1548" x2="1.7219" y2="-988.1136" gradientTransform="matrix(1 0 0 -1 0 -974.2246)">
			<stop  offset="0" style="stop-color:#4C0C26"/>
			<stop  offset="0.54" style="stop-color:#BE1622"/>
			<stop  offset="1" style="stop-color:#E30613"/>
		</linearGradient>
		<path class="st3" d="M17.6,1.4l-2.2,5c-0.4,1-0.2,2,0.5,2.8l4.4,4.5c0,0,1.1-3.8,1.4-4.9c0.3,1,0.6,2,0.9,2.9
			c0.3,0.9,0.6,1.6,0.9,2.3l3.8,10.5l-7.5-8.2l-7.9-8.6l-1.3,2.8c-1.5,3.2-1,7.1,1.6,9.7l9.9,10.3l12.6,13.3l0,0
			c0.2,0.2,0.3,0.4,0.5,0.5c0.5,0.4,1.1,0.6,1.7,0.5h6.3L25.8,1.4H17.6z"/>
		
			<linearGradient id="SVGID_3_" gradientUnits="userSpaceOnUse" x1="144.1174" y1="-1046.802" x2="-2.2561" y2="-1000.7608" gradientTransform="matrix(1 0 0 -1 0 -974.2246)">
			<stop  offset="0" style="stop-color:#4C0C26"/>
			<stop  offset="0.54" style="stop-color:#BE1622"/>
			<stop  offset="1" style="stop-color:#E30613"/>
		</linearGradient>
		<path class="st4" d="M8.5,20.3l-1,2.1c-1,2.4-0.6,5.2,1.3,7L23,44.1l1.3-4.7c0.4-1.2,0-2.6-0.9-3.5L8.5,20.3z"/>
	</g>
</g>
</svg>
