<?xml version="1.0" encoding="utf-8"?>
<!-- Generator: Adobe Illustrator 24.1.3, SVG Export Plug-In . SVG Version: 6.00 Build 0)  -->
<svg version="1.1" baseProfile="basic" id="Capa_1" xmlns="http://www.w3.org/2000/svg" xmlns:xlink="http://www.w3.org/1999/xlink"
	 x="0px" y="0px" viewBox="0 0 352.2 288" xml:space="preserve">
<g>
	<path d="M210.3,253c1.6,0,2.8,0,4.1,0c20.3,0,40.6,0,60.9,0c1.2,0,2.3,0,3.5,0.1c3.5,0.3,6.1,3.1,6.2,6.6c0.1,3.4-2.5,6.3-5.9,6.8
		c-1.2,0.2-2.3,0.1-3.5,0.1c-66.4,0-132.7,0-199.1,0c-6,0-9.3-2.3-9.3-6.7c-0.1-4.4,3.2-6.8,9.2-6.8c20.5,0,41,0,61.6,0
		c1.3,0,2.5,0,4,0c0-6.9,0-13.4,0-20.4c-1.3,0-2.5,0-3.8,0c-25.4,0-50.8,0-76.2,0c-17.6,0-31.1-10.6-34.7-27
		c-0.6-2.9-0.8-5.9-0.8-8.9c-0.1-46.5-0.1-92.9,0-139.4c0-21.2,14.7-35.8,36-35.8c75.9,0,151.8,0,227.8,0
		c21.3,0,35.8,14.6,35.9,35.9c0,46.5,0,92.9,0,139.4c0,17.7-10.4,31.1-26.9,34.8c-3.1,0.7-6.3,0.9-9.5,0.9c-25.1,0.1-50.2,0-75.3,0
		c-1.3,0-2.5,0-4,0C210.3,239.4,210.3,245.9,210.3,253z M175.8,218.8c38.1,0,76.1,0,114.2,0c13.8,0,22.1-8.2,22.1-21.9
		c0-46.6,0-93.2,0-139.7c0-13.7-8.4-22.1-22.1-22.1c-76,0-152.1,0-228.1,0c-13.5,0-22,8.4-22,21.9c0,46.7,0,93.4,0,140.1
		c0,2,0.1,4.1,0.5,6c2.3,9.9,10.2,15.8,21.1,15.8C99.6,218.8,137.7,218.8,175.8,218.8z M155.7,252.7c13.7,0,27.2,0,40.6,0
		c0-6.8,0-13.4,0-19.9c-13.6,0-27,0-40.6,0C155.7,239.5,155.7,246,155.7,252.7z"/>
	<path d="M175.8,198.4c-40.1-0.3-71.6-32.4-71.2-72.5c0.3-38.7,32.9-70.7,71.5-70.4c39.9,0.3,71.7,32.5,71.4,72.5
		C247.2,166.9,214.9,198.7,175.8,198.4z M176,69.2c-32.4,0.3-58.2,26.3-57.8,58.4c0.4,31.8,26.5,57.4,58.4,57.2
		c31.5-0.2,57.8-26.7,57.4-58C233.5,94.6,207.7,69,176,69.2z"/>
	<path d="M149.1,126.9c0-6.2-0.1-12.3,0-18.5c0.2-11.9,10.8-18,21.2-12.1c10.8,6.1,21.6,12.3,32.3,18.6c9.9,5.8,10,18.3,0.1,24.1
		c-10.9,6.5-21.8,12.8-32.8,19c-9.9,5.5-20.5-0.6-20.7-11.9C149,139.7,149.1,133.3,149.1,126.9z M162.8,146.3
		c11.3-6.5,22.2-12.8,33.5-19.4c-11.4-6.6-22.3-12.9-33.5-19.4C162.8,120.7,162.8,133.2,162.8,146.3z"/>
</g>
</svg>
