<?xml version="1.0" encoding="utf-8"?>
<!-- Generator: Adobe Illustrator 24.1.3, SVG Export Plug-In . SVG Version: 6.00 Build 0)  -->
<svg version="1.1" baseProfile="basic" id="Capa_1" xmlns="http://www.w3.org/2000/svg" xmlns:xlink="http://www.w3.org/1999/xlink"
	 x="0px" y="0px" viewBox="0 0 40 40" xml:space="preserve">
<style type="text/css">
	.st0{fill:#222222;}
	.st1{fill:#E12320;}
</style>
<path class="st0" d="M35,40H5c-2.8,0-5-2.2-5-5V5c0-2.8,2.2-5,5-5h30c2.8,0,5,2.2,5,5v30C40,37.8,37.8,40,35,40z"/>
<g>
	<path class="st1" d="M24.1,9.2c0.2,0.1,0.4,0.1,0.5,0.2c1.1,0.4,1.8,1.3,1.9,2.4c0,0.1,0,0.2,0,0.3c0,5.3,0,10.6,0,15.9
		c0,1.2-0.5,2-1.6,2.6c-0.4,0.2-0.7,0.3-1.1,0.3c-2.5,0-5.1,0-7.5,0c-1.5,0-2.7-1.2-2.7-2.8c0-2.5,0-4.9,0-7.4c0-2.9,0-5.8,0-8.7
		c0-1.4,0.8-2.4,2.1-2.7c0.1,0,0.2-0.1,0.3-0.1C18.6,9.2,21.3,9.2,24.1,9.2z M25.2,25.3c0-4.1,0-8.3,0-12.4c-3.5,0-7,0-10.5,0
		c0,4.1,0,8.3,0,12.4C18.2,25.3,21.7,25.3,25.2,25.3z M21.2,27.8c0-0.7-0.5-1.2-1.2-1.2c-0.7,0-1.2,0.6-1.2,1.2
		c0,0.7,0.6,1.2,1.2,1.2C20.6,29,21.2,28.5,21.2,27.8z"/>
</g>
</svg>
