<?xml version="1.0" encoding="utf-8"?>
<!-- Generator: Adobe Illustrator 24.1.3, SVG Export Plug-In . SVG Version: 6.00 Build 0)  -->
<svg version="1.1" baseProfile="basic" id="Capa_1" xmlns="http://www.w3.org/2000/svg" xmlns:xlink="http://www.w3.org/1999/xlink"
	 x="0px" y="0px" viewBox="0 0 200 129" xml:space="preserve">
<style type="text/css">
	.st0{fill:#DADADA;}
</style>
<path class="st0" d="M183.4,116.7H16.6c-2.8,0-5-2.3-5-5V17.3c0-2.7,2.3-5,5-5h166.8c2.8,0,5,2.3,5,5v94.4
	C188.4,114.4,186.1,116.7,183.4,116.7z"/>
<path d="M100.5,90.1v2.8c0,2.4-2,4.4-4.4,4.4H83.3v5.7h38.8v-5.7h-12.8c-2.4,0-4.4-2-4.4-4.4v-2.8v-2.3V36.1c0-2.4,2-4.4,4.4-4.4
	h12.8V26H83.3v5.7h12.9c2.4,0,4.4,2,4.4,4.4v51.7V90.1z"/>
</svg>
